Crimson-Semibold.ufo
<glyph name="numbersign" format="1">
  <advance width="479"/>
  <unicode hex="0023"/>
  <outline>
    <contour>
      <point x="328.218" y="221" type="line"/>
      <point x="394" y="221" type="line" smooth="yes"/>
      <point x="408" y="221"/>
      <point x="397" y="169"/>
      <point x="384" y="163" type="curve"/>
      <point x="319.002" y="163" type="line"/>
      <point x="302" y="56" type="line" smooth="yes"/>
      <point x="301" y="52"/>
      <point x="289" y="44"/>
      <point x="274" y="44" type="curve" smooth="yes"/>
      <point x="264" y="44"/>
      <point x="263" y="48"/>
      <point x="263" y="48" type="curve"/>
      <point x="281.596" y="163" type="line"/>
      <point x="157.229" y="163" type="line"/>
      <point x="140" y="56" type="line" smooth="yes"/>
      <point x="139" y="52"/>
      <point x="128" y="44"/>
      <point x="113" y="44" type="curve" smooth="yes"/>
      <point x="103" y="44"/>
      <point x="102" y="48"/>
      <point x="102" y="48" type="curve"/>
      <point x="120.596" y="163" type="line"/>
      <point x="55" y="163" type="line" smooth="yes"/>
      <point x="43" y="163"/>
      <point x="55" y="217"/>
      <point x="68" y="221" type="curve"/>
      <point x="129.974" y="221" type="line"/>
      <point x="151.481" y="354" type="line"/>
      <point x="83" y="354" type="line" smooth="yes"/>
      <point x="71" y="354"/>
      <point x="82" y="408"/>
      <point x="95" y="412" type="curve"/>
      <point x="160.86" y="412" type="line"/>
      <point x="178" y="518" type="line" smooth="yes"/>
      <point x="181" y="527"/>
      <point x="184" y="531"/>
      <point x="203" y="531" type="curve" smooth="yes"/>
      <point x="212" y="531"/>
      <point x="213" y="530"/>
      <point x="216" y="528" type="curve" smooth="yes"/>
      <point x="197.322" y="412" type="line"/>
      <point x="321.86" y="412" type="line"/>
      <point x="339" y="518" type="line" smooth="yes"/>
      <point x="342" y="527"/>
      <point x="345" y="531"/>
      <point x="364" y="531" type="curve" smooth="yes"/>
      <point x="373" y="531"/>
      <point x="374" y="530"/>
      <point x="377" y="528" type="curve" smooth="yes"/>
      <point x="358.568" y="412" type="line"/>
      <point x="421" y="412" type="line" smooth="yes"/>
      <point x="435" y="412"/>
      <point x="425" y="360"/>
      <point x="412" y="354" type="curve"/>
      <point x="349.352" y="354" type="line"/>
    </contour>
    <contour>
      <point x="290.974" y="221" type="line"/>
      <point x="312.481" y="354" type="line"/>
      <point x="187.983" y="354" type="line"/>
      <point x="166.568" y="221" type="line"/>
    </contour>
  </outline>
</glyph>
<glyph name="percent" format="1">
  <advance width="677"/>
  <unicode hex="0025"/>
  <outline>
    <contour>
      <point x="187" y="616" type="curve"/>
      <point x="133" y="616"/>
      <point x="120" y="552"/>
      <point x="120" y="498" type="curve" smooth="yes"/>
      <point x="120" y="434"/>
      <point x="150" y="359"/>
      <point x="200" y="359" type="curve"/>
      <point x="254" y="359"/>
      <point x="265" y="424"/>
      <point x="265" y="476" type="curve" smooth="yes"/>
      <point x="265" y="539"/>
      <point x="238" y="616"/>
    </contour>
    <contour>
      <point x="193" y="643" type="curve" smooth="yes"/>
      <point x="283" y="643"/>
      <point x="345" y="574"/>
      <point x="345" y="488" type="curve" smooth="yes"/>
      <point x="345" y="406"/>
      <point x="283" y="331"/>
      <point x="193" y="331" type="curve" smooth="yes"/>
      <point x="105" y="331"/>
      <point x="40" y="400"/>
      <point x="40" y="486" type="curve" smooth="yes"/>
      <point x="40" y="572"/>
      <point x="105" y="643"/>
    </contour>
    <contour>
      <point x="480" y="282" type="curve"/>
      <point x="426" y="282"/>
      <point x="413" y="218"/>
      <point x="413" y="164" type="curve" smooth="yes"/>
      <point x="413" y="100"/>
      <point x="443" y="24"/>
      <point x="493" y="24" type="curve"/>
      <point x="547" y="24"/>
      <point x="557" y="90"/>
      <point x="557" y="142" type="curve" smooth="yes"/>
      <point x="557" y="205"/>
      <point x="531" y="282"/>
    </contour>
    <contour>
      <point x="486" y="309" type="curve" smooth="yes"/>
      <point x="576" y="309"/>
      <point x="637" y="240"/>
      <point x="637" y="154" type="curve" smooth="yes"/>
      <point x="637" y="72"/>
      <point x="576" y="-4"/>
      <point x="486" y="-4" type="curve" smooth="yes"/>
      <point x="398" y="-4"/>
      <point x="333" y="65"/>
      <point x="333" y="151" type="curve" smooth="yes"/>
      <point x="333" y="237"/>
      <point x="398" y="309"/>
    </contour>
    <contour>
      <point x="611" y="630" type="curve"/>
      <point x="111" y="-2" type="line" smooth="yes"/>
      <point x="107" y="-8"/>
      <point x="89" y="-16"/>
      <point x="75" y="-16" type="curve" smooth="yes"/>
      <point x="61" y="-16"/>
      <point x="58" y="-5"/>
      <point x="58" y="-4" type="curve"/>
      <point x="557" y="628" type="line"/>
      <point x="563" y="634"/>
      <point x="575" y="640"/>
      <point x="587" y="640" type="curve" smooth="yes"/>
      <point x="606" y="640"/>
      <point x="607" y="637"/>
    </contour>
  </outline>
</glyph>
<glyph name="ampersand" format="1">
  <advance width="689"/>
  <unicode hex="0026"/>
  <outline>
    <contour>
      <point x="393" y="95" type="curve"/>
      <point x="347" y="147"/>
      <point x="251" y="290"/>
      <point x="233" y="314" type="curve"/>
      <point x="195" y="286"/>
      <point x="162" y="255"/>
      <point x="162" y="196" type="curve" smooth="yes"/>
      <point x="162" y="116"/>
      <point x="217" y="56"/>
      <point x="299" y="56" type="curve" smooth="yes"/>
      <point x="336" y="56"/>
      <point x="371" y="73"/>
    </contour>
    <contour>
      <point x="312" y="614" type="curve" smooth="yes"/>
      <point x="273" y="614"/>
      <point x="243" y="581"/>
      <point x="243" y="534" type="curve" smooth="yes"/>
      <point x="243" y="484"/>
      <point x="271" y="436"/>
      <point x="295" y="396" type="curve"/>
      <point x="348" y="426"/>
      <point x="377" y="460"/>
      <point x="377" y="522" type="curve" smooth="yes"/>
      <point x="377" y="560"/>
      <point x="357" y="614"/>
    </contour>
    <contour>
      <point x="301" y="650" type="curve" smooth="yes"/>
      <point x="395" y="650"/>
      <point x="463" y="607"/>
      <point x="463" y="536" type="curve" smooth="yes"/>
      <point x="463" y="446"/>
      <point x="385" y="396"/>
      <point x="317" y="362" type="curve"/>
      <point x="352" y="308"/>
      <point x="421" y="216"/>
      <point x="461" y="168" type="curve"/>
      <point x="491" y="210"/>
      <point x="519" y="255"/>
      <point x="519" y="266" type="curve" smooth="yes"/>
      <point x="519" y="288"/>
      <point x="480" y="282"/>
      <point x="473" y="284" type="curve"/>
      <point x="469" y="290"/>
      <point x="469" y="309"/>
      <point x="473" y="312" type="curve"/>
      <point x="547" y="312" type="line" smooth="yes"/>
      <point x="582" y="312"/>
      <point x="620" y="314"/>
      <point x="666" y="316" type="curve"/>
      <point x="670" y="314"/>
      <point x="669" y="288"/>
      <point x="665" y="285" type="curve"/>
      <point x="653" y="285"/>
      <point x="609" y="279"/>
      <point x="595" y="269" type="curve" smooth="yes"/>
      <point x="585" y="262"/>
      <point x="533" y="184"/>
      <point x="489" y="134" type="curve"/>
      <point x="515" y="106"/>
      <point x="552" y="62"/>
      <point x="575" y="62" type="curve" smooth="yes"/>
      <point x="599" y="62"/>
      <point x="625" y="98"/>
      <point x="633" y="112" type="curve"/>
      <point x="643" y="112"/>
      <point x="655" y="102"/>
      <point x="657" y="94" type="curve"/>
      <point x="653" y="84"/>
      <point x="601" y="-2"/>
      <point x="531" y="-2" type="curve"/>
      <point x="475" y="-2"/>
      <point x="433" y="50"/>
      <point x="419" y="66" type="curve"/>
      <point x="373" y="24"/>
      <point x="307" y="-4"/>
      <point x="241" y="-4" type="curve"/>
      <point x="141" y="-4"/>
      <point x="54" y="56"/>
      <point x="54" y="157" type="curve" smooth="yes"/>
      <point x="54" y="263"/>
      <point x="138" y="314"/>
      <point x="207" y="352" type="curve"/>
      <point x="183" y="392"/>
      <point x="149" y="436"/>
      <point x="149" y="504" type="curve" smooth="yes"/>
      <point x="149" y="587"/>
      <point x="212" y="650"/>
    </contour>
  </outline>
</glyph>
<glyph name="quotesingle" format="1">
  <advance width="173"/>
  <unicode hex="0027"/>
  <outline>
    <contour>
      <point x="99" y="705" type="curve" smooth="yes"/>
      <point x="113" y="705"/>
      <point x="123" y="700"/>
      <point x="131" y="688" type="curve"/>
      <point x="129" y="642"/>
      <point x="122" y="541"/>
      <point x="113" y="481" type="curve"/>
      <point x="109" y="475"/>
      <point x="99" y="466"/>
      <point x="89" y="462" type="curve"/>
      <point x="85" y="462"/>
      <point x="81" y="464"/>
      <point x="79" y="468" type="curve"/>
      <point x="57" y="533"/>
      <point x="37" y="590"/>
      <point x="37" y="628" type="curve" smooth="yes"/>
      <point x="37" y="664"/>
      <point x="62" y="705"/>
    </contour>
  </outline>
</glyph>
<glyph name="parenright" format="1">
  <advance width="277"/>
  <unicode hex="0029"/>
  <outline>
    <contour>
      <point x="242" y="295" type="curve" smooth="yes"/>
      <point x="242" y="63"/>
      <point x="118" y="-81"/>
      <point x="22" y="-144" type="curve"/>
      <point x="16" y="-140"/>
      <point x="7" y="-122"/>
      <point x="8" y="-120" type="curve"/>
      <point x="74" y="-62"/>
      <point x="150" y="101"/>
      <point x="150" y="295" type="curve" smooth="yes"/>
      <point x="150" y="489"/>
      <point x="74" y="652"/>
      <point x="8" y="710" type="curve"/>
      <point x="7" y="712"/>
      <point x="16" y="729"/>
      <point x="22" y="733" type="curve"/>
      <point x="118" y="670"/>
      <point x="242" y="527"/>
    </contour>
  </outline>
</glyph>
<glyph name="plus" format="1">
  <advance width="542"/>
  <unicode hex="002B"/>
  <outline>
    <contour>
      <point x="242" y="474" type="curve"/>
      <point x="256" y="482"/>
      <point x="279" y="485"/>
      <point x="285" y="485" type="curve" smooth="yes"/>
      <point x="295" y="485"/>
      <point x="299" y="482"/>
      <point x="299" y="478" type="curve"/>
      <point x="299" y="275" type="line"/>
      <point x="339" y="275"/>
      <point x="463" y="275"/>
      <point x="503" y="275" type="curve"/>
      <point x="508" y="275"/>
      <point x="511" y="269"/>
      <point x="511" y="262" type="curve" smooth="yes"/>
      <point x="511" y="243"/>
      <point x="505" y="227"/>
      <point x="497" y="218" type="curve"/>
      <point x="299" y="218" type="line"/>
      <point x="299" y="218"/>
      <point x="299" y="56"/>
      <point x="299" y="18" type="curve"/>
      <point x="287" y="10"/>
      <point x="264" y="6"/>
      <point x="254" y="6" type="curve" smooth="yes"/>
      <point x="248" y="6"/>
      <point x="242" y="11"/>
      <point x="242" y="15" type="curve" smooth="yes"/>
      <point x="242" y="218" type="line"/>
      <point x="37" y="218" type="line"/>
      <point x="35" y="218"/>
      <point x="31" y="220"/>
      <point x="31" y="230" type="curve" smooth="yes"/>
      <point x="31" y="234"/>
      <point x="35" y="265"/>
      <point x="44" y="275" type="curve"/>
      <point x="241" y="275" type="line"/>
      <point x="241" y="275"/>
      <point x="242" y="464"/>
    </contour>
  </outline>
</glyph>
<glyph name="hyphen" format="1">
  <advance width="376"/>
  <unicode hex="002D"/>
  <outline>
    <contour>
      <point x="71" y="264" type="curve"/>
      <point x="71" y="264"/>
      <point x="279" y="275"/>
      <point x="312" y="276" type="curve" smooth="yes"/>
      <point x="316" y="276"/>
      <point x="319" y="275"/>
      <point x="319" y="267" type="curve" smooth="yes"/>
      <point x="319" y="250"/>
      <point x="313" y="227"/>
      <point x="305" y="210" type="curve"/>
      <point x="258" y="207"/>
      <point x="155" y="203"/>
      <point x="64" y="199" type="curve" smooth="yes"/>
      <point x="59" y="199"/>
      <point x="57" y="201"/>
      <point x="57" y="210" type="curve" smooth="yes"/>
      <point x="57" y="229"/>
      <point x="64" y="249"/>
    </contour>
  </outline>
</glyph>
<glyph name="slash" format="1">
  <advance width="417"/>
  <unicode hex="002F"/>
  <outline>
    <contour>
      <point x="371" y="761" type="curve" smooth="yes"/>
      <point x="382" y="761"/>
      <point x="386" y="756"/>
      <point x="387" y="752" type="curve"/>
      <point x="92" y="-13" type="line" smooth="yes"/>
      <point x="90" y="-20"/>
      <point x="76" y="-35"/>
      <point x="47" y="-35" type="curve" smooth="yes"/>
      <point x="32" y="-35"/>
      <point x="29" y="-28"/>
      <point x="29" y="-28" type="curve"/>
      <point x="327" y="742" type="line"/>
      <point x="329" y="748"/>
      <point x="344" y="761"/>
    </contour>
  </outline>
</glyph>
<glyph name="one" format="1">
  <advance width="487"/>
  <unicode hex="0031"/>
  <outline>
    <contour>
      <point x="206.58" y="130" type="curve" smooth="yes"/>
      <point x="206.58" y="501" type="line" smooth="yes"/>
      <point x="206.58" y="537"/>
      <point x="200.58" y="546"/>
      <point x="185.58" y="546" type="curve" smooth="yes"/>
      <point x="173.58" y="546"/>
      <point x="132.58" y="534"/>
      <point x="114.58" y="525" type="curve"/>
      <point x="108.58" y="529"/>
      <point x="102.58" y="537"/>
      <point x="102.58" y="543" type="curve" smooth="yes"/>
      <point x="102.58" y="545"/>
      <point x="101.58" y="551"/>
      <point x="104.58" y="552" type="curve" smooth="yes"/>
      <point x="202.58" y="595"/>
      <point x="303.58" y="642"/>
      <point x="306.58" y="642" type="curve" smooth="yes"/>
      <point x="308.58" y="642" type="line" smooth="yes"/>
      <point x="314.58" y="642"/>
      <point x="318.58" y="630"/>
      <point x="319.58" y="625" type="curve"/>
      <point x="319.58" y="625"/>
      <point x="310.58" y="593"/>
      <point x="310.58" y="530" type="curve" smooth="yes"/>
      <point x="310.58" y="130" type="line" smooth="yes"/>
      <point x="310.58" y="94"/>
      <point x="311.58" y="64"/>
      <point x="317.58" y="46" type="curve" smooth="yes"/>
      <point x="321.58" y="34"/>
      <point x="369.58" y="29"/>
      <point x="381.58" y="29" type="curve"/>
      <point x="385.58" y="23"/>
      <point x="385.58" y="2"/>
      <point x="381.58" y="-4" type="curve"/>
      <point x="341.58" y="-1"/>
      <point x="297.58" y="2"/>
      <point x="257.58" y="2" type="curve" smooth="yes"/>
      <point x="217.58" y="2"/>
      <point x="175.58" y="-1"/>
      <point x="135.58" y="-4" type="curve"/>
      <point x="131.58" y="2"/>
      <point x="131.58" y="23"/>
      <point x="135.58" y="29" type="curve"/>
      <point x="148.58" y="29"/>
      <point x="195.58" y="34"/>
      <point x="199.58" y="46" type="curve" smooth="yes"/>
      <point x="205.58" y="64"/>
      <point x="206.58" y="94"/>
    </contour>
  </outline>
</glyph>
<glyph name="two" format="1">
  <advance width="487"/>
  <unicode hex="0032"/>
  <outline>
    <contour>
      <point x="454.5" y="171" type="curve"/>
      <point x="438.5" y="123"/>
      <point x="402.5" y="18"/>
      <point x="396.5" y="0" type="curve"/>
      <point x="396.5" y="0"/>
      <point x="44.5" y="0"/>
      <point x="40.5" y="0" type="curve"/>
      <point x="36.5" y="4"/>
      <point x="32.5" y="12"/>
      <point x="32.5" y="16" type="curve"/>
      <point x="112.5" y="105"/>
      <point x="190.5" y="190"/>
      <point x="254.5" y="288" type="curve" smooth="yes"/>
      <point x="298.5" y="354"/>
      <point x="308.5" y="405"/>
      <point x="308.5" y="452" type="curve" smooth="yes"/>
      <point x="308.5" y="520"/>
      <point x="257.5" y="570"/>
      <point x="198.5" y="570" type="curve" smooth="yes"/>
      <point x="123.5" y="570"/>
      <point x="80.5" y="506"/>
      <point x="70.5" y="492" type="curve"/>
      <point x="64.5" y="492"/>
      <point x="50.5" y="502"/>
      <point x="50.5" y="512" type="curve"/>
      <point x="62.5" y="544"/>
      <point x="134.5" y="642"/>
      <point x="242.5" y="642" type="curve" smooth="yes"/>
      <point x="338.5" y="642"/>
      <point x="416.5" y="570"/>
      <point x="416.5" y="474" type="curve" smooth="yes"/>
      <point x="416.5" y="415"/>
      <point x="388.5" y="360"/>
      <point x="348.5" y="312" type="curve" smooth="yes"/>
      <point x="285.5" y="236"/>
      <point x="203.5" y="144"/>
      <point x="146.5" y="88" type="curve"/>
      <point x="332.5" y="88" type="line" smooth="yes"/>
      <point x="382.5" y="88"/>
      <point x="402.5" y="126"/>
      <point x="420.5" y="170" type="curve" smooth="yes"/>
      <point x="422.5" y="175"/>
      <point x="428.5" y="177"/>
      <point x="434.5" y="177" type="curve" smooth="yes"/>
      <point x="440.5" y="177"/>
      <point x="450.5" y="175"/>
    </contour>
  </outline>
</glyph>
<glyph name="three" format="1">
  <advance width="487"/>
  <unicode hex="0033"/>
  <outline>
    <contour>
      <point x="255.5" y="642" type="curve" smooth="yes"/>
      <point x="305.5" y="642"/>
      <point x="397.5" y="605"/>
      <point x="397.5" y="514" type="curve" smooth="yes"/>
      <point x="397.5" y="440"/>
      <point x="325.5" y="392"/>
      <point x="295.5" y="376" type="curve"/>
      <point x="333.5" y="375"/>
      <point x="441.5" y="322"/>
      <point x="441.5" y="219" type="curve" smooth="yes"/>
      <point x="441.5" y="80"/>
      <point x="305.5" y="-6"/>
      <point x="179.5" y="-6" type="curve" smooth="yes"/>
      <point x="133.5" y="-6"/>
      <point x="87.5" y="8"/>
      <point x="61.5" y="24" type="curve"/>
      <point x="55.5" y="30"/>
      <point x="45.5" y="52"/>
      <point x="45.5" y="65" type="curve" smooth="yes"/>
      <point x="45.5" y="91"/>
      <point x="63.5" y="116"/>
      <point x="91.5" y="116" type="curve" smooth="yes"/>
      <point x="119.5" y="116"/>
      <point x="135.5" y="88"/>
      <point x="151.5" y="70" type="curve" smooth="yes"/>
      <point x="169.5" y="50"/>
      <point x="199.5" y="35"/>
      <point x="225.5" y="35" type="curve" smooth="yes"/>
      <point x="283.5" y="35"/>
      <point x="331.5" y="82"/>
      <point x="331.5" y="184" type="curve" smooth="yes"/>
      <point x="331.5" y="262"/>
      <point x="277.5" y="326"/>
      <point x="211.5" y="326" type="curve" smooth="yes"/>
      <point x="197.5" y="326"/>
      <point x="174.5" y="321"/>
      <point x="155.5" y="316" type="curve"/>
      <point x="151.5" y="321"/>
      <point x="147.5" y="330"/>
      <point x="147.5" y="338" type="curve" smooth="yes"/>
      <point x="147.5" y="342"/>
      <point x="147.5" y="345"/>
      <point x="149.5" y="348" type="curve"/>
      <point x="217.5" y="362"/>
      <point x="301.5" y="399"/>
      <point x="301.5" y="477" type="curve" smooth="yes"/>
      <point x="301.5" y="534"/>
      <point x="263.5" y="578"/>
      <point x="205.5" y="578" type="curve" smooth="yes"/>
      <point x="147.5" y="578"/>
      <point x="101.5" y="528"/>
      <point x="93.5" y="520" type="curve"/>
      <point x="87.5" y="521"/>
      <point x="81.5" y="535"/>
      <point x="81.5" y="544" type="curve"/>
      <point x="115.5" y="592"/>
      <point x="176.5" y="642"/>
    </contour>
  </outline>
</glyph>
<glyph name="four" format="1">
  <advance width="487"/>
  <unicode hex="0034"/>
  <outline>
    <contour>
      <point x="379" y="644" type="curve" smooth="yes"/>
      <point x="387" y="644"/>
      <point x="400" y="631"/>
      <point x="400" y="621" type="curve" smooth="yes"/>
      <point x="400" y="236" type="line"/>
      <point x="453" y="236" type="line" smooth="yes"/>
      <point x="459" y="236"/>
      <point x="467" y="217"/>
      <point x="467" y="192" type="curve" smooth="yes"/>
      <point x="467" y="180"/>
      <point x="462" y="176"/>
      <point x="461" y="174" type="curve"/>
      <point x="400" y="174" type="line"/>
      <point x="400" y="2" type="line"/>
      <point x="400" y="2"/>
      <point x="385" y="-6"/>
      <point x="345" y="-6" type="curve" smooth="yes"/>
      <point x="316" y="-6"/>
      <point x="298" y="-3"/>
      <point x="298" y="5" type="curve" smooth="yes"/>
      <point x="298" y="174" type="line"/>
      <point x="30" y="174" type="line"/>
      <point x="22" y="178"/>
      <point x="20" y="186"/>
      <point x="20" y="196" type="curve"/>
      <point x="80" y="270"/>
      <point x="302" y="558"/>
      <point x="355" y="624" type="curve"/>
      <point x="361" y="632"/>
      <point x="371" y="644"/>
    </contour>
    <contour>
      <point x="298" y="495" type="line"/>
      <point x="97" y="236" type="line"/>
      <point x="298" y="236" type="line"/>
    </contour>
  </outline>
</glyph>
<glyph name="six" format="1">
  <advance width="487"/>
  <unicode hex="0036"/>
  <outline>
    <contour>
      <point x="155" y="316" type="curve"/>
      <point x="151" y="288"/>
      <point x="148" y="256"/>
      <point x="148" y="230" type="curve" smooth="yes"/>
      <point x="148" y="143"/>
      <point x="178" y="32"/>
      <point x="250" y="32" type="curve" smooth="yes"/>
      <point x="301" y="32"/>
      <point x="339" y="93"/>
      <point x="339" y="183" type="curve" smooth="yes"/>
      <point x="339" y="268"/>
      <point x="308" y="346"/>
      <point x="228" y="346" type="curve" smooth="yes"/>
      <point x="208" y="346"/>
      <point x="179" y="341"/>
    </contour>
    <contour>
      <point x="264" y="400" type="curve" smooth="yes"/>
      <point x="382" y="400"/>
      <point x="447" y="313"/>
      <point x="447" y="205" type="curve" smooth="yes"/>
      <point x="447" y="91"/>
      <point x="350" y="-6"/>
      <point x="240" y="-6" type="curve" smooth="yes"/>
      <point x="124" y="-6"/>
      <point x="40" y="112"/>
      <point x="40" y="231" type="curve"/>
      <point x="40" y="337"/>
      <point x="85" y="432"/>
      <point x="146" y="498" type="curve" smooth="yes"/>
      <point x="224" y="582"/>
      <point x="332" y="630"/>
      <point x="408" y="646" type="curve"/>
      <point x="416" y="643"/>
      <point x="418" y="626"/>
      <point x="417" y="618" type="curve"/>
      <point x="312" y="578"/>
      <point x="203" y="504"/>
      <point x="165" y="365" type="curve"/>
      <point x="195" y="387"/>
      <point x="234" y="400"/>
    </contour>
  </outline>
</glyph>
<glyph name="nine" format="1">
  <advance width="487"/>
  <unicode hex="0039"/>
  <outline>
    <contour>
      <point x="333" y="324" type="curve"/>
      <point x="337" y="349"/>
      <point x="339" y="382"/>
      <point x="339" y="410" type="curve" smooth="yes"/>
      <point x="339" y="497"/>
      <point x="310" y="608"/>
      <point x="238" y="608" type="curve" smooth="yes"/>
      <point x="187" y="608"/>
      <point x="148" y="547"/>
      <point x="148" y="457" type="curve" smooth="yes"/>
      <point x="148" y="372"/>
      <point x="180" y="294"/>
      <point x="260" y="294" type="curve" smooth="yes"/>
      <point x="280" y="294"/>
      <point x="309" y="299"/>
    </contour>
    <contour>
      <point x="70" y="22" type="curve"/>
      <point x="175" y="62"/>
      <point x="285" y="136"/>
      <point x="323" y="275" type="curve"/>
      <point x="293" y="253"/>
      <point x="254" y="240"/>
      <point x="224" y="240" type="curve" smooth="yes"/>
      <point x="106" y="240"/>
      <point x="40" y="327"/>
      <point x="40" y="435" type="curve" smooth="yes"/>
      <point x="40" y="549"/>
      <point x="138" y="646"/>
      <point x="248" y="646" type="curve" smooth="yes"/>
      <point x="364" y="646"/>
      <point x="447" y="528"/>
      <point x="447" y="409" type="curve"/>
      <point x="447" y="303"/>
      <point x="403" y="208"/>
      <point x="342" y="142" type="curve" smooth="yes"/>
      <point x="264" y="58"/>
      <point x="156" y="10"/>
      <point x="80" y="-6" type="curve"/>
      <point x="72" y="-3"/>
      <point x="69" y="14"/>
    </contour>
  </outline>
</glyph>
<glyph name="colon" format="1">
  <advance width="230"/>
  <unicode hex="003A"/>
  <outline>
    <contour>
      <point x="50" y="48" type="curve" smooth="yes"/>
      <point x="50" y="83"/>
      <point x="80" y="111"/>
      <point x="116" y="111" type="curve"/>
      <point x="152" y="111"/>
      <point x="180" y="81"/>
      <point x="180" y="46" type="curve" smooth="yes"/>
      <point x="180" y="11"/>
      <point x="152" y="-19"/>
      <point x="116" y="-19" type="curve"/>
      <point x="80" y="-19"/>
      <point x="50" y="12"/>
    </contour>
    <contour>
      <point x="50" y="378" type="curve" smooth="yes"/>
      <point x="50" y="413"/>
      <point x="80" y="441"/>
      <point x="116" y="441" type="curve"/>
      <point x="152" y="441"/>
      <point x="180" y="411"/>
      <point x="180" y="376" type="curve" smooth="yes"/>
      <point x="180" y="341"/>
      <point x="152" y="311"/>
      <point x="116" y="311" type="curve"/>
      <point x="80" y="311"/>
      <point x="50" y="342"/>
    </contour>
  </outline>
</glyph>
<glyph name="question" format="1">
  <advance width="377"/>
  <unicode hex="003F"/>
  <outline>
    <contour>
      <point x="64" y="56" type="curve" smooth="yes"/>
      <point x="64" y="92"/>
      <point x="94" y="119"/>
      <point x="128" y="119" type="curve" smooth="yes"/>
      <point x="164" y="119"/>
      <point x="192" y="92"/>
      <point x="192" y="56" type="curve" smooth="yes"/>
      <point x="192" y="20"/>
      <point x="165" y="-11"/>
      <point x="130" y="-11" type="curve" smooth="yes"/>
      <point x="96" y="-11"/>
      <point x="64" y="18"/>
    </contour>
    <contour>
      <point x="108" y="533" type="curve" smooth="yes"/>
      <point x="82" y="533"/>
      <point x="54" y="558"/>
      <point x="54" y="591" type="curve" smooth="yes"/>
      <point x="54" y="607"/>
      <point x="60" y="626"/>
      <point x="66" y="632" type="curve"/>
      <point x="78" y="638"/>
      <point x="101" y="644"/>
      <point x="136" y="644" type="curve" smooth="yes"/>
      <point x="192" y="644"/>
      <point x="338" y="592"/>
      <point x="338" y="464" type="curve" smooth="yes"/>
      <point x="338" y="386"/>
      <point x="288" y="348"/>
      <point x="224" y="310" type="curve" smooth="yes"/>
      <point x="197" y="294"/>
      <point x="156" y="267"/>
      <point x="144" y="249" type="curve" smooth="yes"/>
      <point x="136" y="236"/>
      <point x="138" y="209"/>
      <point x="138" y="193" type="curve"/>
      <point x="135" y="186"/>
      <point x="129" y="178"/>
      <point x="122" y="178" type="curve"/>
      <point x="116" y="179"/>
      <point x="108" y="184"/>
      <point x="104" y="189" type="curve"/>
      <point x="98" y="207"/>
      <point x="90" y="250"/>
      <point x="90" y="284" type="curve" smooth="yes"/>
      <point x="90" y="350"/>
      <point x="137" y="380"/>
      <point x="173" y="404" type="curve" smooth="yes"/>
      <point x="223" y="436"/>
      <point x="270" y="469"/>
      <point x="270" y="510" type="curve" smooth="yes"/>
      <point x="270" y="546"/>
      <point x="243" y="574"/>
      <point x="206" y="574" type="curve" smooth="yes"/>
      <point x="162" y="574"/>
      <point x="142" y="533"/>
    </contour>
  </outline>
</glyph>
<glyph name="at" format="1">
  <advance width="756"/>
  <unicode hex="0040"/>
  <outline>
    <contour>
      <point x="431" y="578" type="curve" smooth="yes"/>
      <point x="627" y="578"/>
      <point x="721" y="436"/>
      <point x="721" y="280" type="curve" smooth="yes"/>
      <point x="721" y="127"/>
      <point x="624" y="-7"/>
      <point x="507" y="-7" type="curve" smooth="yes"/>
      <point x="458" y="-7"/>
      <point x="417" y="18"/>
      <point x="417" y="79" type="curve" smooth="yes"/>
      <point x="417" y="89"/>
      <point x="420" y="108"/>
      <point x="423" y="116" type="curve"/>
      <point x="404" y="79"/>
      <point x="341" y="-5"/>
      <point x="281" y="-5" type="curve" smooth="yes"/>
      <point x="225" y="-5"/>
      <point x="185" y="38"/>
      <point x="185" y="125" type="curve" smooth="yes"/>
      <point x="185" y="271"/>
      <point x="341" y="439"/>
      <point x="481" y="439" type="curve" smooth="yes"/>
      <point x="516" y="439"/>
      <point x="554" y="433"/>
      <point x="573" y="426" type="curve"/>
      <point x="514" y="116" type="line" smooth="yes"/>
      <point x="513" y="112"/>
      <point x="511" y="97"/>
      <point x="511" y="92" type="curve" smooth="yes"/>
      <point x="511" y="69"/>
      <point x="520" y="45"/>
      <point x="547" y="45" type="curve" smooth="yes"/>
      <point x="603" y="45"/>
      <point x="679" y="150"/>
      <point x="679" y="275" type="curve" smooth="yes"/>
      <point x="679" y="410"/>
      <point x="605" y="538"/>
      <point x="431" y="538" type="curve" smooth="yes"/>
      <point x="227" y="538"/>
      <point x="91" y="344"/>
      <point x="91" y="170" type="curve" smooth="yes"/>
      <point x="91" y="53"/>
      <point x="153" y="-36"/>
      <point x="225" y="-78" type="curve" smooth="yes"/>
      <point x="261" y="-99"/>
      <point x="282" y="-102"/>
      <point x="301" y="-105" type="curve"/>
      <point x="301" y="-113"/>
      <point x="277" y="-124"/>
      <point x="263" y="-124" type="curve" smooth="yes"/>
      <point x="249" y="-124"/>
      <point x="234" y="-121"/>
      <point x="221" y="-116" type="curve" smooth="yes"/>
      <point x="129" y="-82"/>
      <point x="47" y="27"/>
      <point x="47" y="168" type="curve" smooth="yes"/>
      <point x="47" y="364"/>
      <point x="199" y="578"/>
    </contour>
    <contour>
      <point x="439" y="389" type="curve" smooth="yes"/>
      <point x="359" y="389"/>
      <point x="283" y="265"/>
      <point x="283" y="150" type="curve" smooth="yes"/>
      <point x="283" y="100"/>
      <point x="300" y="73"/>
      <point x="329" y="73" type="curve" smooth="yes"/>
      <point x="375" y="73"/>
      <point x="433" y="171"/>
      <point x="453" y="274" type="curve" smooth="yes"/>
      <point x="473" y="376" type="line"/>
      <point x="464" y="386"/>
      <point x="452" y="389"/>
    </contour>
  </outline>
</glyph>
<glyph name="A" format="1">
  <advance width="653"/>
  <unicode hex="0041"/>
  <outline>
    <contour>
      <point x="95" y="136" type="curve" smooth="yes"/>
      <point x="95" y="136"/>
      <point x="268" y="551"/>
      <point x="298" y="629" type="curve"/>
      <point x="304" y="643"/>
      <point x="325" y="662"/>
      <point x="335" y="662" type="curve" smooth="yes"/>
      <point x="341" y="662"/>
      <point x="347" y="660"/>
      <point x="349" y="658" type="curve"/>
      <point x="553" y="137" type="line"/>
      <point x="567" y="103"/>
      <point x="575" y="80"/>
      <point x="580" y="68" type="curve" smooth="yes"/>
      <point x="594" y="36"/>
      <point x="645" y="30"/>
      <point x="653" y="30" type="curve"/>
      <point x="658" y="22"/>
      <point x="657" y="0"/>
      <point x="655" y="-4" type="curve"/>
      <point x="615" y="-2"/>
      <point x="577" y="3"/>
      <point x="533" y="3" type="curve" smooth="yes"/>
      <point x="487" y="3"/>
      <point x="441" y="-2"/>
      <point x="400" y="-4" type="curve"/>
      <point x="395" y="1"/>
      <point x="395" y="28"/>
      <point x="400" y="30" type="curve"/>
      <point x="414" y="30"/>
      <point x="446" y="35"/>
      <point x="458" y="45" type="curve" smooth="yes"/>
      <point x="462" y="49"/>
      <point x="464" y="54"/>
      <point x="464" y="60" type="curve" smooth="yes"/>
      <point x="464" y="80"/>
      <point x="401" y="234"/>
      <point x="401" y="234" type="curve"/>
      <point x="401" y="234"/>
      <point x="398" y="238"/>
      <point x="395" y="238" type="curve" smooth="yes"/>
      <point x="363" y="240"/>
      <point x="321" y="238"/>
      <point x="296" y="238" type="curve" smooth="yes"/>
      <point x="255" y="238"/>
      <point x="232" y="238"/>
      <point x="192" y="236" type="curve" smooth="yes"/>
      <point x="190" y="236"/>
      <point x="186" y="233"/>
      <point x="186" y="232" type="curve"/>
      <point x="186" y="232"/>
      <point x="159" y="168"/>
      <point x="145" y="130" type="curve" smooth="yes"/>
      <point x="134" y="100"/>
      <point x="127" y="70"/>
      <point x="127" y="60" type="curve" smooth="yes"/>
      <point x="127" y="35"/>
      <point x="191" y="30"/>
      <point x="199" y="30" type="curve"/>
      <point x="203" y="25"/>
      <point x="202" y="1"/>
      <point x="200" y="-4" type="curve"/>
      <point x="162" y="-1"/>
      <point x="142" y="3"/>
      <point x="98" y="3" type="curve" smooth="yes"/>
      <point x="52" y="3"/>
      <point x="31" y="-1"/>
      <point x="-9" y="-4" type="curve"/>
      <point x="-13" y="0"/>
      <point x="-13" y="20"/>
      <point x="-10" y="29" type="curve"/>
      <point x="2" y="29"/>
      <point x="44" y="40"/>
      <point x="54" y="54" type="curve" smooth="yes"/>
      <point x="72" y="81"/>
      <point x="82" y="104"/>
    </contour>
    <contour>
      <point x="295" y="506" type="line"/>
      <point x="207" y="290" type="line"/>
      <point x="207" y="290"/>
      <point x="207" y="286"/>
      <point x="209" y="286" type="curve" smooth="yes"/>
      <point x="232" y="284"/>
      <point x="271" y="283"/>
      <point x="294" y="283" type="curve" smooth="yes"/>
      <point x="325" y="283"/>
      <point x="345" y="284"/>
      <point x="376" y="286" type="curve" smooth="yes"/>
      <point x="378" y="286"/>
      <point x="379" y="291"/>
      <point x="379" y="291" type="curve"/>
    </contour>
  </outline>
</glyph>
<glyph name="B" format="1">
  <advance width="609"/>
  <unicode hex="0042"/>
  <outline>
    <contour>
      <point x="230" y="333" type="line"/>
      <point x="230" y="114" type="line" smooth="yes"/>
      <point x="230" y="104"/>
      <point x="230" y="60"/>
      <point x="238" y="50" type="curve" smooth="yes"/>
      <point x="250" y="36"/>
      <point x="277" y="35"/>
      <point x="309" y="35" type="curve" smooth="yes"/>
      <point x="369" y="35"/>
      <point x="441" y="64"/>
      <point x="441" y="176" type="curve" smooth="yes"/>
      <point x="441" y="251"/>
      <point x="410" y="333"/>
      <point x="286" y="333" type="curve" smooth="yes"/>
    </contour>
    <contour>
      <point x="230" y="371" type="line"/>
      <point x="306" y="371" type="line" smooth="yes"/>
      <point x="367" y="371"/>
      <point x="403" y="421"/>
      <point x="403" y="487" type="curve" smooth="yes"/>
      <point x="403" y="579"/>
      <point x="356" y="622"/>
      <point x="284" y="622" type="curve" smooth="yes"/>
      <point x="266" y="622"/>
      <point x="238" y="621"/>
      <point x="234" y="611" type="curve" smooth="yes"/>
      <point x="229" y="599"/>
      <point x="230" y="573"/>
      <point x="230" y="543" type="curve" smooth="yes"/>
    </contour>
    <contour>
      <point x="321" y="660" type="curve" smooth="yes"/>
      <point x="413" y="660"/>
      <point x="523" y="621"/>
      <point x="523" y="506" type="curve" smooth="yes"/>
      <point x="523" y="428"/>
      <point x="449" y="380"/>
      <point x="418" y="368" type="curve" smooth="yes"/>
      <point x="413" y="366"/>
      <point x="413" y="363"/>
      <point x="415" y="362" type="curve"/>
      <point x="465" y="358"/>
      <point x="569" y="298"/>
      <point x="569" y="196" type="curve" smooth="yes"/>
      <point x="569" y="134"/>
      <point x="530" y="72"/>
      <point x="477" y="38" type="curve" smooth="yes"/>
      <point x="422" y="2"/>
      <point x="350" y="-3"/>
      <point x="274" y="-3" type="curve" smooth="yes"/>
      <point x="237" y="-3"/>
      <point x="82" y="-3"/>
      <point x="43" y="-3" type="curve"/>
      <point x="39" y="3"/>
      <point x="39" y="24"/>
      <point x="43" y="30" type="curve"/>
      <point x="55" y="30"/>
      <point x="105" y="34"/>
      <point x="109" y="46" type="curve" smooth="yes"/>
      <point x="115" y="64"/>
      <point x="116" y="94"/>
      <point x="116" y="130" type="curve" smooth="yes"/>
      <point x="116" y="528" type="line" smooth="yes"/>
      <point x="116" y="564"/>
      <point x="115" y="594"/>
      <point x="109" y="612" type="curve" smooth="yes"/>
      <point x="105" y="624"/>
      <point x="55" y="628"/>
      <point x="43" y="628" type="curve"/>
      <point x="39" y="634"/>
      <point x="39" y="655"/>
      <point x="43" y="661" type="curve"/>
      <point x="86" y="659"/>
      <point x="133" y="657"/>
      <point x="173" y="657" type="curve" smooth="yes"/>
      <point x="213" y="657"/>
      <point x="263" y="660"/>
    </contour>
  </outline>
</glyph>
<glyph name="H" format="1">
  <advance width="736"/>
  <unicode hex="0048"/>
  <outline>
    <contour>
      <point x="173" y="656" type="curve" smooth="yes"/>
      <point x="213" y="656"/>
      <point x="262" y="659"/>
      <point x="302" y="662" type="curve"/>
      <point x="306" y="656"/>
      <point x="306" y="634"/>
      <point x="302" y="628" type="curve"/>
      <point x="290" y="628"/>
      <point x="240" y="622"/>
      <point x="236" y="610" type="curve" smooth="yes"/>
      <point x="230" y="592"/>
      <point x="230" y="562"/>
      <point x="230" y="526" type="curve" smooth="yes"/>
      <point x="230" y="368" type="line"/>
      <point x="230" y="366"/>
      <point x="231" y="365"/>
      <point x="231" y="365" type="curve"/>
      <point x="275" y="364"/>
      <point x="320" y="362"/>
      <point x="370" y="362" type="curve" smooth="yes"/>
      <point x="412" y="362"/>
      <point x="465" y="364"/>
      <point x="505" y="365" type="curve"/>
      <point x="505" y="365"/>
      <point x="507" y="367"/>
      <point x="507" y="369" type="curve" smooth="yes"/>
      <point x="507" y="526" type="line" smooth="yes"/>
      <point x="507" y="562"/>
      <point x="506" y="592"/>
      <point x="500" y="610" type="curve" smooth="yes"/>
      <point x="496" y="622"/>
      <point x="446" y="628"/>
      <point x="434" y="628" type="curve"/>
      <point x="430" y="634"/>
      <point x="430" y="656"/>
      <point x="434" y="662" type="curve"/>
      <point x="474" y="659"/>
      <point x="524" y="656"/>
      <point x="564" y="656" type="curve" smooth="yes"/>
      <point x="604" y="656"/>
      <point x="653" y="659"/>
      <point x="693" y="662" type="curve"/>
      <point x="697" y="656"/>
      <point x="697" y="634"/>
      <point x="693" y="628" type="curve"/>
      <point x="681" y="628"/>
      <point x="631" y="622"/>
      <point x="627" y="610" type="curve" smooth="yes"/>
      <point x="621" y="592"/>
      <point x="621" y="562"/>
      <point x="621" y="526" type="curve" smooth="yes"/>
      <point x="621" y="132" type="line" smooth="yes"/>
      <point x="621" y="96"/>
      <point x="621" y="66"/>
      <point x="627" y="48" type="curve" smooth="yes"/>
      <point x="631" y="36"/>
      <point x="681" y="30"/>
      <point x="693" y="30" type="curve"/>
      <point x="697" y="24"/>
      <point x="697" y="2"/>
      <point x="693" y="-4" type="curve"/>
      <point x="653" y="-1"/>
      <point x="603" y="2"/>
      <point x="563" y="2" type="curve" smooth="yes"/>
      <point x="523" y="2"/>
      <point x="474" y="-1"/>
      <point x="434" y="-4" type="curve"/>
      <point x="430" y="2"/>
      <point x="430" y="24"/>
      <point x="434" y="30" type="curve"/>
      <point x="446" y="30"/>
      <point x="496" y="36"/>
      <point x="500" y="48" type="curve" smooth="yes"/>
      <point x="506" y="66"/>
      <point x="507" y="96"/>
      <point x="507" y="132" type="curve" smooth="yes"/>
      <point x="507" y="314" type="line"/>
      <point x="507" y="316"/>
      <point x="505" y="318"/>
      <point x="505" y="318" type="curve"/>
      <point x="463" y="319"/>
      <point x="416" y="321"/>
      <point x="370" y="321" type="curve" smooth="yes"/>
      <point x="245" y="321"/>
      <point x="234" y="318"/>
      <point x="230" y="316" type="curve"/>
      <point x="229" y="315"/>
      <point x="230" y="313"/>
      <point x="230" y="313" type="curve"/>
      <point x="230" y="132" type="line" smooth="yes"/>
      <point x="230" y="96"/>
      <point x="230" y="66"/>
      <point x="236" y="48" type="curve" smooth="yes"/>
      <point x="240" y="36"/>
      <point x="290" y="30"/>
      <point x="302" y="30" type="curve"/>
      <point x="306" y="24"/>
      <point x="306" y="2"/>
      <point x="302" y="-4" type="curve"/>
      <point x="262" y="-1"/>
      <point x="212" y="2"/>
      <point x="172" y="2" type="curve" smooth="yes"/>
      <point x="132" y="2"/>
      <point x="83" y="-1"/>
      <point x="43" y="-4" type="curve"/>
      <point x="39" y="2"/>
      <point x="39" y="24"/>
      <point x="43" y="30" type="curve"/>
      <point x="55" y="30"/>
      <point x="105" y="36"/>
      <point x="109" y="48" type="curve" smooth="yes"/>
      <point x="115" y="66"/>
      <point x="116" y="96"/>
      <point x="116" y="132" type="curve" smooth="yes"/>
      <point x="116" y="526" type="line" smooth="yes"/>
      <point x="116" y="562"/>
      <point x="115" y="592"/>
      <point x="109" y="610" type="curve" smooth="yes"/>
      <point x="105" y="622"/>
      <point x="55" y="628"/>
      <point x="43" y="628" type="curve"/>
      <point x="39" y="634"/>
      <point x="39" y="656"/>
      <point x="43" y="662" type="curve"/>
      <point x="83" y="659"/>
      <point x="133" y="656"/>
    </contour>
  </outline>
</glyph>
<glyph name="J" format="1">
  <advance width="331"/>
  <unicode hex="004A"/>
  <outline>
    <contour>
      <point x="167" y="656" type="curve" smooth="yes"/>
      <point x="207" y="656"/>
      <point x="255" y="659"/>
      <point x="295" y="662" type="curve"/>
      <point x="299" y="656"/>
      <point x="299" y="635"/>
      <point x="295" y="629" type="curve"/>
      <point x="283" y="629"/>
      <point x="233" y="624"/>
      <point x="229" y="612" type="curve" smooth="yes"/>
      <point x="223" y="594"/>
      <point x="223" y="564"/>
      <point x="223" y="528" type="curve" smooth="yes"/>
      <point x="223" y="130" type="line" smooth="yes"/>
      <point x="223" y="-88"/>
      <point x="121" y="-222"/>
      <point x="-43" y="-222" type="curve"/>
      <point x="-63" y="-222"/>
      <point x="-93" y="-212"/>
      <point x="-103" y="-204" type="curve"/>
      <point x="-109" y="-196"/>
      <point x="-115" y="-186"/>
      <point x="-115" y="-172" type="curve"/>
      <point x="-115" y="-140"/>
      <point x="-91" y="-110"/>
      <point x="-59" y="-110" type="curve"/>
      <point x="-39" y="-110"/>
      <point x="-22" y="-126"/>
      <point x="-7" y="-141" type="curve" smooth="yes"/>
      <point x="7" y="-155"/>
      <point x="23" y="-168"/>
      <point x="37" y="-168" type="curve"/>
      <point x="85" y="-168"/>
      <point x="109" y="-78"/>
      <point x="109" y="126" type="curve" smooth="yes"/>
      <point x="109" y="528" type="line" smooth="yes"/>
      <point x="109" y="564"/>
      <point x="109" y="594"/>
      <point x="103" y="612" type="curve" smooth="yes"/>
      <point x="99" y="624"/>
      <point x="48" y="629"/>
      <point x="36" y="629" type="curve"/>
      <point x="32" y="635"/>
      <point x="32" y="656"/>
      <point x="36" y="662" type="curve"/>
      <point x="76" y="659"/>
      <point x="127" y="656"/>
    </contour>
  </outline>
</glyph>
<glyph name="K" format="1">
  <advance width="690"/>
  <unicode hex="004B"/>
  <outline>
    <contour>
      <point x="173" y="656" type="curve" smooth="yes"/>
      <point x="213" y="656"/>
      <point x="262" y="659"/>
      <point x="302" y="662" type="curve"/>
      <point x="306" y="656"/>
      <point x="306" y="634"/>
      <point x="302" y="628" type="curve"/>
      <point x="290" y="628"/>
      <point x="240" y="622"/>
      <point x="236" y="610" type="curve" smooth="yes"/>
      <point x="230" y="592"/>
      <point x="230" y="562"/>
      <point x="230" y="526" type="curve" smooth="yes"/>
      <point x="230" y="340" type="line"/>
      <point x="262" y="364"/>
      <point x="306" y="403"/>
      <point x="338" y="435" type="curve" smooth="yes"/>
      <point x="407" y="504"/>
      <point x="422" y="516"/>
      <point x="466" y="574" type="curve" smooth="yes"/>
      <point x="474" y="584"/>
      <point x="478" y="598"/>
      <point x="478" y="606" type="curve" smooth="yes"/>
      <point x="478" y="629"/>
      <point x="434" y="628"/>
      <point x="422" y="628" type="curve"/>
      <point x="418" y="635"/>
      <point x="418" y="653"/>
      <point x="421" y="662" type="curve"/>
      <point x="458" y="660"/>
      <point x="507" y="656"/>
      <point x="544" y="656" type="curve" smooth="yes"/>
      <point x="588" y="656"/>
      <point x="622" y="659"/>
      <point x="660" y="662" type="curve"/>
      <point x="662" y="656"/>
      <point x="663" y="632"/>
      <point x="658" y="629" type="curve"/>
      <point x="649" y="628"/>
      <point x="587" y="624"/>
      <point x="552" y="588" type="curve"/>
      <point x="509" y="541"/>
      <point x="424" y="460"/>
      <point x="343" y="378" type="curve" smooth="yes"/>
      <point x="337" y="372"/>
      <point x="339" y="367"/>
      <point x="343" y="362" type="curve" smooth="yes"/>
      <point x="427" y="257"/>
      <point x="521" y="137"/>
      <point x="559" y="101" type="curve"/>
      <point x="609" y="43"/>
      <point x="664" y="32"/>
      <point x="696" y="30" type="curve"/>
      <point x="701" y="24"/>
      <point x="697" y="-2"/>
      <point x="696" y="-4" type="curve"/>
      <point x="648" y="-5"/>
      <point x="589" y="-4"/>
      <point x="559" y="0" type="curve" smooth="yes"/>
      <point x="513" y="2"/>
      <point x="475" y="28"/>
      <point x="449" y="59" type="curve" smooth="yes"/>
      <point x="425" y="87"/>
      <point x="326" y="209"/>
      <point x="248" y="303" type="curve" smooth="yes"/>
      <point x="246" y="306"/>
      <point x="242" y="306"/>
      <point x="239" y="306" type="curve" smooth="yes"/>
      <point x="235" y="306"/>
      <point x="232" y="304"/>
      <point x="230" y="302" type="curve"/>
      <point x="230" y="132" type="line" smooth="yes"/>
      <point x="230" y="96"/>
      <point x="230" y="66"/>
      <point x="236" y="48" type="curve" smooth="yes"/>
      <point x="240" y="36"/>
      <point x="290" y="30"/>
      <point x="302" y="30" type="curve"/>
      <point x="306" y="24"/>
      <point x="306" y="2"/>
      <point x="302" y="-4" type="curve"/>
      <point x="262" y="-1"/>
      <point x="212" y="2"/>
      <point x="172" y="2" type="curve" smooth="yes"/>
      <point x="132" y="2"/>
      <point x="83" y="-1"/>
      <point x="43" y="-4" type="curve"/>
      <point x="39" y="2"/>
      <point x="39" y="24"/>
      <point x="43" y="30" type="curve"/>
      <point x="55" y="30"/>
      <point x="105" y="36"/>
      <point x="109" y="48" type="curve" smooth="yes"/>
      <point x="115" y="66"/>
      <point x="116" y="96"/>
      <point x="116" y="132" type="curve" smooth="yes"/>
      <point x="116" y="526" type="line" smooth="yes"/>
      <point x="116" y="562"/>
      <point x="115" y="592"/>
      <point x="109" y="610" type="curve" smooth="yes"/>
      <point x="105" y="622"/>
      <point x="55" y="628"/>
      <point x="43" y="628" type="curve"/>
      <point x="39" y="634"/>
      <point x="39" y="656"/>
      <point x="43" y="662" type="curve"/>
      <point x="83" y="659"/>
      <point x="133" y="656"/>
    </contour>
  </outline>
</glyph>
<glyph name="P" format="1">
  <advance width="567"/>
  <unicode hex="0050"/>
  <outline>
    <contour>
      <point x="542" y="484" type="curve" smooth="yes"/>
      <point x="542" y="358"/>
      <point x="450" y="280"/>
      <point x="334" y="280" type="curve" smooth="yes"/>
      <point x="304" y="280"/>
      <point x="285" y="290"/>
      <point x="277" y="296" type="curve" smooth="yes"/>
      <point x="274" y="299"/>
      <point x="265" y="313"/>
      <point x="265" y="320" type="curve" smooth="yes"/>
      <point x="265" y="324"/>
      <point x="267" y="328"/>
      <point x="269" y="328" type="curve"/>
      <point x="279" y="325"/>
      <point x="293" y="324"/>
      <point x="308" y="324" type="curve" smooth="yes"/>
      <point x="372" y="324"/>
      <point x="422" y="377"/>
      <point x="422" y="465" type="curve" smooth="yes"/>
      <point x="422" y="554"/>
      <point x="373" y="622"/>
      <point x="284" y="622" type="curve" smooth="yes"/>
      <point x="266" y="622"/>
      <point x="238" y="621"/>
      <point x="234" y="611" type="curve" smooth="yes"/>
      <point x="229" y="599"/>
      <point x="230" y="573"/>
      <point x="230" y="543" type="curve" smooth="yes"/>
      <point x="230" y="130" type="line" smooth="yes"/>
      <point x="230" y="94"/>
      <point x="230" y="64"/>
      <point x="236" y="46" type="curve" smooth="yes"/>
      <point x="240" y="34"/>
      <point x="290" y="29"/>
      <point x="302" y="29" type="curve"/>
      <point x="306" y="23"/>
      <point x="306" y="2"/>
      <point x="302" y="-4" type="curve"/>
      <point x="262" y="-1"/>
      <point x="212" y="2"/>
      <point x="172" y="2" type="curve" smooth="yes"/>
      <point x="132" y="2"/>
      <point x="83" y="-1"/>
      <point x="43" y="-4" type="curve"/>
      <point x="39" y="2"/>
      <point x="39" y="23"/>
      <point x="43" y="29" type="curve"/>
      <point x="55" y="29"/>
      <point x="105" y="34"/>
      <point x="109" y="46" type="curve" smooth="yes"/>
      <point x="115" y="64"/>
      <point x="116" y="94"/>
      <point x="116" y="130" type="curve" smooth="yes"/>
      <point x="116" y="528" type="line" smooth="yes"/>
      <point x="116" y="564"/>
      <point x="115" y="594"/>
      <point x="109" y="612" type="curve" smooth="yes"/>
      <point x="105" y="624"/>
      <point x="55" y="628"/>
      <point x="43" y="628" type="curve"/>
      <point x="39" y="634"/>
      <point x="39" y="655"/>
      <point x="43" y="661" type="curve"/>
      <point x="86" y="659"/>
      <point x="135" y="657"/>
      <point x="175" y="657" type="curve" smooth="yes"/>
      <point x="215" y="657"/>
      <point x="264" y="660"/>
      <point x="323" y="660" type="curve" smooth="yes"/>
      <point x="431" y="660"/>
      <point x="542" y="598"/>
    </contour>
  </outline>
</glyph>
<glyph name="Q" format="1">
  <advance width="753"/>
  <unicode hex="0051"/>
  <outline>
    <contour>
      <point x="376" y="667" type="curve" smooth="yes"/>
      <point x="552" y="667"/>
      <point x="709" y="521"/>
      <point x="709" y="328" type="curve" smooth="yes"/>
      <point x="709" y="176"/>
      <point x="605" y="49"/>
      <point x="473" y="6" type="curve"/>
      <point x="567" y="-40"/>
      <point x="593" y="-78"/>
      <point x="695" y="-78" type="curve" smooth="yes"/>
      <point x="735" y="-78"/>
      <point x="758" y="-71"/>
      <point x="765" y="-70" type="curve"/>
      <point x="771" y="-70"/>
      <point x="782" y="-74"/>
      <point x="786" y="-80" type="curve" smooth="yes"/>
      <point x="787" y="-82"/>
      <point x="787" y="-83"/>
      <point x="787" y="-84" type="curve"/>
      <point x="732" y="-113"/>
      <point x="663" y="-140"/>
      <point x="602" y="-140" type="curve" smooth="yes"/>
      <point x="494" y="-140"/>
      <point x="416" y="-33"/>
      <point x="297" y="0" type="curve" smooth="yes"/>
      <point x="155" y="36"/>
      <point x="44" y="166"/>
      <point x="44" y="328" type="curve" smooth="yes"/>
      <point x="44" y="515"/>
      <point x="200" y="667"/>
    </contour>
    <contour>
      <point x="357" y="627" type="curve" smooth="yes"/>
      <point x="223" y="627"/>
      <point x="174" y="484"/>
      <point x="174" y="356" type="curve" smooth="yes"/>
      <point x="174" y="202"/>
      <point x="243" y="30"/>
      <point x="395" y="30" type="curve" smooth="yes"/>
      <point x="529" y="30"/>
      <point x="579" y="172"/>
      <point x="579" y="300" type="curve" smooth="yes"/>
      <point x="579" y="454"/>
      <point x="509" y="627"/>
    </contour>
  </outline>
</glyph>
<glyph name="R" format="1">
  <advance width="659"/>
  <unicode hex="0052"/>
  <outline>
    <contour>
      <point x="323" y="660" type="curve" smooth="yes"/>
      <point x="431" y="660"/>
      <point x="532" y="599"/>
      <point x="532" y="482" type="curve" smooth="yes"/>
      <point x="532" y="405"/>
      <point x="453" y="338"/>
      <point x="395" y="320" type="curve"/>
      <point x="458" y="227"/>
      <point x="516" y="152"/>
      <point x="549" y="108" type="curve"/>
      <point x="601" y="42"/>
      <point x="657" y="31"/>
      <point x="689" y="29" type="curve"/>
      <point x="694" y="23"/>
      <point x="689" y="-2"/>
      <point x="688" y="-4" type="curve"/>
      <point x="640" y="-5"/>
      <point x="587" y="-4"/>
      <point x="557" y="0" type="curve" smooth="yes"/>
      <point x="511" y="2"/>
      <point x="472" y="28"/>
      <point x="448" y="60" type="curve" smooth="yes"/>
      <point x="440" y="70"/>
      <point x="319" y="238"/>
      <point x="287" y="287" type="curve" smooth="yes"/>
      <point x="284" y="291"/>
      <point x="274" y="300"/>
      <point x="263" y="300" type="curve" smooth="yes"/>
      <point x="260" y="300"/>
      <point x="234" y="300"/>
      <point x="230" y="300" type="curve"/>
      <point x="230" y="130" type="line"/>
      <point x="230" y="94"/>
      <point x="230" y="64"/>
      <point x="236" y="46" type="curve" smooth="yes"/>
      <point x="240" y="34"/>
      <point x="290" y="29"/>
      <point x="302" y="29" type="curve"/>
      <point x="306" y="23"/>
      <point x="306" y="2"/>
      <point x="302" y="-4" type="curve"/>
      <point x="262" y="-1"/>
      <point x="212" y="2"/>
      <point x="172" y="2" type="curve" smooth="yes"/>
      <point x="132" y="2"/>
      <point x="83" y="-1"/>
      <point x="43" y="-4" type="curve"/>
      <point x="39" y="2"/>
      <point x="39" y="23"/>
      <point x="43" y="29" type="curve"/>
      <point x="55" y="29"/>
      <point x="105" y="34"/>
      <point x="109" y="46" type="curve" smooth="yes"/>
      <point x="115" y="64"/>
      <point x="116" y="94"/>
      <point x="116" y="130" type="curve" smooth="yes"/>
      <point x="116" y="528" type="line" smooth="yes"/>
      <point x="116" y="564"/>
      <point x="115" y="594"/>
      <point x="109" y="612" type="curve" smooth="yes"/>
      <point x="105" y="624"/>
      <point x="55" y="628"/>
      <point x="43" y="628" type="curve"/>
      <point x="39" y="634"/>
      <point x="39" y="655"/>
      <point x="43" y="661" type="curve"/>
      <point x="86" y="659"/>
      <point x="135" y="657"/>
      <point x="175" y="657" type="curve" smooth="yes"/>
      <point x="215" y="657"/>
      <point x="264" y="660"/>
    </contour>
    <contour>
      <point x="412" y="465" type="curve" smooth="yes"/>
      <point x="412" y="549"/>
      <point x="380" y="622"/>
      <point x="284" y="622" type="curve" smooth="yes"/>
      <point x="266" y="622"/>
      <point x="238" y="621"/>
      <point x="234" y="611" type="curve" smooth="yes"/>
      <point x="229" y="599"/>
      <point x="230" y="573"/>
      <point x="230" y="543" type="curve" smooth="yes"/>
      <point x="230" y="335" type="line"/>
      <point x="230" y="335"/>
      <point x="269" y="335"/>
      <point x="279" y="335" type="curve" smooth="yes"/>
      <point x="350" y="335"/>
      <point x="412" y="388"/>
    </contour>
  </outline>
</glyph>
<glyph name="S" format="1">
  <advance width="512"/>
  <unicode hex="0053"/>
  <outline>
    <contour>
      <point x="264" y="668" type="curve" smooth="yes"/>
      <point x="324" y="668"/>
      <point x="360" y="654"/>
      <point x="424" y="640" type="curve"/>
      <point x="430" y="588"/>
      <point x="433" y="530"/>
      <point x="435" y="486" type="curve"/>
      <point x="434" y="481"/>
      <point x="428" y="479"/>
      <point x="424" y="479" type="curve" smooth="yes"/>
      <point x="420" y="479"/>
      <point x="398" y="479"/>
      <point x="396" y="488" type="curve" smooth="yes"/>
      <point x="389" y="541"/>
      <point x="341" y="628"/>
      <point x="263" y="628" type="curve" smooth="yes"/>
      <point x="199" y="628"/>
      <point x="166" y="589"/>
      <point x="166" y="531" type="curve" smooth="yes"/>
      <point x="166" y="460"/>
      <point x="244" y="416"/>
      <point x="308" y="374" type="curve" smooth="yes"/>
      <point x="374" y="331"/>
      <point x="469" y="283"/>
      <point x="469" y="174" type="curve" smooth="yes"/>
      <point x="469" y="64"/>
      <point x="364" y="-10"/>
      <point x="256" y="-10" type="curve" smooth="yes"/>
      <point x="192" y="-10"/>
      <point x="124" y="6"/>
      <point x="70" y="18" type="curve"/>
      <point x="59" y="70"/>
      <point x="49" y="160"/>
      <point x="48" y="180" type="curve"/>
      <point x="51" y="185"/>
      <point x="70" y="193"/>
      <point x="76" y="193" type="curve" smooth="yes"/>
      <point x="82" y="193"/>
      <point x="87" y="190"/>
      <point x="88" y="184" type="curve" smooth="yes"/>
      <point x="96" y="138"/>
      <point x="141" y="30"/>
      <point x="252" y="30" type="curve" smooth="yes"/>
      <point x="308" y="30"/>
      <point x="360" y="64"/>
      <point x="360" y="138" type="curve" smooth="yes"/>
      <point x="360" y="215"/>
      <point x="280" y="254"/>
      <point x="220" y="291" type="curve" smooth="yes"/>
      <point x="145" y="338"/>
      <point x="60" y="388"/>
      <point x="60" y="490" type="curve" smooth="yes"/>
      <point x="60" y="594"/>
      <point x="162" y="668"/>
    </contour>
  </outline>
</glyph>
<glyph name="T" format="1">
  <advance width="629"/>
  <unicode hex="0054"/>
  <outline>
    <contour>
      <point x="495" y="658" type="curve" smooth="yes"/>
      <point x="539" y="658"/>
      <point x="562" y="673"/>
      <point x="577" y="676" type="curve" smooth="yes"/>
      <point x="586" y="678"/>
      <point x="588" y="678"/>
      <point x="593" y="676" type="curve"/>
      <point x="597" y="646"/>
      <point x="613" y="524"/>
      <point x="619" y="498" type="curve"/>
      <point x="616" y="495"/>
      <point x="604" y="490"/>
      <point x="595" y="490" type="curve" smooth="yes"/>
      <point x="590" y="490"/>
      <point x="585" y="492"/>
      <point x="583" y="496" type="curve"/>
      <point x="571" y="564"/>
      <point x="532" y="618"/>
      <point x="482" y="618" type="curve" smooth="yes"/>
      <point x="373" y="618" type="line"/>
      <point x="373" y="130" type="line" smooth="yes"/>
      <point x="373" y="94"/>
      <point x="373" y="64"/>
      <point x="379" y="46" type="curve" smooth="yes"/>
      <point x="383" y="34"/>
      <point x="433" y="29"/>
      <point x="445" y="29" type="curve"/>
      <point x="449" y="23"/>
      <point x="449" y="2"/>
      <point x="445" y="-4" type="curve"/>
      <point x="405" y="-1"/>
      <point x="355" y="2"/>
      <point x="315" y="2" type="curve" smooth="yes"/>
      <point x="275" y="2"/>
      <point x="225" y="-1"/>
      <point x="185" y="-4" type="curve"/>
      <point x="181" y="2"/>
      <point x="181" y="23"/>
      <point x="185" y="29" type="curve"/>
      <point x="197" y="29"/>
      <point x="248" y="34"/>
      <point x="252" y="46" type="curve" smooth="yes"/>
      <point x="258" y="64"/>
      <point x="259" y="94"/>
      <point x="259" y="130" type="curve" smooth="yes"/>
      <point x="259" y="618" type="line"/>
      <point x="147" y="618" type="line" smooth="yes"/>
      <point x="97" y="618"/>
      <point x="58" y="564"/>
      <point x="46" y="496" type="curve"/>
      <point x="44" y="492"/>
      <point x="40" y="490"/>
      <point x="35" y="490" type="curve" smooth="yes"/>
      <point x="26" y="490"/>
      <point x="13" y="495"/>
      <point x="10" y="498" type="curve"/>
      <point x="16" y="524"/>
      <point x="33" y="646"/>
      <point x="37" y="676" type="curve"/>
      <point x="42" y="678"/>
      <point x="47" y="678"/>
      <point x="54" y="676" type="curve" smooth="yes"/>
      <point x="69" y="673"/>
      <point x="90" y="658"/>
      <point x="134" y="658" type="curve" smooth="yes"/>
      <point x="222" y="658"/>
      <point x="404" y="658"/>
    </contour>
  </outline>
</glyph>
<glyph name="Z" format="1">
  <advance width="636"/>
  <unicode hex="005A"/>
  <outline>
    <contour>
      <point x="224" y="617" type="line" smooth="yes"/>
      <point x="137" y="617"/>
      <point x="107" y="555"/>
      <point x="84" y="483" type="curve"/>
      <point x="82" y="480"/>
      <point x="79" y="478"/>
      <point x="71" y="478" type="curve" smooth="yes"/>
      <point x="61" y="478"/>
      <point x="47" y="481"/>
      <point x="44" y="484" type="curve"/>
      <point x="58" y="536"/>
      <point x="70" y="600"/>
      <point x="78" y="666" type="curve"/>
      <point x="96" y="662"/>
      <point x="165" y="658"/>
      <point x="185" y="658" type="curve"/>
      <point x="352" y="658" type="line" smooth="yes"/>
      <point x="436" y="658"/>
      <point x="489" y="662"/>
      <point x="573" y="668" type="curve"/>
      <point x="577" y="667"/>
      <point x="587" y="650"/>
      <point x="587" y="641" type="curve"/>
      <point x="585" y="633"/>
      <point x="181" y="42"/>
      <point x="181" y="42" type="curve"/>
      <point x="419" y="42" type="line" smooth="yes"/>
      <point x="459" y="42"/>
      <point x="492" y="56"/>
      <point x="514" y="78" type="curve" smooth="yes"/>
      <point x="539" y="103"/>
      <point x="552" y="134"/>
      <point x="566" y="171" type="curve" smooth="yes"/>
      <point x="567" y="174"/>
      <point x="574" y="176"/>
      <point x="580" y="176" type="curve" smooth="yes"/>
      <point x="590" y="176"/>
      <point x="603" y="172"/>
      <point x="607" y="168" type="curve"/>
      <point x="587" y="102"/>
      <point x="566" y="47"/>
      <point x="556" y="0" type="curve"/>
      <point x="535" y="0"/>
      <point x="146" y="0"/>
      <point x="49" y="0" type="curve"/>
      <point x="37" y="0"/>
      <point x="24" y="13"/>
      <point x="27" y="18" type="curve" smooth="yes"/>
      <point x="437" y="617" type="line"/>
    </contour>
  </outline>
</glyph>
<glyph name="bracketright" format="1">
  <advance width="283"/>
  <unicode hex="005D"/>
  <outline>
    <contour>
      <point x="187" y="744" type="curve" smooth="yes"/>
      <point x="203" y="744"/>
      <point x="206" y="727"/>
      <point x="206" y="721" type="curve"/>
      <point x="206" y="-107" type="line"/>
      <point x="206" y="-113"/>
      <point x="203" y="-130"/>
      <point x="187" y="-130" type="curve" smooth="yes"/>
      <point x="95" y="-130"/>
      <point x="26" y="-137"/>
      <point x="8" y="-141" type="curve"/>
      <point x="7" y="-141"/>
      <point x="4" y="-138"/>
      <point x="4" y="-132" type="curve" smooth="yes"/>
      <point x="4" y="-122"/>
      <point x="10" y="-113"/>
      <point x="14" y="-111" type="curve" smooth="yes"/>
      <point x="48" y="-97"/>
      <point x="114" y="-89"/>
      <point x="128" y="-86" type="curve"/>
      <point x="128" y="700" type="line"/>
      <point x="114" y="703"/>
      <point x="48" y="711"/>
      <point x="14" y="725" type="curve" smooth="yes"/>
      <point x="10" y="727"/>
      <point x="4" y="736"/>
      <point x="4" y="746" type="curve" smooth="yes"/>
      <point x="4" y="752"/>
      <point x="7" y="755"/>
      <point x="8" y="755" type="curve"/>
      <point x="26" y="751"/>
      <point x="95" y="744"/>
    </contour>
  </outline>
</glyph>
<glyph name="underscore" format="1">
  <advance width="500"/>
  <unicode hex="005F"/>
  <outline>
    <contour>
      <point x="12" y="-33" type="curve"/>
      <point x="12" y="-33"/>
      <point x="17" y="13"/>
      <point x="27" y="13" type="curve" smooth="yes"/>
      <point x="476" y="13" type="line" smooth="yes"/>
      <point x="478" y="13"/>
      <point x="480" y="12"/>
      <point x="480" y="8" type="curve" smooth="yes"/>
      <point x="480" y="-1"/>
      <point x="476" y="-15"/>
      <point x="470" y="-37" type="curve" smooth="yes"/>
      <point x="468" y="-43"/>
      <point x="464" y="-43"/>
      <point x="464" y="-43" type="curve"/>
      <point x="19" y="-43" type="line"/>
      <point x="19" y="-43"/>
      <point x="12" y="-43"/>
    </contour>
  </outline>
</glyph>
<glyph name="grave" format="1">
  <advance width="295"/>
  <unicode hex="0060"/>
  <outline>
    <contour>
      <point x="76" y="660" type="curve" smooth="yes"/>
      <point x="76" y="666"/>
      <point x="84" y="686"/>
      <point x="119" y="686" type="curve" smooth="yes"/>
      <point x="133" y="686"/>
      <point x="148" y="683"/>
      <point x="153" y="678" type="curve" smooth="yes"/>
      <point x="190" y="635"/>
      <point x="246" y="545"/>
      <point x="246" y="540" type="curve" smooth="yes"/>
      <point x="246" y="534"/>
      <point x="239" y="524"/>
      <point x="232" y="524" type="curve" smooth="yes"/>
      <point x="222" y="524"/>
      <point x="76" y="621"/>
    </contour>
  </outline>
</glyph>
<glyph name="d" format="1">
  <advance width="533"/>
  <unicode hex="0064"/>
  <outline>
    <contour>
      <point x="286" y="442" type="curve" smooth="yes"/>
      <point x="307" y="442"/>
      <point x="332" y="438"/>
      <point x="341" y="436" type="curve"/>
      <point x="345" y="436"/>
      <point x="346" y="448"/>
      <point x="346" y="458" type="curve"/>
      <point x="346" y="470"/>
      <point x="346" y="542"/>
      <point x="346" y="558" type="curve"/>
      <point x="346" y="574"/>
      <point x="346" y="594"/>
      <point x="340" y="608" type="curve" smooth="yes"/>
      <point x="334" y="621"/>
      <point x="300" y="626"/>
      <point x="280" y="626" type="curve"/>
      <point x="278" y="626"/>
      <point x="276" y="653"/>
      <point x="280" y="655" type="curve"/>
      <point x="361" y="663"/>
      <point x="426" y="684"/>
      <point x="448" y="694" type="curve"/>
      <point x="454" y="694"/>
      <point x="460" y="684"/>
      <point x="460" y="678" type="curve"/>
      <point x="460" y="678"/>
      <point x="450" y="640"/>
      <point x="450" y="584" type="curve" smooth="yes"/>
      <point x="450" y="136" type="line" smooth="yes"/>
      <point x="450" y="109"/>
      <point x="450" y="80"/>
      <point x="458" y="68" type="curve" smooth="yes"/>
      <point x="466" y="54"/>
      <point x="504" y="54"/>
      <point x="510" y="54" type="curve"/>
      <point x="512" y="52"/>
      <point x="512" y="46"/>
      <point x="512" y="41" type="curve" smooth="yes"/>
      <point x="512" y="37"/>
      <point x="510" y="27"/>
      <point x="506" y="24" type="curve"/>
      <point x="450" y="20"/>
      <point x="361" y="-8"/>
      <point x="354" y="-8" type="curve" smooth="yes"/>
      <point x="349" y="-8"/>
      <point x="346" y="3"/>
      <point x="346" y="14" type="curve" smooth="yes"/>
      <point x="346" y="40" type="line" smooth="yes"/>
      <point x="346" y="44"/>
      <point x="345" y="47"/>
      <point x="343" y="45" type="curve" smooth="yes"/>
      <point x="327" y="31"/>
      <point x="265" y="-8"/>
      <point x="215" y="-8" type="curve" smooth="yes"/>
      <point x="121" y="-8"/>
      <point x="36" y="83"/>
      <point x="36" y="203" type="curve" smooth="yes"/>
      <point x="36" y="353"/>
      <point x="196" y="442"/>
    </contour>
    <contour>
      <point x="254" y="396" type="curve" smooth="yes"/>
      <point x="184" y="396"/>
      <point x="149" y="318"/>
      <point x="149" y="236" type="curve" smooth="yes"/>
      <point x="149" y="134"/>
      <point x="194" y="55"/>
      <point x="270" y="55" type="curve" smooth="yes"/>
      <point x="306" y="55"/>
      <point x="346" y="80"/>
      <point x="346" y="94" type="curve" smooth="yes"/>
      <point x="346" y="348" type="line" smooth="yes"/>
      <point x="346" y="368"/>
      <point x="303" y="396"/>
    </contour>
  </outline>
</glyph>
<glyph name="e" format="1">
  <advance width="445"/>
  <unicode hex="0065"/>
  <outline>
    <contour>
      <point x="140" y="283" type="curve"/>
      <point x="149" y="283"/>
      <point x="269" y="285"/>
      <point x="286" y="287" type="curve" smooth="yes"/>
      <point x="298" y="287"/>
      <point x="304" y="295"/>
      <point x="304" y="307" type="curve"/>
      <point x="304" y="342"/>
      <point x="285" y="404"/>
      <point x="232" y="404" type="curve"/>
      <point x="160" y="404"/>
      <point x="139" y="300"/>
    </contour>
    <contour>
      <point x="136" y="245" type="curve"/>
      <point x="134" y="111"/>
      <point x="222" y="66"/>
      <point x="288" y="66" type="curve" smooth="yes"/>
      <point x="344" y="66"/>
      <point x="383" y="98"/>
      <point x="400" y="117" type="curve"/>
      <point x="404" y="116"/>
      <point x="410" y="108"/>
      <point x="410" y="101" type="curve"/>
      <point x="410" y="95"/>
      <point x="407" y="86"/>
      <point x="405" y="82" type="curve" smooth="yes"/>
      <point x="387" y="54"/>
      <point x="328" y="-8"/>
      <point x="242" y="-8" type="curve" smooth="yes"/>
      <point x="127" y="-8"/>
      <point x="36" y="76"/>
      <point x="36" y="200" type="curve" smooth="yes"/>
      <point x="36" y="330"/>
      <point x="144" y="442"/>
      <point x="246" y="442" type="curve" smooth="yes"/>
      <point x="372" y="442"/>
      <point x="408" y="348"/>
      <point x="408" y="299" type="curve" smooth="yes"/>
      <point x="408" y="273"/>
      <point x="400" y="255"/>
      <point x="383" y="254" type="curve" smooth="yes"/>
      <point x="333" y="250"/>
      <point x="179" y="246"/>
    </contour>
  </outline>
</glyph>
<glyph name="f" format="1">
  <advance width="332"/>
  <unicode hex="0066"/>
  <outline>
    <contour>
      <point x="288" y="698" type="curve" smooth="yes"/>
      <point x="319" y="698"/>
      <point x="330" y="693"/>
      <point x="344" y="686" type="curve"/>
      <point x="354" y="680"/>
      <point x="368" y="667"/>
      <point x="368" y="650" type="curve"/>
      <point x="368" y="616"/>
      <point x="346" y="595"/>
      <point x="323" y="595" type="curve"/>
      <point x="303" y="595"/>
      <point x="290" y="610"/>
      <point x="275" y="620" type="curve" smooth="yes"/>
      <point x="264" y="628"/>
      <point x="255" y="632"/>
      <point x="241" y="632" type="curve" smooth="yes"/>
      <point x="217" y="632"/>
      <point x="198" y="598"/>
      <point x="198" y="544" type="curve"/>
      <point x="198" y="521"/>
      <point x="199" y="446"/>
      <point x="200" y="430" type="curve"/>
      <point x="204" y="430"/>
      <point x="302" y="430"/>
      <point x="318" y="430" type="curve"/>
      <point x="322" y="430"/>
      <point x="323" y="424"/>
      <point x="323" y="418" type="curve" smooth="yes"/>
      <point x="323" y="409"/>
      <point x="315" y="394"/>
      <point x="305" y="386" type="curve"/>
      <point x="290" y="386"/>
      <point x="218" y="386"/>
      <point x="202" y="386" type="curve"/>
      <point x="202" y="130" type="line" smooth="yes"/>
      <point x="202" y="94"/>
      <point x="202" y="64"/>
      <point x="208" y="46" type="curve" smooth="yes"/>
      <point x="212" y="34"/>
      <point x="262" y="29"/>
      <point x="274" y="29" type="curve"/>
      <point x="278" y="23"/>
      <point x="278" y="2"/>
      <point x="274" y="-4" type="curve"/>
      <point x="234" y="-1"/>
      <point x="190" y="2"/>
      <point x="150" y="2" type="curve" smooth="yes"/>
      <point x="110" y="2"/>
      <point x="68" y="-1"/>
      <point x="28" y="-4" type="curve"/>
      <point x="24" y="2"/>
      <point x="24" y="23"/>
      <point x="28" y="29" type="curve"/>
      <point x="40" y="29"/>
      <point x="88" y="34"/>
      <point x="92" y="46" type="curve" smooth="yes"/>
      <point x="98" y="64"/>
      <point x="98" y="94"/>
      <point x="98" y="130" type="curve" smooth="yes"/>
      <point x="98" y="130"/>
      <point x="98" y="342"/>
      <point x="98" y="386" type="curve"/>
      <point x="84" y="386"/>
      <point x="47" y="386"/>
      <point x="34" y="386" type="curve"/>
      <point x="30" y="387"/>
      <point x="29" y="393"/>
      <point x="29" y="397" type="curve"/>
      <point x="34" y="406"/>
      <point x="52" y="424"/>
      <point x="58" y="430" type="curve"/>
      <point x="73" y="430"/>
      <point x="88" y="430"/>
      <point x="98" y="430" type="curve"/>
      <point x="98" y="440" type="line" smooth="yes"/>
      <point x="98" y="581"/>
      <point x="220" y="698"/>
    </contour>
  </outline>
</glyph>
<glyph name="h" format="1">
  <advance width="553"/>
  <unicode hex="0068"/>
  <outline>
    <contour>
      <point x="338" y="442" type="curve" smooth="yes"/>
      <point x="449" y="442"/>
      <point x="471" y="370"/>
      <point x="471" y="218" type="curve" smooth="yes"/>
      <point x="471" y="130" type="line" smooth="yes"/>
      <point x="471" y="94"/>
      <point x="471" y="64"/>
      <point x="477" y="46" type="curve" smooth="yes"/>
      <point x="481" y="34"/>
      <point x="529" y="29"/>
      <point x="541" y="29" type="curve"/>
      <point x="545" y="23"/>
      <point x="545" y="2"/>
      <point x="541" y="-4" type="curve"/>
      <point x="501" y="-1"/>
      <point x="459" y="2"/>
      <point x="419" y="2" type="curve" smooth="yes"/>
      <point x="379" y="2"/>
      <point x="343" y="-1"/>
      <point x="303" y="-4" type="curve"/>
      <point x="299" y="2"/>
      <point x="299" y="23"/>
      <point x="303" y="29" type="curve"/>
      <point x="315" y="29"/>
      <point x="357" y="34"/>
      <point x="361" y="46" type="curve" smooth="yes"/>
      <point x="367" y="64"/>
      <point x="367" y="94"/>
      <point x="367" y="130" type="curve" smooth="yes"/>
      <point x="367" y="220" type="line" smooth="yes"/>
      <point x="367" y="318"/>
      <point x="351" y="372"/>
      <point x="285" y="372" type="curve" smooth="yes"/>
      <point x="247" y="372"/>
      <point x="194" y="331"/>
      <point x="194" y="317" type="curve" smooth="yes"/>
      <point x="194" y="130" type="line" smooth="yes"/>
      <point x="194" y="96"/>
      <point x="194" y="64"/>
      <point x="200" y="46" type="curve" smooth="yes"/>
      <point x="204" y="34"/>
      <point x="248" y="29"/>
      <point x="260" y="29" type="curve"/>
      <point x="264" y="23"/>
      <point x="264" y="2"/>
      <point x="260" y="-4" type="curve"/>
      <point x="220" y="-1"/>
      <point x="181" y="2"/>
      <point x="141" y="2" type="curve" smooth="yes"/>
      <point x="100" y="2"/>
      <point x="60" y="-1"/>
      <point x="20" y="-4" type="curve"/>
      <point x="16" y="2"/>
      <point x="16" y="23"/>
      <point x="20" y="29" type="curve"/>
      <point x="32" y="29"/>
      <point x="79" y="34"/>
      <point x="83" y="46" type="curve" smooth="yes"/>
      <point x="89" y="64"/>
      <point x="90" y="94"/>
      <point x="90" y="130" type="curve" smooth="yes"/>
      <point x="90" y="558" type="line" smooth="yes"/>
      <point x="90" y="573"/>
      <point x="90" y="594"/>
      <point x="84" y="608" type="curve" smooth="yes"/>
      <point x="78" y="621"/>
      <point x="43" y="626"/>
      <point x="23" y="626" type="curve"/>
      <point x="21" y="626"/>
      <point x="20" y="653"/>
      <point x="24" y="655" type="curve"/>
      <point x="105" y="663"/>
      <point x="169" y="684"/>
      <point x="191" y="694" type="curve"/>
      <point x="197" y="694"/>
      <point x="204" y="684"/>
      <point x="204" y="678" type="curve"/>
      <point x="204" y="678"/>
      <point x="194" y="632"/>
      <point x="194" y="584" type="curve"/>
      <point x="194" y="584"/>
      <point x="194" y="372"/>
      <point x="194" y="368" type="curve" smooth="yes"/>
      <point x="194" y="366"/>
      <point x="193" y="364"/>
      <point x="195" y="364" type="curve"/>
      <point x="197" y="364"/>
      <point x="198" y="366"/>
      <point x="200" y="368" type="curve" smooth="yes"/>
      <point x="224" y="395"/>
      <point x="291" y="442"/>
    </contour>
  </outline>
</glyph>
<glyph name="j" format="1">
  <advance width="263"/>
  <unicode hex="006A"/>
  <outline>
    <contour>
      <point x="-14" y="-202" type="curve"/>
      <point x="16" y="-180"/>
      <point x="90" y="-132"/>
      <point x="90" y="54" type="curve" smooth="yes"/>
      <point x="90" y="282" type="line" smooth="yes"/>
      <point x="90" y="294"/>
      <point x="89" y="335"/>
      <point x="83" y="349" type="curve" smooth="yes"/>
      <point x="75" y="365"/>
      <point x="26" y="368"/>
      <point x="19" y="368" type="curve"/>
      <point x="17" y="370"/>
      <point x="16" y="394"/>
      <point x="20" y="396" type="curve"/>
      <point x="84" y="402"/>
      <point x="150" y="424"/>
      <point x="189" y="444" type="curve"/>
      <point x="195" y="443"/>
      <point x="203" y="431"/>
      <point x="203" y="427" type="curve"/>
      <point x="201" y="419"/>
      <point x="194" y="379"/>
      <point x="194" y="365" type="curve"/>
      <point x="194" y="354"/>
      <point x="194" y="319"/>
      <point x="194" y="316" type="curve"/>
      <point x="194" y="94" type="line"/>
      <point x="194" y="-44"/>
      <point x="139" y="-128"/>
      <point x="85" y="-172" type="curve" smooth="yes"/>
      <point x="53" y="-198"/>
      <point x="7" y="-217"/>
      <point x="-8" y="-217" type="curve"/>
      <point x="-12" y="-214"/>
      <point x="-14" y="-206"/>
    </contour>
    <contour>
      <point x="69" y="604" type="curve" smooth="yes"/>
      <point x="69" y="638"/>
      <point x="97" y="666"/>
      <point x="131" y="666" type="curve" smooth="yes"/>
      <point x="165" y="666"/>
      <point x="193" y="638"/>
      <point x="193" y="604" type="curve" smooth="yes"/>
      <point x="193" y="570"/>
      <point x="165" y="542"/>
      <point x="131" y="542" type="curve" smooth="yes"/>
      <point x="97" y="542"/>
      <point x="69" y="570"/>
    </contour>
  </outline>
</glyph>
<glyph name="m" format="1">
  <advance width="838"/>
  <unicode hex="006D"/>
  <outline>
    <contour>
      <point x="349" y="442" type="curve" smooth="yes"/>
      <point x="411" y="442"/>
      <point x="447" y="420"/>
      <point x="467" y="358" type="curve"/>
      <point x="511" y="400"/>
      <point x="576" y="442"/>
      <point x="623" y="442" type="curve" smooth="yes"/>
      <point x="734" y="442"/>
      <point x="756" y="370"/>
      <point x="756" y="218" type="curve" smooth="yes"/>
      <point x="756" y="130" type="line" smooth="yes"/>
      <point x="756" y="94"/>
      <point x="756" y="64"/>
      <point x="762" y="46" type="curve" smooth="yes"/>
      <point x="766" y="34"/>
      <point x="813" y="29"/>
      <point x="825" y="29" type="curve"/>
      <point x="829" y="23"/>
      <point x="829" y="2"/>
      <point x="825" y="-4" type="curve"/>
      <point x="785" y="-1"/>
      <point x="743" y="2"/>
      <point x="703" y="2" type="curve" smooth="yes"/>
      <point x="663" y="2"/>
      <point x="628" y="-1"/>
      <point x="588" y="-4" type="curve"/>
      <point x="584" y="2"/>
      <point x="584" y="23"/>
      <point x="588" y="29" type="curve"/>
      <point x="600" y="29"/>
      <point x="641" y="34"/>
      <point x="645" y="46" type="curve" smooth="yes"/>
      <point x="651" y="64"/>
      <point x="652" y="94"/>
      <point x="652" y="130" type="curve" smooth="yes"/>
      <point x="652" y="224" type="line" smooth="yes"/>
      <point x="652" y="310"/>
      <point x="638" y="372"/>
      <point x="571" y="372" type="curve" smooth="yes"/>
      <point x="527" y="372"/>
      <point x="475" y="330"/>
      <point x="475" y="316" type="curve" smooth="yes"/>
      <point x="475" y="314"/>
      <point x="476" y="309"/>
      <point x="476" y="307" type="curve" smooth="yes"/>
      <point x="478" y="283"/>
      <point x="480" y="250"/>
      <point x="480" y="224" type="curve" smooth="yes"/>
      <point x="480" y="130" type="line" smooth="yes"/>
      <point x="480" y="94"/>
      <point x="480" y="64"/>
      <point x="486" y="46" type="curve" smooth="yes"/>
      <point x="490" y="34"/>
      <point x="537" y="29"/>
      <point x="549" y="29" type="curve"/>
      <point x="553" y="23"/>
      <point x="553" y="2"/>
      <point x="549" y="-4" type="curve"/>
      <point x="509" y="-1"/>
      <point x="468" y="2"/>
      <point x="428" y="2" type="curve" smooth="yes"/>
      <point x="388" y="2"/>
      <point x="351" y="-1"/>
      <point x="311" y="-4" type="curve"/>
      <point x="307" y="2"/>
      <point x="307" y="23"/>
      <point x="311" y="29" type="curve"/>
      <point x="323" y="29"/>
      <point x="366" y="34"/>
      <point x="370" y="46" type="curve" smooth="yes"/>
      <point x="376" y="64"/>
      <point x="376" y="94"/>
      <point x="376" y="130" type="curve" smooth="yes"/>
      <point x="376" y="221" type="line" smooth="yes"/>
      <point x="376" y="318"/>
      <point x="358" y="372"/>
      <point x="296" y="372" type="curve" smooth="yes"/>
      <point x="254" y="372"/>
      <point x="206" y="333"/>
      <point x="206" y="317" type="curve" smooth="yes"/>
      <point x="206" y="130" type="line" smooth="yes"/>
      <point x="206" y="96"/>
      <point x="206" y="64"/>
      <point x="212" y="46" type="curve" smooth="yes"/>
      <point x="216" y="34"/>
      <point x="260" y="29"/>
      <point x="272" y="29" type="curve"/>
      <point x="276" y="23"/>
      <point x="276" y="2"/>
      <point x="272" y="-4" type="curve"/>
      <point x="232" y="-1"/>
      <point x="193" y="2"/>
      <point x="153" y="2" type="curve" smooth="yes"/>
      <point x="112" y="2"/>
      <point x="72" y="-1"/>
      <point x="32" y="-4" type="curve"/>
      <point x="28" y="2"/>
      <point x="28" y="23"/>
      <point x="32" y="29" type="curve"/>
      <point x="44" y="29"/>
      <point x="91" y="34"/>
      <point x="95" y="46" type="curve" smooth="yes"/>
      <point x="102" y="64"/>
      <point x="102" y="94"/>
      <point x="102" y="130" type="curve" smooth="yes"/>
      <point x="102" y="279" type="line" smooth="yes"/>
      <point x="102" y="291"/>
      <point x="102" y="335"/>
      <point x="95" y="349" type="curve" smooth="yes"/>
      <point x="87" y="365"/>
      <point x="38" y="368"/>
      <point x="31" y="368" type="curve"/>
      <point x="29" y="370"/>
      <point x="27" y="394"/>
      <point x="31" y="396" type="curve"/>
      <point x="95" y="402"/>
      <point x="161" y="424"/>
      <point x="200" y="444" type="curve"/>
      <point x="206" y="443"/>
      <point x="214" y="431"/>
      <point x="214" y="427" type="curve"/>
      <point x="212" y="419"/>
      <point x="206" y="376"/>
      <point x="206" y="372" type="curve" smooth="yes"/>
      <point x="206" y="370"/>
      <point x="206" y="367"/>
      <point x="208" y="367" type="curve"/>
      <point x="210" y="367"/>
      <point x="211" y="368"/>
      <point x="213" y="370" type="curve" smooth="yes"/>
      <point x="239" y="396"/>
      <point x="299" y="442"/>
    </contour>
  </outline>
</glyph>
<glyph name="n" format="1">
  <advance width="565"/>
  <unicode hex="006E"/>
  <outline>
    <contour>
      <point x="350" y="442" type="curve" smooth="yes"/>
      <point x="461" y="442"/>
      <point x="483" y="370"/>
      <point x="483" y="218" type="curve" smooth="yes"/>
      <point x="483" y="130" type="line" smooth="yes"/>
      <point x="483" y="94"/>
      <point x="483" y="64"/>
      <point x="489" y="46" type="curve" smooth="yes"/>
      <point x="493" y="34"/>
      <point x="541" y="29"/>
      <point x="553" y="29" type="curve"/>
      <point x="557" y="23"/>
      <point x="557" y="2"/>
      <point x="553" y="-4" type="curve"/>
      <point x="513" y="-1"/>
      <point x="471" y="2"/>
      <point x="431" y="2" type="curve" smooth="yes"/>
      <point x="391" y="2"/>
      <point x="355" y="-1"/>
      <point x="315" y="-4" type="curve"/>
      <point x="311" y="2"/>
      <point x="311" y="23"/>
      <point x="315" y="29" type="curve"/>
      <point x="327" y="29"/>
      <point x="369" y="34"/>
      <point x="373" y="46" type="curve" smooth="yes"/>
      <point x="379" y="64"/>
      <point x="379" y="94"/>
      <point x="379" y="130" type="curve" smooth="yes"/>
      <point x="379" y="220" type="line" smooth="yes"/>
      <point x="379" y="318"/>
      <point x="363" y="372"/>
      <point x="297" y="372" type="curve" smooth="yes"/>
      <point x="259" y="372"/>
      <point x="206" y="331"/>
      <point x="206" y="317" type="curve" smooth="yes"/>
      <point x="206" y="130" type="line" smooth="yes"/>
      <point x="206" y="96"/>
      <point x="206" y="64"/>
      <point x="212" y="46" type="curve" smooth="yes"/>
      <point x="216" y="34"/>
      <point x="260" y="29"/>
      <point x="272" y="29" type="curve"/>
      <point x="276" y="23"/>
      <point x="276" y="2"/>
      <point x="272" y="-4" type="curve"/>
      <point x="232" y="-1"/>
      <point x="193" y="2"/>
      <point x="153" y="2" type="curve" smooth="yes"/>
      <point x="112" y="2"/>
      <point x="72" y="-1"/>
      <point x="32" y="-4" type="curve"/>
      <point x="28" y="2"/>
      <point x="28" y="23"/>
      <point x="32" y="29" type="curve"/>
      <point x="44" y="29"/>
      <point x="91" y="34"/>
      <point x="95" y="46" type="curve" smooth="yes"/>
      <point x="102" y="64"/>
      <point x="102" y="94"/>
      <point x="102" y="130" type="curve" smooth="yes"/>
      <point x="102" y="282" type="line" smooth="yes"/>
      <point x="102" y="294"/>
      <point x="102" y="335"/>
      <point x="95" y="349" type="curve" smooth="yes"/>
      <point x="87" y="365"/>
      <point x="38" y="368"/>
      <point x="31" y="368" type="curve"/>
      <point x="29" y="370"/>
      <point x="27" y="394"/>
      <point x="31" y="396" type="curve"/>
      <point x="95" y="402"/>
      <point x="161" y="424"/>
      <point x="200" y="444" type="curve"/>
      <point x="206" y="444"/>
      <point x="214" y="432"/>
      <point x="214" y="427" type="curve"/>
      <point x="212" y="419"/>
      <point x="206" y="374"/>
      <point x="206" y="370" type="curve" smooth="yes"/>
      <point x="206" y="368"/>
      <point x="206" y="364"/>
      <point x="208" y="364" type="curve"/>
      <point x="210" y="364"/>
      <point x="211" y="366"/>
      <point x="213" y="368" type="curve" smooth="yes"/>
      <point x="237" y="395"/>
      <point x="303" y="442"/>
    </contour>
  </outline>
</glyph>
<glyph name="o" format="1">
  <advance width="520"/>
  <unicode hex="006F"/>
  <outline>
    <contour>
      <point x="248" y="406" type="curve"/>
      <point x="169" y="406"/>
      <point x="150" y="315"/>
      <point x="150" y="235" type="curve"/>
      <point x="150" y="143"/>
      <point x="188" y="31"/>
      <point x="270" y="31" type="curve"/>
      <point x="349" y="31"/>
      <point x="369" y="122"/>
      <point x="369" y="200" type="curve"/>
      <point x="369" y="293"/>
      <point x="329" y="406"/>
    </contour>
    <contour>
      <point x="258" y="443" type="curve" smooth="yes"/>
      <point x="393" y="443"/>
      <point x="483" y="349"/>
      <point x="483" y="223" type="curve" smooth="yes"/>
      <point x="483" y="95"/>
      <point x="386" y="-7"/>
      <point x="260" y="-7" type="curve" smooth="yes"/>
      <point x="124" y="-7"/>
      <point x="36" y="89"/>
      <point x="36" y="215" type="curve" smooth="yes"/>
      <point x="36" y="343"/>
      <point x="132" y="443"/>
    </contour>
  </outline>
</glyph>
<glyph name="r" format="1">
  <advance width="415"/>
  <unicode hex="0072"/>
  <outline>
    <contour>
      <point x="332" y="442" type="curve"/>
      <point x="358" y="442"/>
      <point x="383" y="433"/>
      <point x="394" y="419" type="curve"/>
      <point x="397" y="413"/>
      <point x="402" y="397"/>
      <point x="402" y="381" type="curve" smooth="yes"/>
      <point x="402" y="345"/>
      <point x="377" y="316"/>
      <point x="355" y="316" type="curve"/>
      <point x="339" y="316"/>
      <point x="327" y="330"/>
      <point x="315" y="338" type="curve" smooth="yes"/>
      <point x="305" y="346"/>
      <point x="297" y="354"/>
      <point x="279" y="354" type="curve"/>
      <point x="237" y="354"/>
      <point x="206" y="290"/>
      <point x="206" y="268" type="curve" smooth="yes"/>
      <point x="206" y="130" type="line" smooth="yes"/>
      <point x="206" y="96"/>
      <point x="206" y="64"/>
      <point x="212" y="46" type="curve" smooth="yes"/>
      <point x="216" y="34"/>
      <point x="280" y="29"/>
      <point x="292" y="29" type="curve"/>
      <point x="296" y="23"/>
      <point x="296" y="2"/>
      <point x="292" y="-4" type="curve"/>
      <point x="252" y="-1"/>
      <point x="196" y="2"/>
      <point x="156" y="2" type="curve" smooth="yes"/>
      <point x="115" y="2"/>
      <point x="72" y="-1"/>
      <point x="32" y="-4" type="curve"/>
      <point x="28" y="2"/>
      <point x="28" y="23"/>
      <point x="32" y="29" type="curve"/>
      <point x="44" y="29"/>
      <point x="91" y="34"/>
      <point x="95" y="46" type="curve" smooth="yes"/>
      <point x="102" y="64"/>
      <point x="102" y="94"/>
      <point x="102" y="130" type="curve" smooth="yes"/>
      <point x="102" y="282" type="line" smooth="yes"/>
      <point x="102" y="294"/>
      <point x="102" y="335"/>
      <point x="95" y="349" type="curve" smooth="yes"/>
      <point x="87" y="365"/>
      <point x="38" y="368"/>
      <point x="31" y="368" type="curve"/>
      <point x="29" y="370"/>
      <point x="27" y="394"/>
      <point x="31" y="396" type="curve"/>
      <point x="95" y="402"/>
      <point x="161" y="424"/>
      <point x="200" y="444" type="curve"/>
      <point x="206" y="443"/>
      <point x="214" y="431"/>
      <point x="214" y="427" type="curve"/>
      <point x="212" y="419"/>
      <point x="206" y="353"/>
      <point x="206" y="341" type="curve" smooth="yes"/>
      <point x="206" y="337"/>
      <point x="210" y="336"/>
      <point x="211" y="338" type="curve" smooth="yes"/>
      <point x="233" y="381"/>
      <point x="278" y="442"/>
    </contour>
  </outline>
</glyph>
<glyph name="u" format="1">
  <advance width="539"/>
  <unicode hex="0075"/>
  <outline>
    <contour>
      <point x="352" y="291" type="line" smooth="yes"/>
      <point x="352" y="303"/>
      <point x="352" y="344"/>
      <point x="344" y="359" type="curve" smooth="yes"/>
      <point x="335" y="375"/>
      <point x="294" y="379"/>
      <point x="284" y="379" type="curve"/>
      <point x="281" y="381"/>
      <point x="281" y="405"/>
      <point x="285" y="407" type="curve"/>
      <point x="349" y="411"/>
      <point x="414" y="429"/>
      <point x="451" y="444" type="curve"/>
      <point x="457" y="443"/>
      <point x="465" y="429"/>
      <point x="465" y="425" type="curve"/>
      <point x="461" y="417"/>
      <point x="456" y="384"/>
      <point x="456" y="362" type="curve"/>
      <point x="456" y="351"/>
      <point x="456" y="310"/>
      <point x="456" y="307" type="curve"/>
      <point x="456" y="124" type="line" smooth="yes"/>
      <point x="456" y="111"/>
      <point x="456" y="87"/>
      <point x="464" y="68" type="curve" smooth="yes"/>
      <point x="471" y="54"/>
      <point x="510" y="54"/>
      <point x="516" y="54" type="curve"/>
      <point x="518" y="52"/>
      <point x="519" y="47"/>
      <point x="519" y="42" type="curve" smooth="yes"/>
      <point x="519" y="38"/>
      <point x="516" y="27"/>
      <point x="512" y="24" type="curve"/>
      <point x="456" y="20"/>
      <point x="368" y="-8"/>
      <point x="361" y="-8" type="curve" smooth="yes"/>
      <point x="357" y="-8"/>
      <point x="352" y="1"/>
      <point x="352" y="12" type="curve" smooth="yes"/>
      <point x="352" y="44" type="line" smooth="yes"/>
      <point x="352" y="48"/>
      <point x="352" y="49"/>
      <point x="350" y="48" type="curve"/>
      <point x="328" y="28"/>
      <point x="268" y="-6"/>
      <point x="208" y="-6" type="curve"/>
      <point x="106" y="-6"/>
      <point x="82" y="94"/>
      <point x="82" y="183" type="curve" smooth="yes"/>
      <point x="82" y="291" type="line" smooth="yes"/>
      <point x="82" y="303"/>
      <point x="81" y="344"/>
      <point x="73" y="359" type="curve" smooth="yes"/>
      <point x="64" y="375"/>
      <point x="24" y="379"/>
      <point x="14" y="379" type="curve"/>
      <point x="11" y="381"/>
      <point x="10" y="405"/>
      <point x="14" y="407" type="curve"/>
      <point x="78" y="411"/>
      <point x="143" y="429"/>
      <point x="180" y="444" type="curve"/>
      <point x="186" y="443"/>
      <point x="194" y="429"/>
      <point x="194" y="425" type="curve"/>
      <point x="190" y="417"/>
      <point x="186" y="384"/>
      <point x="186" y="362" type="curve"/>
      <point x="186" y="351"/>
      <point x="186" y="311"/>
      <point x="186" y="308" type="curve"/>
      <point x="186" y="212" type="line" smooth="yes"/>
      <point x="186" y="106"/>
      <point x="208" y="52"/>
      <point x="274" y="52" type="curve" smooth="yes"/>
      <point x="310" y="52"/>
      <point x="352" y="78"/>
      <point x="352" y="98" type="curve" smooth="yes"/>
    </contour>
  </outline>
</glyph>
<glyph name="v" format="1">
  <advance width="502"/>
  <unicode hex="0076"/>
  <outline>
    <contour>
      <point x="119" y="430" type="curve" smooth="yes"/>
      <point x="159" y="430"/>
      <point x="200" y="435"/>
      <point x="232" y="437" type="curve"/>
      <point x="236" y="431"/>
      <point x="235" y="407"/>
      <point x="230" y="404" type="curve"/>
      <point x="220" y="404"/>
      <point x="176" y="398"/>
      <point x="176" y="382" type="curve" smooth="yes"/>
      <point x="176" y="380"/>
      <point x="175" y="376"/>
      <point x="177" y="372" type="curve" smooth="yes"/>
      <point x="195" y="337"/>
      <point x="284" y="138"/>
      <point x="284" y="138" type="curve"/>
      <point x="284" y="138"/>
      <point x="332" y="256"/>
      <point x="368" y="340" type="curve" smooth="yes"/>
      <point x="373" y="351"/>
      <point x="376" y="365"/>
      <point x="376" y="374" type="curve" smooth="yes"/>
      <point x="376" y="396"/>
      <point x="333" y="404"/>
      <point x="312" y="404" type="curve"/>
      <point x="307" y="406"/>
      <point x="307" y="431"/>
      <point x="311" y="437" type="curve"/>
      <point x="341" y="434"/>
      <point x="364" y="430"/>
      <point x="404" y="430" type="curve" smooth="yes"/>
      <point x="444" y="430"/>
      <point x="475" y="435"/>
      <point x="503" y="437" type="curve"/>
      <point x="507" y="431"/>
      <point x="505" y="408"/>
      <point x="501" y="404" type="curve"/>
      <point x="491" y="404"/>
      <point x="442" y="398"/>
      <point x="429" y="370" type="curve"/>
      <point x="399" y="300"/>
      <point x="306" y="97"/>
      <point x="277" y="26" type="curve"/>
      <point x="265" y="2"/>
      <point x="251" y="-11"/>
      <point x="242" y="-11" type="curve" smooth="yes"/>
      <point x="238" y="-11"/>
      <point x="233" y="-7"/>
      <point x="231" y="-5" type="curve"/>
      <point x="169" y="132"/>
      <point x="121" y="248"/>
      <point x="60" y="374" type="curve"/>
      <point x="48" y="400"/>
      <point x="11" y="404"/>
      <point x="1" y="404" type="curve"/>
      <point x="-3" y="410"/>
      <point x="-3" y="429"/>
      <point x="1" y="437" type="curve"/>
      <point x="35" y="435"/>
      <point x="79" y="430"/>
    </contour>
  </outline>
</glyph>
<glyph name="w" format="1">
  <advance width="755"/>
  <unicode hex="0077"/>
  <outline>
    <contour>
      <point x="115" y="430" type="curve" smooth="yes"/>
      <point x="155" y="430"/>
      <point x="199" y="435"/>
      <point x="231" y="437" type="curve"/>
      <point x="235" y="431"/>
      <point x="234" y="408"/>
      <point x="230" y="404" type="curve"/>
      <point x="220" y="404"/>
      <point x="176" y="397"/>
      <point x="176" y="378" type="curve" smooth="yes"/>
      <point x="176" y="376"/>
      <point x="176" y="371"/>
      <point x="179" y="364" type="curve" smooth="yes"/>
      <point x="203" y="313"/>
      <point x="251" y="210"/>
      <point x="279" y="144" type="curve"/>
      <point x="305" y="208"/>
      <point x="353" y="319"/>
      <point x="353" y="331" type="curve" smooth="yes"/>
      <point x="353" y="340"/>
      <point x="344" y="363"/>
      <point x="336" y="375" type="curve" smooth="yes"/>
      <point x="323" y="397"/>
      <point x="293" y="404"/>
      <point x="283" y="404" type="curve"/>
      <point x="277" y="410"/>
      <point x="278" y="431"/>
      <point x="282" y="437" type="curve"/>
      <point x="322" y="433"/>
      <point x="355" y="430"/>
      <point x="395" y="430" type="curve"/>
      <point x="435" y="430"/>
      <point x="478" y="435"/>
      <point x="510" y="437" type="curve"/>
      <point x="514" y="431"/>
      <point x="514" y="409"/>
      <point x="510" y="404" type="curve"/>
      <point x="488" y="404"/>
      <point x="455" y="394"/>
      <point x="455" y="374" type="curve" smooth="yes"/>
      <point x="455" y="371"/>
      <point x="455" y="366"/>
      <point x="457" y="361" type="curve" smooth="yes"/>
      <point x="477" y="312"/>
      <point x="517" y="221"/>
      <point x="545" y="150" type="curve"/>
      <point x="565" y="199"/>
      <point x="600" y="285"/>
      <point x="623" y="343" type="curve" smooth="yes"/>
      <point x="627" y="354"/>
      <point x="631" y="366"/>
      <point x="631" y="374" type="curve" smooth="yes"/>
      <point x="631" y="401"/>
      <point x="582" y="403"/>
      <point x="566" y="404" type="curve"/>
      <point x="562" y="408"/>
      <point x="561" y="431"/>
      <point x="565" y="437" type="curve"/>
      <point x="601" y="434"/>
      <point x="621" y="430"/>
      <point x="661" y="430" type="curve" smooth="yes"/>
      <point x="701" y="430"/>
      <point x="727" y="435"/>
      <point x="755" y="437" type="curve"/>
      <point x="757" y="433"/>
      <point x="759" y="410"/>
      <point x="753" y="404" type="curve"/>
      <point x="743" y="404"/>
      <point x="697" y="400"/>
      <point x="685" y="370" type="curve" smooth="yes"/>
      <point x="629" y="236"/>
      <point x="597" y="159"/>
      <point x="539" y="25" type="curve" smooth="yes"/>
      <point x="529" y="1"/>
      <point x="512" y="-11"/>
      <point x="504" y="-11" type="curve" smooth="yes"/>
      <point x="500" y="-11"/>
      <point x="494" y="-7"/>
      <point x="492" y="-5" type="curve"/>
      <point x="492" y="-5"/>
      <point x="397" y="240"/>
      <point x="381" y="279" type="curve"/>
      <point x="365" y="240"/>
      <point x="277" y="26"/>
      <point x="277" y="26" type="curve" smooth="yes"/>
      <point x="268" y="5"/>
      <point x="250" y="-11"/>
      <point x="240" y="-11" type="curve" smooth="yes"/>
      <point x="236" y="-11"/>
      <point x="231" y="-7"/>
      <point x="229" y="-5" type="curve"/>
      <point x="163" y="147"/>
      <point x="127" y="231"/>
      <point x="60" y="374" type="curve"/>
      <point x="48" y="400"/>
      <point x="11" y="404"/>
      <point x="1" y="404" type="curve"/>
      <point x="-3" y="411"/>
      <point x="-3" y="431"/>
      <point x="1" y="437" type="curve"/>
      <point x="35" y="435"/>
      <point x="75" y="430"/>
    </contour>
  </outline>
</glyph>
<glyph name="x" format="1">
  <advance width="519"/>
  <unicode hex="0078"/>
  <outline>
    <contour>
      <point x="139" y="430" type="curve"/>
      <point x="181" y="430"/>
      <point x="229" y="435"/>
      <point x="253" y="437" type="curve"/>
      <point x="256" y="433"/>
      <point x="257" y="410"/>
      <point x="252" y="404" type="curve"/>
      <point x="238" y="404"/>
      <point x="208" y="400"/>
      <point x="208" y="384" type="curve" smooth="yes"/>
      <point x="208" y="381"/>
      <point x="211" y="376"/>
      <point x="215" y="371" type="curve" smooth="yes"/>
      <point x="280" y="278" type="line"/>
      <point x="308" y="314"/>
      <point x="354" y="366"/>
      <point x="354" y="380" type="curve" smooth="yes"/>
      <point x="354" y="402"/>
      <point x="298" y="404"/>
      <point x="291" y="404" type="curve"/>
      <point x="287" y="407"/>
      <point x="286" y="431"/>
      <point x="290" y="437" type="curve"/>
      <point x="326" y="434"/>
      <point x="353" y="430"/>
      <point x="393" y="430" type="curve" smooth="yes"/>
      <point x="432" y="430"/>
      <point x="479" y="435"/>
      <point x="494" y="437" type="curve"/>
      <point x="496" y="432"/>
      <point x="497" y="408"/>
      <point x="493" y="404" type="curve"/>
      <point x="474" y="404"/>
      <point x="433" y="399"/>
      <point x="413" y="376" type="curve" smooth="yes"/>
      <point x="377" y="332"/>
      <point x="335" y="277"/>
      <point x="306" y="243" type="curve"/>
      <point x="338" y="201"/>
      <point x="410" y="98"/>
      <point x="437" y="64" type="curve"/>
      <point x="457" y="36"/>
      <point x="491" y="29"/>
      <point x="509" y="29" type="curve"/>
      <point x="513" y="25"/>
      <point x="513" y="1"/>
      <point x="509" y="-4" type="curve"/>
      <point x="471" y="0"/>
      <point x="430" y="2"/>
      <point x="392" y="2" type="curve"/>
      <point x="350" y="2"/>
      <point x="307" y="-2"/>
      <point x="273" y="-4" type="curve"/>
      <point x="269" y="2"/>
      <point x="270" y="26"/>
      <point x="274" y="29" type="curve"/>
      <point x="287" y="29"/>
      <point x="319" y="36"/>
      <point x="319" y="50" type="curve" smooth="yes"/>
      <point x="319" y="52"/>
      <point x="315" y="56"/>
      <point x="313" y="60" type="curve" smooth="yes"/>
      <point x="313" y="60"/>
      <point x="252" y="146"/>
      <point x="238" y="166" type="curve"/>
      <point x="217" y="140"/>
      <point x="186" y="104"/>
      <point x="164" y="71" type="curve" smooth="yes"/>
      <point x="159" y="64"/>
      <point x="157" y="58"/>
      <point x="157" y="54" type="curve" smooth="yes"/>
      <point x="157" y="32"/>
      <point x="204" y="30"/>
      <point x="220" y="29" type="curve"/>
      <point x="224" y="27"/>
      <point x="224" y="2"/>
      <point x="220" y="-4" type="curve"/>
      <point x="186" y="-1"/>
      <point x="159" y="2"/>
      <point x="120" y="2" type="curve" smooth="yes"/>
      <point x="80" y="2"/>
      <point x="37" y="-2"/>
      <point x="10" y="-4" type="curve"/>
      <point x="7" y="2"/>
      <point x="7" y="23"/>
      <point x="11" y="29" type="curve"/>
      <point x="36" y="31"/>
      <point x="76" y="39"/>
      <point x="100" y="66" type="curve"/>
      <point x="125" y="90"/>
      <point x="185" y="173"/>
      <point x="212" y="202" type="curve"/>
      <point x="182" y="242"/>
      <point x="116" y="342"/>
      <point x="89" y="376" type="curve"/>
      <point x="73" y="397"/>
      <point x="35" y="404"/>
      <point x="21" y="404" type="curve"/>
      <point x="17" y="408"/>
      <point x="17" y="431"/>
      <point x="21" y="437" type="curve"/>
      <point x="57" y="433"/>
      <point x="100" y="430"/>
    </contour>
  </outline>
</glyph>
<glyph name="z" format="1">
  <advance width="453"/>
  <unicode hex="007A"/>
  <outline>
    <contour>
      <point x="149" y="430" type="curve" smooth="yes"/>
      <point x="282" y="430" type="line" smooth="yes"/>
      <point x="336" y="430"/>
      <point x="366" y="433"/>
      <point x="407" y="438" type="curve"/>
      <point x="412" y="430"/>
      <point x="411" y="419"/>
      <point x="411" y="414" type="curve"/>
      <point x="411" y="414"/>
      <point x="157" y="42"/>
      <point x="157" y="40" type="curve"/>
      <point x="283" y="40" type="line" smooth="yes"/>
      <point x="344" y="40"/>
      <point x="381" y="96"/>
      <point x="391" y="136" type="curve" smooth="yes"/>
      <point x="392" y="141"/>
      <point x="397" y="142"/>
      <point x="401" y="142" type="curve" smooth="yes"/>
      <point x="411" y="142"/>
      <point x="424" y="136"/>
      <point x="427" y="132" type="curve"/>
      <point x="421" y="112"/>
      <point x="392" y="23"/>
      <point x="384" y="0" type="curve"/>
      <point x="355" y="0"/>
      <point x="110" y="0"/>
      <point x="44" y="0" type="curve"/>
      <point x="40" y="1"/>
      <point x="31" y="10"/>
      <point x="31" y="18" type="curve" smooth="yes"/>
      <point x="31" y="21"/>
      <point x="32" y="28"/>
      <point x="34" y="30" type="curve" smooth="yes"/>
      <point x="275" y="388" type="line"/>
      <point x="275" y="388"/>
      <point x="169" y="390"/>
      <point x="153" y="390" type="curve"/>
      <point x="99" y="390"/>
      <point x="84" y="334"/>
      <point x="74" y="308" type="curve" smooth="yes"/>
      <point x="72" y="304"/>
      <point x="61" y="300"/>
      <point x="51" y="300" type="curve" smooth="yes"/>
      <point x="45" y="300"/>
      <point x="40" y="301"/>
      <point x="40" y="303" type="curve"/>
      <point x="44" y="319"/>
      <point x="54" y="384"/>
      <point x="57" y="437" type="curve"/>
      <point x="57" y="437"/>
      <point x="113" y="430"/>
    </contour>
  </outline>
</glyph>
<glyph name="braceleft" format="1">
  <advance width="259"/>
  <unicode hex="007B"/>
  <outline>
    <contour>
      <point x="105" y="404" type="curve" smooth="yes"/>
      <point x="105" y="432"/>
      <point x="94" y="455"/>
      <point x="85" y="481" type="curve" smooth="yes"/>
      <point x="76" y="503"/>
      <point x="68" y="526"/>
      <point x="68" y="554" type="curve" smooth="yes"/>
      <point x="68" y="654"/>
      <point x="168" y="730"/>
      <point x="214" y="740" type="curve"/>
      <point x="220" y="740"/>
      <point x="229" y="726"/>
      <point x="226" y="718" type="curve"/>
      <point x="198" y="704"/>
      <point x="147" y="657"/>
      <point x="147" y="599" type="curve" smooth="yes"/>
      <point x="147" y="560"/>
      <point x="157" y="540"/>
      <point x="167" y="516" type="curve" smooth="yes"/>
      <point x="176" y="495"/>
      <point x="185" y="471"/>
      <point x="185" y="432" type="curve" smooth="yes"/>
      <point x="185" y="356"/>
      <point x="118" y="303"/>
      <point x="87" y="298" type="curve"/>
      <point x="118" y="293"/>
      <point x="185" y="240"/>
      <point x="185" y="164" type="curve" smooth="yes"/>
      <point x="185" y="125"/>
      <point x="176" y="101"/>
      <point x="167" y="80" type="curve" smooth="yes"/>
      <point x="157" y="56"/>
      <point x="147" y="36"/>
      <point x="147" y="-3" type="curve" smooth="yes"/>
      <point x="147" y="-61"/>
      <point x="198" y="-108"/>
      <point x="226" y="-122" type="curve"/>
      <point x="229" y="-130"/>
      <point x="220" y="-144"/>
      <point x="214" y="-144" type="curve"/>
      <point x="168" y="-134"/>
      <point x="68" y="-58"/>
      <point x="68" y="42" type="curve" smooth="yes"/>
      <point x="68" y="73"/>
      <point x="78" y="98"/>
      <point x="87" y="122" type="curve" smooth="yes"/>
      <point x="96" y="145"/>
      <point x="105" y="166"/>
      <point x="105" y="192" type="curve" smooth="yes"/>
      <point x="105" y="245"/>
      <point x="63" y="275"/>
      <point x="23" y="287" type="curve"/>
      <point x="21" y="289"/>
      <point x="20" y="294"/>
      <point x="20" y="298" type="curve" smooth="yes"/>
      <point x="20" y="302"/>
      <point x="21" y="307"/>
      <point x="23" y="309" type="curve"/>
      <point x="63" y="321"/>
      <point x="105" y="351"/>
    </contour>
  </outline>
</glyph>
<glyph name="braceright" format="1">
  <advance width="259"/>
  <unicode hex="007D"/>
  <outline>
    <contour>
      <point x="46" y="740" type="curve"/>
      <point x="92" y="730"/>
      <point x="192" y="654"/>
      <point x="192" y="554" type="curve" smooth="yes"/>
      <point x="192" y="525"/>
      <point x="184" y="501"/>
      <point x="175" y="478" type="curve" smooth="yes"/>
      <point x="166" y="454"/>
      <point x="156" y="431"/>
      <point x="156" y="404" type="curve" smooth="yes"/>
      <point x="156" y="351"/>
      <point x="198" y="321"/>
      <point x="238" y="309" type="curve"/>
      <point x="240" y="307"/>
      <point x="240" y="302"/>
      <point x="240" y="298" type="curve" smooth="yes"/>
      <point x="240" y="294"/>
      <point x="240" y="289"/>
      <point x="238" y="287" type="curve"/>
      <point x="198" y="275"/>
      <point x="156" y="245"/>
      <point x="156" y="192" type="curve" smooth="yes"/>
      <point x="156" y="166"/>
      <point x="165" y="144"/>
      <point x="174" y="121" type="curve" smooth="yes"/>
      <point x="183" y="97"/>
      <point x="192" y="72"/>
      <point x="192" y="42" type="curve" smooth="yes"/>
      <point x="192" y="-58"/>
      <point x="92" y="-134"/>
      <point x="46" y="-144" type="curve"/>
      <point x="40" y="-144"/>
      <point x="32" y="-130"/>
      <point x="35" y="-122" type="curve"/>
      <point x="62" y="-108"/>
      <point x="113" y="-61"/>
      <point x="113" y="-3" type="curve" smooth="yes"/>
      <point x="113" y="35"/>
      <point x="104" y="56"/>
      <point x="94" y="79" type="curve" smooth="yes"/>
      <point x="85" y="100"/>
      <point x="75" y="124"/>
      <point x="75" y="164" type="curve" smooth="yes"/>
      <point x="75" y="240"/>
      <point x="143" y="293"/>
      <point x="174" y="298" type="curve"/>
      <point x="143" y="303"/>
      <point x="75" y="356"/>
      <point x="75" y="432" type="curve" smooth="yes"/>
      <point x="75" y="476"/>
      <point x="85" y="499"/>
      <point x="95" y="522" type="curve" smooth="yes"/>
      <point x="104" y="544"/>
      <point x="113" y="564"/>
      <point x="113" y="599" type="curve" smooth="yes"/>
      <point x="113" y="657"/>
      <point x="62" y="704"/>
      <point x="35" y="718" type="curve"/>
      <point x="32" y="726"/>
      <point x="40" y="740"/>
    </contour>
  </outline>
</glyph>
<glyph name="asciitilde" format="1">
  <advance width="558"/>
  <unicode hex="007E"/>
  <outline>
    <contour>
      <point x="265" y="275" type="curve" smooth="yes"/>
      <point x="230" y="289"/>
      <point x="192" y="304"/>
      <point x="147" y="304" type="curve" smooth="yes"/>
      <point x="108" y="304"/>
      <point x="77" y="278"/>
      <point x="59" y="259" type="curve"/>
      <point x="55" y="261"/>
      <point x="51" y="266"/>
      <point x="51" y="272" type="curve"/>
      <point x="51" y="310"/>
      <point x="121" y="360"/>
      <point x="177" y="360" type="curve" smooth="yes"/>
      <point x="224" y="360"/>
      <point x="263" y="344"/>
      <point x="299" y="330" type="curve" smooth="yes"/>
      <point x="333" y="316"/>
      <point x="371" y="300"/>
      <point x="417" y="300" type="curve" smooth="yes"/>
      <point x="456" y="300"/>
      <point x="485" y="326"/>
      <point x="505" y="346" type="curve"/>
      <point x="509" y="344"/>
      <point x="513" y="339"/>
      <point x="513" y="333" type="curve"/>
      <point x="513" y="297"/>
      <point x="448" y="244"/>
      <point x="388" y="244" type="curve" smooth="yes"/>
      <point x="340" y="244"/>
      <point x="301" y="261"/>
    </contour>
  </outline>
</glyph>
<glyph name="cent" format="1">
  <advance width="464"/>
  <unicode hex="00A2"/>
  <outline>
    <contour>
      <point x="277" y="476" type="line"/>
      <point x="285" y="476"/>
      <point x="309" y="477"/>
      <point x="309" y="470" type="curve"/>
      <point x="225" y="-42" type="line"/>
      <point x="216" y="-42"/>
      <point x="195" y="-40"/>
      <point x="193" y="-34" type="curve"/>
    </contour>
    <component base="c" xOffset="9"/>
  </outline>
</glyph>
<glyph name="currency" format="1">
  <advance width="569"/>
  <unicode hex="00A4"/>
  <outline>
    <contour>
      <point x="292" y="156" type="curve" smooth="yes"/>
      <point x="348" y="156"/>
      <point x="383" y="219"/>
      <point x="383" y="294" type="curve" smooth="yes"/>
      <point x="383" y="386"/>
      <point x="334" y="460"/>
      <point x="276" y="460" type="curve" smooth="yes"/>
      <point x="220" y="460"/>
      <point x="183" y="394"/>
      <point x="183" y="319" type="curve" smooth="yes"/>
      <point x="183" y="227"/>
      <point x="234" y="156"/>
    </contour>
    <contour>
      <point x="396" y="455" type="curve"/>
      <point x="456" y="510" type="line" smooth="yes"/>
      <point x="464" y="518"/>
      <point x="489" y="490"/>
      <point x="496" y="466" type="curve"/>
      <point x="436" y="410" type="line"/>
      <point x="454" y="380"/>
      <point x="465" y="344"/>
      <point x="465" y="307" type="curve" smooth="yes"/>
      <point x="465" y="267"/>
      <point x="453" y="230"/>
      <point x="432" y="199" type="curve"/>
      <point x="486" y="141" type="line" smooth="yes"/>
      <point x="494" y="133"/>
      <point x="466" y="107"/>
      <point x="442" y="100" type="curve"/>
      <point x="390" y="155" type="line"/>
      <point x="360" y="133"/>
      <point x="324" y="120"/>
      <point x="284" y="120" type="curve" smooth="yes"/>
      <point x="241" y="120"/>
      <point x="201" y="135"/>
      <point x="170" y="160" type="curve"/>
      <point x="118" y="110" type="line" smooth="yes"/>
      <point x="110" y="102"/>
      <point x="83" y="130"/>
      <point x="76" y="154" type="curve"/>
      <point x="130" y="205" type="line"/>
      <point x="111" y="235"/>
      <point x="100" y="270"/>
      <point x="100" y="307" type="curve" smooth="yes"/>
      <point x="100" y="351"/>
      <point x="114" y="391"/>
      <point x="138" y="423" type="curve"/>
      <point x="86" y="479" type="line" smooth="yes"/>
      <point x="78" y="487"/>
      <point x="106" y="513"/>
      <point x="130" y="520" type="curve"/>
      <point x="182" y="465" type="line"/>
      <point x="211" y="485"/>
      <point x="246" y="496"/>
      <point x="284" y="496" type="curve" smooth="yes"/>
      <point x="327" y="496"/>
      <point x="365" y="481"/>
    </contour>
  </outline>
</glyph>
<glyph name="brokenbar" format="1">
  <advance width="211"/>
  <unicode hex="00A6"/>
  <outline>
    <contour>
      <point x="132" y="400" type="line" smooth="yes"/>
      <point x="132" y="392"/>
      <point x="87" y="385"/>
      <point x="85" y="385" type="curve" smooth="yes"/>
      <point x="78" y="385"/>
      <point x="80" y="389"/>
      <point x="80" y="393" type="curve" smooth="yes"/>
      <point x="80" y="757" type="line"/>
      <point x="80" y="757"/>
      <point x="79" y="763"/>
      <point x="85" y="765" type="curve" smooth="yes"/>
      <point x="102" y="770"/>
      <point x="121" y="770"/>
      <point x="124" y="770" type="curve" smooth="yes"/>
      <point x="133" y="770"/>
      <point x="132" y="764"/>
      <point x="132" y="764" type="curve"/>
    </contour>
    <contour>
      <point x="80" y="-115" type="curve" smooth="yes"/>
      <point x="80" y="249" type="line"/>
      <point x="80" y="249"/>
      <point x="79" y="255"/>
      <point x="85" y="257" type="curve" smooth="yes"/>
      <point x="102" y="262"/>
      <point x="121" y="262"/>
      <point x="124" y="262" type="curve" smooth="yes"/>
      <point x="133" y="262"/>
      <point x="132" y="256"/>
      <point x="132" y="256" type="curve"/>
      <point x="132" y="-108" type="line" smooth="yes"/>
      <point x="132" y="-116"/>
      <point x="87" y="-123"/>
      <point x="85" y="-123" type="curve" smooth="yes"/>
      <point x="78" y="-123"/>
      <point x="80" y="-119"/>
    </contour>
  </outline>
</glyph>
<glyph name="ordfeminine" format="1">
  <advance width="366"/>
  <unicode hex="00AA"/>
  <outline>
    <contour>
      <point x="168" y="290" type="curve" smooth="yes"/>
      <point x="188" y="290"/>
      <point x="213" y="310"/>
      <point x="213" y="316" type="curve" smooth="yes"/>
      <point x="213" y="402" type="line"/>
      <point x="197" y="396"/>
      <point x="170" y="389"/>
      <point x="156" y="382" type="curve" smooth="yes"/>
      <point x="134" y="371"/>
      <point x="123" y="356"/>
      <point x="123" y="336" type="curve" smooth="yes"/>
      <point x="123" y="308"/>
      <point x="146" y="290"/>
    </contour>
    <contour>
      <point x="194" y="556" type="curve" smooth="yes"/>
      <point x="244" y="556"/>
      <point x="287" y="514"/>
      <point x="287" y="457" type="curve" smooth="yes"/>
      <point x="287" y="323" type="line" smooth="yes"/>
      <point x="287" y="305"/>
      <point x="294" y="294"/>
      <point x="306" y="294" type="curve" smooth="yes"/>
      <point x="317" y="294"/>
      <point x="327" y="302"/>
      <point x="329" y="303" type="curve"/>
      <point x="331" y="303"/>
      <point x="334" y="297"/>
      <point x="334" y="294" type="curve"/>
      <point x="334" y="290"/>
      <point x="332" y="284"/>
      <point x="330" y="281" type="curve"/>
      <point x="321" y="273"/>
      <point x="288" y="250"/>
      <point x="265" y="250" type="curve" smooth="yes"/>
      <point x="243" y="250"/>
      <point x="222" y="270"/>
      <point x="216" y="288" type="curve"/>
      <point x="208" y="282"/>
      <point x="158" y="248"/>
      <point x="133" y="248" type="curve" smooth="yes"/>
      <point x="83" y="248"/>
      <point x="45" y="288"/>
      <point x="45" y="330" type="curve" smooth="yes"/>
      <point x="45" y="357"/>
      <point x="65" y="379"/>
      <point x="81" y="385" type="curve" smooth="yes"/>
      <point x="114" y="397"/>
      <point x="181" y="421"/>
      <point x="209" y="432" type="curve"/>
      <point x="213" y="436"/>
      <point x="213" y="437"/>
      <point x="213" y="445" type="curve" smooth="yes"/>
      <point x="213" y="464" type="line" smooth="yes"/>
      <point x="213" y="496"/>
      <point x="194" y="526"/>
      <point x="162" y="526" type="curve" smooth="yes"/>
      <point x="136" y="526"/>
      <point x="128" y="508"/>
      <point x="122" y="480" type="curve" smooth="yes"/>
      <point x="118" y="460"/>
      <point x="106" y="449"/>
      <point x="85" y="449" type="curve" smooth="yes"/>
      <point x="67" y="449"/>
      <point x="54" y="464"/>
      <point x="54" y="480" type="curve" smooth="yes"/>
      <point x="54" y="486"/>
      <point x="57" y="496"/>
      <point x="61" y="502" type="curve"/>
      <point x="76" y="516"/>
      <point x="136" y="556"/>
    </contour>
  </outline>
</glyph>
<glyph name="uni00B3" format="1">
  <advance width="328"/>
  <unicode hex="00B3"/>
  <outline>
    <contour>
      <point x="171" y="644" type="curve" smooth="yes"/>
      <point x="210" y="644"/>
      <point x="262" y="620"/>
      <point x="262" y="564" type="curve" smooth="yes"/>
      <point x="262" y="512"/>
      <point x="219" y="489"/>
      <point x="197" y="482" type="curve"/>
      <point x="220" y="482"/>
      <point x="292" y="452"/>
      <point x="292" y="382" type="curve" smooth="yes"/>
      <point x="292" y="294"/>
      <point x="205" y="247"/>
      <point x="123" y="247" type="curve" smooth="yes"/>
      <point x="92" y="247"/>
      <point x="59" y="255"/>
      <point x="48" y="265" type="curve"/>
      <point x="46" y="268"/>
      <point x="37" y="279"/>
      <point x="37" y="290" type="curve" smooth="yes"/>
      <point x="37" y="308"/>
      <point x="51" y="324"/>
      <point x="69" y="324" type="curve" smooth="yes"/>
      <point x="86" y="324"/>
      <point x="95" y="308"/>
      <point x="107" y="294" type="curve" smooth="yes"/>
      <point x="117" y="281"/>
      <point x="133" y="275"/>
      <point x="149" y="275" type="curve" smooth="yes"/>
      <point x="189" y="275"/>
      <point x="215" y="303"/>
      <point x="215" y="361" type="curve" smooth="yes"/>
      <point x="215" y="409"/>
      <point x="182" y="448"/>
      <point x="143" y="448" type="curve" smooth="yes"/>
      <point x="132" y="448"/>
      <point x="115" y="445"/>
      <point x="107" y="443" type="curve"/>
      <point x="105" y="446"/>
      <point x="102" y="451"/>
      <point x="102" y="456" type="curve" smooth="yes"/>
      <point x="102" y="459"/>
      <point x="102" y="465"/>
      <point x="103" y="467" type="curve"/>
      <point x="143" y="474"/>
      <point x="194" y="497"/>
      <point x="194" y="547" type="curve" smooth="yes"/>
      <point x="194" y="577"/>
      <point x="171" y="602"/>
      <point x="139" y="602" type="curve" smooth="yes"/>
      <point x="104" y="602"/>
      <point x="76" y="572"/>
      <point x="71" y="566" type="curve"/>
      <point x="67" y="568"/>
      <point x="58" y="577"/>
      <point x="60" y="583" type="curve"/>
      <point x="78" y="609"/>
      <point x="121" y="644"/>
    </contour>
  </outline>
</glyph>
<glyph name="acute" format="1">
  <advance width="362"/>
  <unicode hex="00B4"/>
  <outline>
    <contour>
      <point x="402" y="686" type="curve" smooth="yes"/>
      <point x="437" y="686"/>
      <point x="444" y="666"/>
      <point x="444" y="660" type="curve" smooth="yes"/>
      <point x="444" y="621"/>
      <point x="299" y="524"/>
      <point x="289" y="524" type="curve" smooth="yes"/>
      <point x="282" y="524"/>
      <point x="274" y="534"/>
      <point x="274" y="540" type="curve" smooth="yes"/>
      <point x="274" y="546"/>
      <point x="332" y="636"/>
      <point x="368" y="678" type="curve" smooth="yes"/>
      <point x="373" y="683"/>
      <point x="388" y="686"/>
    </contour>
  </outline>
</glyph>
<glyph name="mu" format="1">
  <advance width="528"/>
  <unicode hex="00B5"/>
  <outline>
    <contour>
      <point x="137" y="222" type="curve"/>
      <point x="140" y="162"/>
      <point x="157" y="90"/>
      <point x="201" y="90" type="curve" smooth="yes"/>
      <point x="264" y="90"/>
      <point x="317" y="160"/>
      <point x="329" y="222" type="curve"/>
      <point x="327" y="246"/>
      <point x="326" y="291"/>
      <point x="326" y="314" type="curve" smooth="yes"/>
      <point x="326" y="327"/>
      <point x="326" y="382"/>
      <point x="325" y="420" type="curve"/>
      <point x="330" y="428"/>
      <point x="340" y="442"/>
      <point x="352" y="442" type="curve" smooth="yes"/>
      <point x="362" y="442"/>
      <point x="420" y="416"/>
      <point x="420" y="403" type="curve" smooth="yes"/>
      <point x="420" y="378"/>
      <point x="407" y="330"/>
      <point x="395" y="264" type="curve" smooth="yes"/>
      <point x="390" y="244"/>
      <point x="382" y="212"/>
      <point x="378" y="195" type="curve"/>
      <point x="378" y="119"/>
      <point x="407" y="85"/>
      <point x="439" y="85" type="curve" smooth="yes"/>
      <point x="471" y="85"/>
      <point x="491" y="113"/>
      <point x="499" y="126" type="curve"/>
      <point x="503" y="126"/>
      <point x="511" y="114"/>
      <point x="513" y="108" type="curve" smooth="yes"/>
      <point x="515" y="104"/>
      <point x="513" y="95"/>
      <point x="513" y="92" type="curve" smooth="yes"/>
      <point x="499" y="49"/>
      <point x="466" y="-4"/>
      <point x="426" y="-4" type="curve" smooth="yes"/>
      <point x="378" y="-3"/>
      <point x="357" y="86"/>
      <point x="351" y="132" type="curve"/>
      <point x="326" y="62"/>
      <point x="278" y="-8"/>
      <point x="215" y="-8" type="curve" smooth="yes"/>
      <point x="169" y="-8"/>
      <point x="135" y="73"/>
      <point x="129" y="119" type="curve"/>
      <point x="131" y="94"/>
      <point x="131" y="-87"/>
      <point x="153" y="-205" type="curve"/>
      <point x="148" y="-213"/>
      <point x="134" y="-227"/>
      <point x="119" y="-227" type="curve" smooth="yes"/>
      <point x="105" y="-227"/>
      <point x="63" y="-195"/>
      <point x="63" y="-182" type="curve" smooth="yes"/>
      <point x="63" y="-164"/>
      <point x="73" y="106"/>
      <point x="85" y="210" type="curve"/>
      <point x="85" y="234"/>
      <point x="75" y="316"/>
      <point x="75" y="339" type="curve" smooth="yes"/>
      <point x="75" y="352"/>
      <point x="77" y="397"/>
      <point x="77" y="420" type="curve"/>
      <point x="81" y="430"/>
      <point x="89" y="442"/>
      <point x="101" y="442" type="curve" smooth="yes"/>
      <point x="111" y="442"/>
      <point x="167" y="416"/>
      <point x="167" y="403" type="curve" smooth="yes"/>
      <point x="167" y="375"/>
      <point x="161" y="335"/>
      <point x="149" y="277" type="curve" smooth="yes"/>
      <point x="145" y="255"/>
      <point x="140" y="236"/>
    </contour>
  </outline>
</glyph>
<glyph name="uni00B9" format="1">
  <advance width="291"/>
  <unicode hex="00B9"/>
  <outline>
    <contour>
      <point x="117" y="514" type="line" smooth="yes"/>
      <point x="117" y="550"/>
      <point x="110" y="564"/>
      <point x="98" y="564" type="curve" smooth="yes"/>
      <point x="88" y="564"/>
      <point x="64" y="554"/>
      <point x="48" y="548" type="curve"/>
      <point x="42" y="550"/>
      <point x="38" y="559"/>
      <point x="38" y="566" type="curve" smooth="yes"/>
      <point x="38" y="568"/>
      <point x="38" y="573"/>
      <point x="40" y="574" type="curve"/>
      <point x="128" y="611"/>
      <point x="190" y="646"/>
      <point x="192" y="646" type="curve" smooth="yes"/>
      <point x="194" y="646" type="line" smooth="yes"/>
      <point x="199" y="646"/>
      <point x="207" y="628"/>
      <point x="208" y="625" type="curve"/>
      <point x="206" y="619"/>
      <point x="197" y="581"/>
      <point x="197" y="542" type="curve" smooth="yes"/>
      <point x="197" y="343" type="line" smooth="yes"/>
      <point x="197" y="324"/>
      <point x="199" y="304"/>
      <point x="206" y="292" type="curve" smooth="yes"/>
      <point x="212" y="284"/>
      <point x="250" y="278"/>
      <point x="256" y="278" type="curve"/>
      <point x="258" y="278"/>
      <point x="258" y="254"/>
      <point x="256" y="252" type="curve"/>
      <point x="224" y="253"/>
      <point x="190" y="256"/>
      <point x="158" y="256" type="curve" smooth="yes"/>
      <point x="126" y="256"/>
      <point x="89" y="253"/>
      <point x="57" y="252" type="curve"/>
      <point x="53" y="255"/>
      <point x="53" y="278"/>
      <point x="57" y="278" type="curve"/>
      <point x="67" y="278"/>
      <point x="104" y="284"/>
      <point x="109" y="292" type="curve" smooth="yes"/>
      <point x="114" y="302"/>
      <point x="117" y="332"/>
      <point x="117" y="342" type="curve" smooth="yes"/>
    </contour>
  </outline>
</glyph>
<glyph name="onequarter" format="1">
  <advance width="718"/>
  <unicode hex="00BC"/>
  <outline>
    <contour>
      <point x="627" y="396" type="curve" smooth="yes"/>
      <point x="632" y="396"/>
      <point x="642" y="389"/>
      <point x="642" y="381" type="curve"/>
      <point x="642" y="333"/>
      <point x="642" y="188"/>
      <point x="642" y="142" type="curve"/>
      <point x="646" y="142"/>
      <point x="666" y="142"/>
      <point x="671" y="142" type="curve"/>
      <point x="682" y="132"/>
      <point x="686" y="115"/>
      <point x="679" y="99" type="curve"/>
      <point x="667" y="99"/>
      <point x="646" y="99"/>
      <point x="643" y="99" type="curve"/>
      <point x="643" y="1" type="line"/>
      <point x="642" y="0"/>
      <point x="626" y="-3"/>
      <point x="605" y="-3" type="curve" smooth="yes"/>
      <point x="587" y="-3"/>
      <point x="571" y="0"/>
      <point x="569" y="4" type="curve"/>
      <point x="569" y="99" type="line"/>
      <point x="409" y="99" type="line"/>
      <point x="404" y="101"/>
      <point x="399" y="106"/>
      <point x="399" y="116" type="curve"/>
      <point x="437" y="161"/>
      <point x="579" y="346"/>
      <point x="611" y="386" type="curve"/>
      <point x="615" y="391"/>
      <point x="621" y="396"/>
    </contour>
    <contour>
      <point x="569" y="145" type="curve"/>
      <point x="569" y="167"/>
      <point x="569" y="280"/>
      <point x="569" y="284" type="curve"/>
      <point x="537" y="244"/>
      <point x="489" y="181"/>
      <point x="461" y="145" type="curve"/>
      <point x="462" y="145"/>
      <point x="549" y="145"/>
    </contour>
    <contour>
      <point x="185" y="535" type="curve" smooth="yes"/>
      <point x="185" y="341" type="line" smooth="yes"/>
      <point x="185" y="322"/>
      <point x="189" y="300"/>
      <point x="195" y="289" type="curve" smooth="yes"/>
      <point x="200" y="281"/>
      <point x="237" y="276"/>
      <point x="243" y="276" type="curve"/>
      <point x="247" y="274"/>
      <point x="244" y="254"/>
      <point x="243" y="252" type="curve"/>
      <point x="211" y="253"/>
      <point x="183" y="255"/>
      <point x="151" y="255" type="curve" smooth="yes"/>
      <point x="119" y="255"/>
      <point x="85" y="253"/>
      <point x="53" y="252" type="curve"/>
      <point x="49" y="255"/>
      <point x="49" y="274"/>
      <point x="53" y="276" type="curve"/>
      <point x="63" y="276"/>
      <point x="98" y="282"/>
      <point x="103" y="290" type="curve" smooth="yes"/>
      <point x="108" y="300"/>
      <point x="111" y="330"/>
      <point x="111" y="340" type="curve" smooth="yes"/>
      <point x="111" y="516" type="line" smooth="yes"/>
      <point x="111" y="539"/>
      <point x="104" y="556"/>
      <point x="93" y="556" type="curve" smooth="yes"/>
      <point x="83" y="556"/>
      <point x="63" y="547"/>
      <point x="47" y="541" type="curve"/>
      <point x="41" y="543"/>
      <point x="35" y="560"/>
      <point x="35" y="564" type="curve"/>
      <point x="80" y="585"/>
      <point x="137" y="615"/>
      <point x="181" y="640" type="curve"/>
      <point x="185" y="639"/>
      <point x="196" y="627"/>
      <point x="196" y="622" type="curve"/>
      <point x="194" y="616"/>
      <point x="185" y="574"/>
    </contour>
    <contour>
      <point x="205" y="-23" type="curve" smooth="yes"/>
      <point x="192" y="-23"/>
      <point x="190" y="-14"/>
      <point x="190" y="-14" type="curve"/>
      <point x="538" y="650" type="line"/>
      <point x="542" y="656"/>
      <point x="554" y="664"/>
      <point x="571" y="664" type="curve" smooth="yes"/>
      <point x="578" y="664"/>
      <point x="583" y="660"/>
      <point x="584" y="656" type="curve"/>
      <point x="239" y="-4" type="line" smooth="yes"/>
      <point x="236" y="-10"/>
      <point x="222" y="-23"/>
    </contour>
  </outline>
</glyph>
<glyph name="threequarters" format="1">
  <advance width="719"/>
  <unicode hex="00BE"/>
  <outline>
    <contour>
      <point x="626" y="396" type="curve" smooth="yes"/>
      <point x="631" y="396"/>
      <point x="641" y="389"/>
      <point x="641" y="381" type="curve"/>
      <point x="641" y="333"/>
      <point x="641" y="188"/>
      <point x="641" y="142" type="curve"/>
      <point x="645" y="142"/>
      <point x="665" y="142"/>
      <point x="670" y="142" type="curve"/>
      <point x="681" y="132"/>
      <point x="685" y="115"/>
      <point x="678" y="99" type="curve"/>
      <point x="666" y="99"/>
      <point x="645" y="99"/>
      <point x="642" y="99" type="curve"/>
      <point x="642" y="1" type="line"/>
      <point x="641" y="0"/>
      <point x="625" y="-3"/>
      <point x="604" y="-3" type="curve" smooth="yes"/>
      <point x="586" y="-3"/>
      <point x="570" y="0"/>
      <point x="568" y="4" type="curve"/>
      <point x="568" y="99" type="line"/>
      <point x="408" y="99" type="line"/>
      <point x="403" y="101"/>
      <point x="398" y="106"/>
      <point x="398" y="116" type="curve"/>
      <point x="436" y="161"/>
      <point x="578" y="346"/>
      <point x="610" y="386" type="curve"/>
      <point x="614" y="391"/>
      <point x="620" y="396"/>
    </contour>
    <contour>
      <point x="568" y="145" type="curve"/>
      <point x="568" y="167"/>
      <point x="568" y="280"/>
      <point x="568" y="284" type="curve"/>
      <point x="536" y="244"/>
      <point x="488" y="181"/>
      <point x="460" y="145" type="curve"/>
      <point x="461" y="145"/>
      <point x="548" y="145"/>
    </contour>
    <contour>
      <point x="166" y="644" type="curve" smooth="yes"/>
      <point x="205" y="644"/>
      <point x="258" y="620"/>
      <point x="258" y="564" type="curve" smooth="yes"/>
      <point x="258" y="512"/>
      <point x="214" y="489"/>
      <point x="192" y="482" type="curve"/>
      <point x="215" y="482"/>
      <point x="289" y="452"/>
      <point x="289" y="382" type="curve" smooth="yes"/>
      <point x="289" y="294"/>
      <point x="201" y="247"/>
      <point x="119" y="247" type="curve" smooth="yes"/>
      <point x="88" y="247"/>
      <point x="55" y="255"/>
      <point x="44" y="265" type="curve"/>
      <point x="42" y="268"/>
      <point x="34" y="279"/>
      <point x="34" y="290" type="curve" smooth="yes"/>
      <point x="34" y="308"/>
      <point x="47" y="324"/>
      <point x="65" y="324" type="curve" smooth="yes"/>
      <point x="82" y="324"/>
      <point x="91" y="308"/>
      <point x="103" y="294" type="curve" smooth="yes"/>
      <point x="113" y="281"/>
      <point x="129" y="275"/>
      <point x="145" y="275" type="curve" smooth="yes"/>
      <point x="185" y="275"/>
      <point x="212" y="303"/>
      <point x="212" y="361" type="curve" smooth="yes"/>
      <point x="212" y="409"/>
      <point x="179" y="448"/>
      <point x="140" y="448" type="curve" smooth="yes"/>
      <point x="129" y="448"/>
      <point x="112" y="445"/>
      <point x="104" y="443" type="curve"/>
      <point x="102" y="446"/>
      <point x="98" y="451"/>
      <point x="98" y="456" type="curve" smooth="yes"/>
      <point x="98" y="459"/>
      <point x="98" y="465"/>
      <point x="99" y="467" type="curve"/>
      <point x="139" y="474"/>
      <point x="190" y="497"/>
      <point x="190" y="547" type="curve" smooth="yes"/>
      <point x="190" y="577"/>
      <point x="166" y="602"/>
      <point x="134" y="602" type="curve" smooth="yes"/>
      <point x="99" y="602"/>
      <point x="73" y="572"/>
      <point x="68" y="566" type="curve"/>
      <point x="64" y="568"/>
      <point x="54" y="577"/>
      <point x="56" y="583" type="curve"/>
      <point x="74" y="609"/>
      <point x="116" y="644"/>
    </contour>
    <contour>
      <point x="591" y="656" type="curve"/>
      <point x="246" y="-4" type="line" smooth="yes"/>
      <point x="243" y="-10"/>
      <point x="228" y="-23"/>
      <point x="211" y="-23" type="curve" smooth="yes"/>
      <point x="198" y="-23"/>
      <point x="197" y="-14"/>
      <point x="197" y="-14" type="curve"/>
      <point x="544" y="650" type="line"/>
      <point x="548" y="656"/>
      <point x="561" y="664"/>
      <point x="578" y="664" type="curve" smooth="yes"/>
      <point x="585" y="664"/>
      <point x="590" y="660"/>
    </contour>
  </outline>
</glyph>
<glyph name="questiondown" format="1">
  <advance width="367"/>
  <unicode hex="00BF"/>
  <outline>
    <contour>
      <point x="308" y="370" type="curve" smooth="yes"/>
      <point x="308" y="334"/>
      <point x="279" y="307"/>
      <point x="245" y="307" type="curve" smooth="yes"/>
      <point x="209" y="307"/>
      <point x="180" y="334"/>
      <point x="180" y="370" type="curve" smooth="yes"/>
      <point x="180" y="406"/>
      <point x="208" y="437"/>
      <point x="243" y="437" type="curve" smooth="yes"/>
      <point x="277" y="437"/>
      <point x="308" y="408"/>
    </contour>
    <contour>
      <point x="269" y="237" type="curve"/>
      <point x="275" y="219"/>
      <point x="283" y="176"/>
      <point x="283" y="142" type="curve" smooth="yes"/>
      <point x="283" y="76"/>
      <point x="236" y="46"/>
      <point x="200" y="22" type="curve" smooth="yes"/>
      <point x="150" y="-10"/>
      <point x="104" y="-43"/>
      <point x="104" y="-84" type="curve" smooth="yes"/>
      <point x="104" y="-120"/>
      <point x="130" y="-148"/>
      <point x="167" y="-148" type="curve" smooth="yes"/>
      <point x="211" y="-148"/>
      <point x="231" y="-107"/>
      <point x="265" y="-107" type="curve" smooth="yes"/>
      <point x="291" y="-107"/>
      <point x="319" y="-132"/>
      <point x="319" y="-165" type="curve" smooth="yes"/>
      <point x="319" y="-181"/>
      <point x="313" y="-200"/>
      <point x="307" y="-206" type="curve"/>
      <point x="295" y="-212"/>
      <point x="272" y="-218"/>
      <point x="237" y="-218" type="curve" smooth="yes"/>
      <point x="181" y="-218"/>
      <point x="36" y="-166"/>
      <point x="36" y="-38" type="curve" smooth="yes"/>
      <point x="36" y="40"/>
      <point x="85" y="78"/>
      <point x="149" y="116" type="curve" smooth="yes"/>
      <point x="176" y="132"/>
      <point x="217" y="159"/>
      <point x="229" y="177" type="curve" smooth="yes"/>
      <point x="237" y="190"/>
      <point x="235" y="217"/>
      <point x="235" y="233" type="curve"/>
      <point x="238" y="240"/>
      <point x="244" y="248"/>
      <point x="251" y="248" type="curve"/>
      <point x="257" y="247"/>
      <point x="265" y="242"/>
    </contour>
  </outline>
</glyph>
<glyph name="AE" format="1">
  <advance width="887"/>
  <unicode hex="00C6"/>
  <outline>
    <contour>
      <point x="408" y="286" type="curve"/>
      <point x="408" y="541" type="line"/>
      <point x="398" y="525"/>
      <point x="252" y="290"/>
      <point x="252" y="290" type="curve"/>
      <point x="252" y="290"/>
      <point x="251" y="286"/>
      <point x="253" y="286" type="curve" smooth="yes"/>
      <point x="276" y="284"/>
      <point x="307" y="284"/>
      <point x="330" y="284" type="curve" smooth="yes"/>
      <point x="360" y="284"/>
      <point x="385" y="284"/>
    </contour>
    <contour>
      <point x="466" y="656" type="curve" smooth="yes"/>
      <point x="534" y="656"/>
      <point x="705" y="664"/>
      <point x="789" y="664" type="curve"/>
      <point x="796" y="614"/>
      <point x="810" y="567"/>
      <point x="819" y="522" type="curve"/>
      <point x="816" y="519"/>
      <point x="805" y="517"/>
      <point x="798" y="517" type="curve" smooth="yes"/>
      <point x="791" y="517"/>
      <point x="785" y="519"/>
      <point x="783" y="524" type="curve" smooth="yes"/>
      <point x="761" y="592"/>
      <point x="728" y="620"/>
      <point x="671" y="620" type="curve" smooth="yes"/>
      <point x="586" y="620" type="line"/>
      <point x="568" y="620"/>
      <point x="531" y="619"/>
      <point x="527" y="609" type="curve" smooth="yes"/>
      <point x="522" y="595"/>
      <point x="521" y="571"/>
      <point x="521" y="543" type="curve" smooth="yes"/>
      <point x="521" y="362" type="line" smooth="yes"/>
      <point x="521" y="356"/>
      <point x="543" y="353"/>
      <point x="565" y="353" type="curve" smooth="yes"/>
      <point x="618" y="353" type="line" smooth="yes"/>
      <point x="696" y="353"/>
      <point x="701" y="362"/>
      <point x="717" y="424" type="curve" smooth="yes"/>
      <point x="718" y="429"/>
      <point x="723" y="432"/>
      <point x="730" y="432" type="curve" smooth="yes"/>
      <point x="737" y="432"/>
      <point x="746" y="429"/>
      <point x="749" y="426" type="curve"/>
      <point x="749" y="236" type="line"/>
      <point x="747" y="234"/>
      <point x="738" y="232"/>
      <point x="731" y="232" type="curve" smooth="yes"/>
      <point x="724" y="232"/>
      <point x="718" y="235"/>
      <point x="716" y="240" type="curve" smooth="yes"/>
      <point x="702" y="292"/>
      <point x="694" y="299"/>
      <point x="685" y="304" type="curve" smooth="yes"/>
      <point x="673" y="310"/>
      <point x="632" y="311"/>
      <point x="594" y="311" type="curve" smooth="yes"/>
      <point x="566" y="311"/>
      <point x="521" y="310"/>
      <point x="521" y="300" type="curve" smooth="yes"/>
      <point x="521" y="128" type="line" smooth="yes"/>
      <point x="521" y="118"/>
      <point x="522" y="66"/>
      <point x="529" y="54" type="curve" smooth="yes"/>
      <point x="539" y="42"/>
      <point x="563" y="40"/>
      <point x="597" y="40" type="curve" smooth="yes"/>
      <point x="654" y="40" type="line" smooth="yes"/>
      <point x="692" y="40"/>
      <point x="737" y="49"/>
      <point x="763" y="68" type="curve" smooth="yes"/>
      <point x="783" y="84"/>
      <point x="806" y="117"/>
      <point x="822" y="166" type="curve" smooth="yes"/>
      <point x="823" y="170"/>
      <point x="829" y="172"/>
      <point x="836" y="172" type="curve" smooth="yes"/>
      <point x="846" y="172"/>
      <point x="860" y="169"/>
      <point x="863" y="166" type="curve"/>
      <point x="844" y="112"/>
      <point x="816" y="41"/>
      <point x="809" y="-3" type="curve"/>
      <point x="733" y="-3"/>
      <point x="460" y="0"/>
      <point x="395" y="0" type="curve"/>
      <point x="359" y="3"/>
      <point x="334" y="12"/>
      <point x="336" y="16" type="curve"/>
      <point x="340" y="19"/>
      <point x="364" y="32"/>
      <point x="368" y="38" type="curve"/>
      <point x="378" y="48"/>
      <point x="403" y="69"/>
      <point x="405" y="97" type="curve"/>
      <point x="408" y="109"/>
      <point x="409" y="172"/>
      <point x="409" y="180" type="curve"/>
      <point x="393" y="180"/>
      <point x="379" y="240"/>
      <point x="369" y="240" type="curve"/>
      <point x="339" y="240"/>
      <point x="306" y="240"/>
      <point x="276" y="240" type="curve" smooth="yes"/>
      <point x="254" y="240"/>
      <point x="246" y="237"/>
      <point x="222" y="235" type="curve"/>
      <point x="221" y="235"/>
      <point x="200" y="204"/>
      <point x="192" y="190" type="curve"/>
      <point x="184" y="178"/>
      <point x="153" y="126"/>
      <point x="137" y="98" type="curve" smooth="yes"/>
      <point x="125" y="70"/>
      <point x="145" y="48"/>
      <point x="149" y="42" type="curve"/>
      <point x="151" y="26"/>
      <point x="180" y="13"/>
      <point x="182" y="11" type="curve"/>
      <point x="166" y="11"/>
      <point x="150" y="3"/>
      <point x="127" y="0" type="curve"/>
      <point x="84" y="1"/>
      <point x="64" y="1"/>
      <point x="24" y="-1" type="curve"/>
      <point x="-1" y="1"/>
      <point x="-7" y="10"/>
      <point x="-27" y="14" type="curve"/>
      <point x="-23" y="16"/>
      <point x="4" y="33"/>
      <point x="12" y="45" type="curve"/>
      <point x="29" y="59"/>
      <point x="49" y="72"/>
      <point x="65" y="90" type="curve"/>
      <point x="77" y="98"/>
      <point x="239" y="354"/>
      <point x="249" y="370" type="curve"/>
      <point x="387" y="596" type="line"/>
      <point x="385" y="606"/>
      <point x="365" y="610"/>
      <point x="359" y="614" type="curve"/>
      <point x="357" y="626"/>
      <point x="340" y="641"/>
      <point x="336" y="644" type="curve"/>
      <point x="356" y="646"/>
      <point x="412" y="656"/>
    </contour>
  </outline>
</glyph>
<glyph name="Eth" format="1">
  <advance width="739"/>
  <unicode hex="00D0"/>
  <outline>
    <contour>
      <point x="375" y="310" type="curve"/>
      <point x="346" y="310"/>
      <point x="56" y="310"/>
      <point x="42" y="310" type="curve"/>
      <point x="38" y="310"/>
      <point x="37" y="339"/>
      <point x="43" y="348" type="curve"/>
      <point x="72" y="348"/>
      <point x="361" y="348"/>
      <point x="375" y="348" type="curve"/>
      <point x="379" y="348"/>
      <point x="379" y="319"/>
    </contour>
    <component base="D" xOffset="3"/>
  </outline>
</glyph>
<glyph name="multiply" format="1">
  <advance width="465"/>
  <unicode hex="00D7"/>
  <outline>
    <contour>
      <point x="198" y="248" type="curve"/>
      <point x="196" y="250"/>
      <point x="55" y="390"/>
      <point x="55" y="390" type="curve"/>
      <point x="55" y="404"/>
      <point x="72" y="430"/>
      <point x="81" y="430" type="curve" smooth="yes"/>
      <point x="84" y="430"/>
      <point x="86" y="430"/>
      <point x="88" y="428" type="curve" smooth="yes"/>
      <point x="88" y="428"/>
      <point x="234" y="287"/>
      <point x="236" y="285" type="curve"/>
      <point x="380" y="428" type="line" smooth="yes"/>
      <point x="381" y="429"/>
      <point x="383" y="430"/>
      <point x="386" y="430" type="curve" smooth="yes"/>
      <point x="395" y="430"/>
      <point x="410" y="398"/>
      <point x="410" y="388" type="curve"/>
      <point x="410" y="388"/>
      <point x="274" y="253"/>
      <point x="271" y="250" type="curve"/>
      <point x="272" y="249"/>
      <point x="410" y="106"/>
      <point x="410" y="106" type="curve"/>
      <point x="410" y="91"/>
      <point x="397" y="64"/>
      <point x="386" y="64" type="curve" smooth="yes"/>
      <point x="384" y="64"/>
      <point x="381" y="64"/>
      <point x="379" y="66" type="curve" smooth="yes"/>
      <point x="379" y="66"/>
      <point x="234" y="211"/>
      <point x="233" y="212" type="curve"/>
      <point x="231" y="210"/>
      <point x="85" y="65"/>
      <point x="85" y="65" type="curve" smooth="yes"/>
      <point x="83" y="63"/>
      <point x="81" y="63"/>
      <point x="79" y="63" type="curve" smooth="yes"/>
      <point x="70" y="63"/>
      <point x="55" y="96"/>
      <point x="55" y="106" type="curve"/>
      <point x="55" y="106"/>
      <point x="194" y="244"/>
    </contour>
  </outline>
</glyph>
<glyph name="ntilde" format="1">
  <advance width="565"/>
  <unicode hex="00F1"/>
  <outline>
    <contour>
      <point x="366" y="703" type="move" smooth="yes"/>
    </contour>
    <component base="tildecomb" xOffset="99" yOffset="-8"/>
    <component base="n"/>
  </outline>
</glyph>
<glyph name="divide" format="1">
  <advance width="608"/>
  <unicode hex="00F7"/>
  <outline>
    <contour>
      <point x="248" y="435" type="curve" smooth="yes"/>
      <point x="248" y="466"/>
      <point x="273" y="491"/>
      <point x="304" y="491" type="curve" smooth="yes"/>
      <point x="335" y="491"/>
      <point x="360" y="466"/>
      <point x="360" y="435" type="curve" smooth="yes"/>
      <point x="360" y="404"/>
      <point x="335" y="379"/>
      <point x="304" y="379" type="curve" smooth="yes"/>
      <point x="273" y="379"/>
      <point x="248" y="404"/>
    </contour>
    <contour>
      <point x="248" y="60" type="curve" smooth="yes"/>
      <point x="248" y="91"/>
      <point x="273" y="116"/>
      <point x="304" y="116" type="curve" smooth="yes"/>
      <point x="335" y="116"/>
      <point x="360" y="91"/>
      <point x="360" y="60" type="curve" smooth="yes"/>
      <point x="360" y="29"/>
      <point x="335" y="4"/>
      <point x="304" y="4" type="curve" smooth="yes"/>
      <point x="273" y="4"/>
      <point x="248" y="29"/>
    </contour>
    <contour>
      <point x="70" y="221" type="line"/>
      <point x="68" y="221"/>
      <point x="64" y="224"/>
      <point x="64" y="234" type="curve" smooth="yes"/>
      <point x="64" y="238"/>
      <point x="68" y="268"/>
      <point x="78" y="278" type="curve"/>
      <point x="166" y="278"/>
      <point x="447" y="278"/>
      <point x="535" y="278" type="curve"/>
      <point x="540" y="278"/>
      <point x="544" y="272"/>
      <point x="544" y="265" type="curve" smooth="yes"/>
      <point x="544" y="247"/>
      <point x="537" y="230"/>
      <point x="529" y="221" type="curve"/>
    </contour>
  </outline>
</glyph>
<glyph name="oslash" format="1">
  <advance width="520"/>
  <unicode hex="00F8"/>
  <outline>
    <contour>
      <point x="403" y="434" type="line"/>
      <point x="409" y="432"/>
      <point x="433" y="421"/>
      <point x="431" y="417" type="curve"/>
      <point x="132" y="-18" type="line"/>
      <point x="126" y="-16"/>
      <point x="102" y="-4"/>
      <point x="104" y="0" type="curve"/>
    </contour>
    <component base="o"/>
  </outline>
</glyph>
<glyph name="thorn" format="1">
  <advance width="515"/>
  <unicode hex="00FE"/>
  <outline>
    <contour>
      <point x="292" y="443" type="curve" smooth="yes"/>
      <point x="414" y="443"/>
      <point x="481" y="331"/>
      <point x="481" y="233" type="curve" smooth="yes"/>
      <point x="481" y="92"/>
      <point x="353" y="-8"/>
      <point x="241" y="-8" type="curve" smooth="yes"/>
      <point x="214" y="-8"/>
      <point x="187" y="0"/>
      <point x="177" y="2" type="curve"/>
      <point x="175" y="2"/>
      <point x="174" y="-2"/>
      <point x="174" y="-12" type="curve" smooth="yes"/>
      <point x="174" y="-88" type="line" smooth="yes"/>
      <point x="174" y="-124"/>
      <point x="174" y="-154"/>
      <point x="180" y="-172" type="curve" smooth="yes"/>
      <point x="184" y="-184"/>
      <point x="232" y="-189"/>
      <point x="244" y="-189" type="curve"/>
      <point x="248" y="-195"/>
      <point x="248" y="-216"/>
      <point x="244" y="-222" type="curve"/>
      <point x="204" y="-219"/>
      <point x="162" y="-216"/>
      <point x="122" y="-216" type="curve" smooth="yes"/>
      <point x="81" y="-216"/>
      <point x="40" y="-219"/>
      <point x="-0" y="-222" type="curve"/>
      <point x="-5" y="-216"/>
      <point x="-5" y="-195"/>
      <point x="-0" y="-189" type="curve"/>
      <point x="12" y="-189"/>
      <point x="60" y="-184"/>
      <point x="64" y="-172" type="curve" smooth="yes"/>
      <point x="71" y="-154"/>
      <point x="70" y="-124"/>
      <point x="70" y="-88" type="curve" smooth="yes"/>
      <point x="70" y="558" type="line" smooth="yes"/>
      <point x="70" y="574"/>
      <point x="70" y="594"/>
      <point x="64" y="608" type="curve" smooth="yes"/>
      <point x="58" y="621"/>
      <point x="24" y="626"/>
      <point x="4" y="626" type="curve"/>
      <point x="2" y="626"/>
      <point x="0" y="653"/>
      <point x="4" y="655" type="curve"/>
      <point x="85" y="663"/>
      <point x="150" y="684"/>
      <point x="172" y="694" type="curve"/>
      <point x="178" y="694"/>
      <point x="185" y="684"/>
      <point x="185" y="678" type="curve"/>
      <point x="185" y="678"/>
      <point x="174" y="632"/>
      <point x="174" y="584" type="curve"/>
      <point x="174" y="500"/>
      <point x="174" y="401"/>
      <point x="174" y="389" type="curve" smooth="yes"/>
      <point x="174" y="388"/>
      <point x="174" y="385"/>
      <point x="175" y="384" type="curve" smooth="yes"/>
      <point x="176" y="383"/>
      <point x="177" y="383"/>
      <point x="178" y="384" type="curve" smooth="yes"/>
      <point x="206" y="410"/>
      <point x="256" y="443"/>
    </contour>
    <contour>
      <point x="243" y="377" type="curve" smooth="yes"/>
      <point x="204" y="377"/>
      <point x="174" y="354"/>
      <point x="174" y="344" type="curve" smooth="yes"/>
      <point x="174" y="98" type="line" smooth="yes"/>
      <point x="174" y="52"/>
      <point x="219" y="32"/>
      <point x="254" y="32" type="curve" smooth="yes"/>
      <point x="312" y="32"/>
      <point x="367" y="99"/>
      <point x="367" y="197" type="curve" smooth="yes"/>
      <point x="367" y="308"/>
      <point x="321" y="377"/>
    </contour>
  </outline>
</glyph>
<glyph name="Aogonek" format="1">
  <advance width="653"/>
  <unicode hex="0104"/>
  <outline>
    <contour>
      <point x="295" y="506" type="line"/>
      <point x="207" y="290" type="line"/>
      <point x="207" y="290"/>
      <point x="207" y="286"/>
      <point x="209" y="286" type="curve" smooth="yes"/>
      <point x="232" y="284"/>
      <point x="271" y="283"/>
      <point x="294" y="283" type="curve" smooth="yes"/>
      <point x="325" y="283"/>
      <point x="345" y="284"/>
      <point x="376" y="286" type="curve" smooth="yes"/>
      <point x="378" y="286"/>
      <point x="379" y="291"/>
      <point x="379" y="291" type="curve"/>
    </contour>
    <contour>
      <point x="655" y="-4" type="curve"/>
      <point x="642" y="-3"/>
      <point x="631" y="-2"/>
      <point x="616" y="-1" type="curve" smooth="yes"/>
      <point x="550" y="4"/>
      <point x="483" y="-68"/>
      <point x="483" y="-112" type="curve" smooth="yes"/>
      <point x="483" y="-130"/>
      <point x="492" y="-157"/>
      <point x="528" y="-157" type="curve" smooth="yes"/>
      <point x="568" y="-157"/>
      <point x="598" y="-122"/>
      <point x="606" y="-118" type="curve" smooth="yes"/>
      <point x="608" y="-118"/>
      <point x="611" y="-122"/>
      <point x="611" y="-130" type="curve" smooth="yes"/>
      <point x="611" y="-135"/>
      <point x="608" y="-148"/>
      <point x="605" y="-152" type="curve" smooth="yes"/>
      <point x="587" y="-176"/>
      <point x="541" y="-221"/>
      <point x="491" y="-221" type="curve" smooth="yes"/>
      <point x="447" y="-221"/>
      <point x="419" y="-184"/>
      <point x="419" y="-144" type="curve" smooth="yes"/>
      <point x="419" y="-92"/>
      <point x="484" y="-26"/>
      <point x="538" y="3" type="curve"/>
      <point x="536" y="3"/>
      <point x="535" y="3"/>
      <point x="533" y="3" type="curve" smooth="yes"/>
      <point x="487" y="3"/>
      <point x="441" y="-2"/>
      <point x="400" y="-4" type="curve"/>
      <point x="395" y="1"/>
      <point x="395" y="28"/>
      <point x="400" y="30" type="curve"/>
      <point x="414" y="30"/>
      <point x="446" y="35"/>
      <point x="458" y="45" type="curve" smooth="yes"/>
      <point x="462" y="49"/>
      <point x="464" y="54"/>
      <point x="464" y="60" type="curve" smooth="yes"/>
      <point x="464" y="80"/>
      <point x="401" y="234"/>
      <point x="401" y="234" type="curve"/>
      <point x="401" y="234"/>
      <point x="398" y="238"/>
      <point x="395" y="238" type="curve" smooth="yes"/>
      <point x="363" y="240"/>
      <point x="321" y="238"/>
      <point x="296" y="238" type="curve" smooth="yes"/>
      <point x="255" y="238"/>
      <point x="232" y="238"/>
      <point x="192" y="236" type="curve" smooth="yes"/>
      <point x="190" y="236"/>
      <point x="186" y="233"/>
      <point x="186" y="232" type="curve" smooth="yes"/>
      <point x="186" y="232"/>
      <point x="159" y="168"/>
      <point x="145" y="130" type="curve" smooth="yes"/>
      <point x="134" y="100"/>
      <point x="127" y="70"/>
      <point x="127" y="60" type="curve" smooth="yes"/>
      <point x="127" y="35"/>
      <point x="191" y="30"/>
      <point x="199" y="30" type="curve"/>
      <point x="203" y="25"/>
      <point x="202" y="1"/>
      <point x="200" y="-4" type="curve"/>
      <point x="162" y="-1"/>
      <point x="142" y="3"/>
      <point x="98" y="3" type="curve" smooth="yes"/>
      <point x="52" y="3"/>
      <point x="31" y="-1"/>
      <point x="-9" y="-4" type="curve"/>
      <point x="-13" y="0"/>
      <point x="-13" y="20"/>
      <point x="-10" y="29" type="curve"/>
      <point x="2" y="29"/>
      <point x="44" y="40"/>
      <point x="54" y="54" type="curve" smooth="yes"/>
      <point x="72" y="81"/>
      <point x="82" y="104"/>
      <point x="95" y="136" type="curve" smooth="yes"/>
      <point x="95" y="136"/>
      <point x="268" y="551"/>
      <point x="298" y="629" type="curve" smooth="yes"/>
      <point x="304" y="643"/>
      <point x="325" y="662"/>
      <point x="335" y="662" type="curve" smooth="yes"/>
      <point x="341" y="662"/>
      <point x="347" y="660"/>
      <point x="349" y="658" type="curve"/>
      <point x="553" y="137" type="line" smooth="yes"/>
      <point x="566" y="103"/>
      <point x="575" y="80"/>
      <point x="580" y="68" type="curve" smooth="yes"/>
      <point x="594" y="36"/>
      <point x="645" y="30"/>
      <point x="653" y="30" type="curve"/>
      <point x="658" y="22"/>
      <point x="657" y="0"/>
    </contour>
  </outline>
</glyph>
<glyph name="aogonek" format="1">
  <advance width="452"/>
  <unicode hex="0105"/>
  <outline>
    <contour>
      <point x="433" y="39" type="curve"/>
      <point x="425" y="32"/>
      <point x="405" y="16"/>
      <point x="385" y="6" type="curve" smooth="yes"/>
      <point x="331" y="-22"/>
      <point x="268" y="-64"/>
      <point x="268" y="-108" type="curve" smooth="yes"/>
      <point x="268" y="-126"/>
      <point x="277" y="-154"/>
      <point x="313" y="-154" type="curve" smooth="yes"/>
      <point x="353" y="-154"/>
      <point x="383" y="-119"/>
      <point x="391" y="-115" type="curve" smooth="yes"/>
      <point x="393" y="-115"/>
      <point x="396" y="-119"/>
      <point x="396" y="-127" type="curve" smooth="yes"/>
      <point x="396" y="-132"/>
      <point x="393" y="-144"/>
      <point x="390" y="-148" type="curve" smooth="yes"/>
      <point x="372" y="-172"/>
      <point x="326" y="-218"/>
      <point x="276" y="-218" type="curve" smooth="yes"/>
      <point x="232" y="-218"/>
      <point x="204" y="-180"/>
      <point x="204" y="-140" type="curve" smooth="yes"/>
      <point x="204" y="-87"/>
      <point x="264" y="-28"/>
      <point x="319" y="0" type="curve"/>
      <point x="298" y="10"/>
      <point x="280" y="32"/>
      <point x="275" y="52" type="curve"/>
      <point x="265" y="42"/>
      <point x="193" y="-8"/>
      <point x="157" y="-8" type="curve" smooth="yes"/>
      <point x="86" y="-8"/>
      <point x="33" y="48"/>
      <point x="33" y="110" type="curve" smooth="yes"/>
      <point x="33" y="150"/>
      <point x="61" y="182"/>
      <point x="85" y="190" type="curve" smooth="yes"/>
      <point x="132" y="206"/>
      <point x="225" y="241"/>
      <point x="265" y="257" type="curve"/>
      <point x="270" y="263"/>
      <point x="271" y="268"/>
      <point x="271" y="280" type="curve" smooth="yes"/>
      <point x="271" y="306" type="line" smooth="yes"/>
      <point x="271" y="354"/>
      <point x="240" y="404"/>
      <point x="198" y="404" type="curve" smooth="yes"/>
      <point x="162" y="404"/>
      <point x="149" y="374"/>
      <point x="141" y="332" type="curve" smooth="yes"/>
      <point x="135" y="304"/>
      <point x="120" y="286"/>
      <point x="90" y="286" type="curve" smooth="yes"/>
      <point x="66" y="286"/>
      <point x="47" y="306"/>
      <point x="47" y="330" type="curve" smooth="yes"/>
      <point x="47" y="338"/>
      <point x="51" y="353"/>
      <point x="57" y="363" type="curve"/>
      <point x="79" y="384"/>
      <point x="164" y="442"/>
      <point x="244" y="442" type="curve" smooth="yes"/>
      <point x="314" y="442"/>
      <point x="374" y="382"/>
      <point x="374" y="298" type="curve" smooth="yes"/>
      <point x="374" y="101" type="line" smooth="yes"/>
      <point x="374" y="74"/>
      <point x="383" y="57"/>
      <point x="401" y="57" type="curve" smooth="yes"/>
      <point x="417" y="57"/>
      <point x="428" y="66"/>
      <point x="432" y="68" type="curve"/>
      <point x="436" y="67"/>
      <point x="437" y="60"/>
      <point x="437" y="56" type="curve" smooth="yes"/>
      <point x="437" y="50"/>
      <point x="436" y="44"/>
    </contour>
    <contour>
      <point x="207" y="54" type="curve" smooth="yes"/>
      <point x="237" y="54"/>
      <point x="271" y="77"/>
      <point x="271" y="85" type="curve" smooth="yes"/>
      <point x="271" y="223" type="line"/>
      <point x="247" y="214"/>
      <point x="210" y="202"/>
      <point x="191" y="192" type="curve" smooth="yes"/>
      <point x="159" y="176"/>
      <point x="142" y="150"/>
      <point x="142" y="120" type="curve" smooth="yes"/>
      <point x="143" y="80"/>
      <point x="175" y="54"/>
    </contour>
  </outline>
</glyph>
<glyph name="eogonek" format="1">
  <advance width="446"/>
  <unicode hex="0119"/>
  <outline>
    <contour>
      <point x="356" y="31" type="curve" smooth="yes"/>
      <point x="295" y="-18"/>
      <point x="262" y="-61"/>
      <point x="262" y="-112" type="curve" smooth="yes"/>
      <point x="262" y="-130"/>
      <point x="272" y="-157"/>
      <point x="308" y="-157" type="curve" smooth="yes"/>
      <point x="348" y="-157"/>
      <point x="378" y="-122"/>
      <point x="386" y="-118" type="curve"/>
      <point x="388" y="-118"/>
      <point x="390" y="-122"/>
      <point x="390" y="-130" type="curve" smooth="yes"/>
      <point x="390" y="-135"/>
      <point x="388" y="-148"/>
      <point x="385" y="-152" type="curve" smooth="yes"/>
      <point x="367" y="-176"/>
      <point x="321" y="-221"/>
      <point x="271" y="-221" type="curve" smooth="yes"/>
      <point x="227" y="-221"/>
      <point x="198" y="-184"/>
      <point x="198" y="-144" type="curve" smooth="yes"/>
      <point x="198" y="-96"/>
      <point x="236" y="-39"/>
      <point x="271" y="-6" type="curve"/>
      <point x="262" y="-8"/>
      <point x="252" y="-8"/>
      <point x="242" y="-8" type="curve" smooth="yes"/>
      <point x="127" y="-8"/>
      <point x="36" y="76"/>
      <point x="36" y="200" type="curve" smooth="yes"/>
      <point x="36" y="330"/>
      <point x="144" y="442"/>
      <point x="246" y="442" type="curve" smooth="yes"/>
      <point x="372" y="442"/>
      <point x="408" y="348"/>
      <point x="408" y="299" type="curve" smooth="yes"/>
      <point x="408" y="273"/>
      <point x="400" y="255"/>
      <point x="383" y="254" type="curve" smooth="yes"/>
      <point x="333" y="250"/>
      <point x="179" y="246"/>
      <point x="136" y="245" type="curve"/>
      <point x="134" y="111"/>
      <point x="222" y="66"/>
      <point x="288" y="66" type="curve" smooth="yes"/>
      <point x="344" y="66"/>
      <point x="383" y="98"/>
      <point x="400" y="117" type="curve"/>
      <point x="404" y="116"/>
      <point x="410" y="108"/>
      <point x="410" y="101" type="curve" smooth="yes"/>
      <point x="410" y="95"/>
      <point x="407" y="86"/>
      <point x="405" y="82" type="curve" smooth="yes"/>
      <point x="397" y="69"/>
      <point x="379" y="49"/>
    </contour>
    <contour>
      <point x="140" y="283" type="curve"/>
      <point x="149" y="283"/>
      <point x="269" y="285"/>
      <point x="286" y="287" type="curve" smooth="yes"/>
      <point x="298" y="287"/>
      <point x="304" y="295"/>
      <point x="304" y="307" type="curve" smooth="yes"/>
      <point x="304" y="342"/>
      <point x="285" y="404"/>
      <point x="232" y="404" type="curve" smooth="yes"/>
      <point x="160" y="404"/>
      <point x="139" y="300"/>
    </contour>
  </outline>
</glyph>
<glyph name="Hbar" format="1">
  <advance width="736"/>
  <unicode hex="0126"/>
  <outline>
    <contour>
      <point x="676" y="488" type="curve"/>
      <point x="647" y="488"/>
      <point x="62" y="488"/>
      <point x="48" y="488" type="curve"/>
      <point x="44" y="488"/>
      <point x="43" y="517"/>
      <point x="49" y="526" type="curve"/>
      <point x="78" y="526"/>
      <point x="662" y="526"/>
      <point x="676" y="526" type="curve"/>
      <point x="680" y="526"/>
      <point x="680" y="497"/>
    </contour>
    <component base="H"/>
  </outline>
</glyph>
<glyph name="dotlessi" format="1">
  <advance width="294"/>
  <unicode hex="0131"/>
  <outline>
    <contour>
      <point x="206" y="317" type="curve"/>
      <point x="206" y="130" type="line" smooth="yes"/>
      <point x="206" y="96"/>
      <point x="206" y="64"/>
      <point x="212" y="46" type="curve" smooth="yes"/>
      <point x="216" y="34"/>
      <point x="260" y="29"/>
      <point x="272" y="29" type="curve"/>
      <point x="276" y="23"/>
      <point x="276" y="2"/>
      <point x="272" y="-4" type="curve"/>
      <point x="232" y="-1"/>
      <point x="193" y="2"/>
      <point x="153" y="2" type="curve" smooth="yes"/>
      <point x="113" y="2"/>
      <point x="72" y="-1"/>
      <point x="32" y="-4" type="curve"/>
      <point x="28" y="2"/>
      <point x="28" y="23"/>
      <point x="32" y="29" type="curve"/>
      <point x="44" y="29"/>
      <point x="91" y="34"/>
      <point x="95" y="46" type="curve" smooth="yes"/>
      <point x="101" y="64"/>
      <point x="102" y="94"/>
      <point x="102" y="130" type="curve" smooth="yes"/>
      <point x="102" y="282" type="line" smooth="yes"/>
      <point x="102" y="294"/>
      <point x="101" y="335"/>
      <point x="95" y="349" type="curve" smooth="yes"/>
      <point x="87" y="365"/>
      <point x="38" y="368"/>
      <point x="31" y="368" type="curve"/>
      <point x="29" y="370"/>
      <point x="27" y="394"/>
      <point x="31" y="396" type="curve"/>
      <point x="95" y="402"/>
      <point x="161" y="424"/>
      <point x="200" y="444" type="curve"/>
      <point x="206" y="443"/>
      <point x="214" y="431"/>
      <point x="214" y="427" type="curve"/>
      <point x="212" y="419"/>
      <point x="206" y="377"/>
      <point x="206" y="365" type="curve"/>
      <point x="206" y="354"/>
      <point x="206" y="320"/>
    </contour>
  </outline>
</glyph>
<glyph name="kgreenlandic" format="1">
  <advance width="567"/>
  <unicode hex="0138"/>
  <outline>
    <contour>
      <point x="103" y="130" type="curve" smooth="yes"/>
      <point x="102" y="282" type="line" smooth="yes"/>
      <point x="102" y="293"/>
      <point x="101" y="335"/>
      <point x="95" y="349" type="curve" smooth="yes"/>
      <point x="87" y="365"/>
      <point x="38" y="368"/>
      <point x="31" y="368" type="curve"/>
      <point x="29" y="370"/>
      <point x="28" y="394"/>
      <point x="32" y="396" type="curve"/>
      <point x="96" y="402"/>
      <point x="161" y="424"/>
      <point x="200" y="444" type="curve"/>
      <point x="206" y="443"/>
      <point x="214" y="431"/>
      <point x="214" y="427" type="curve"/>
      <point x="212" y="419"/>
      <point x="206" y="377"/>
      <point x="206" y="365" type="curve"/>
      <point x="206" y="354"/>
      <point x="206" y="320"/>
      <point x="206" y="317" type="curve"/>
      <point x="206" y="236" type="line"/>
      <point x="223" y="242"/>
      <point x="250" y="262"/>
      <point x="284" y="292" type="curve" smooth="yes"/>
      <point x="345" y="344"/>
      <point x="374" y="369"/>
      <point x="374" y="381" type="curve" smooth="yes"/>
      <point x="374" y="395"/>
      <point x="332" y="399"/>
      <point x="318" y="400" type="curve"/>
      <point x="314" y="408"/>
      <point x="315" y="430"/>
      <point x="320" y="432" type="curve"/>
      <point x="334" y="430"/>
      <point x="397" y="428"/>
      <point x="434" y="428" type="curve" smooth="yes"/>
      <point x="469" y="428"/>
      <point x="499" y="430"/>
      <point x="533" y="432" type="curve"/>
      <point x="538" y="424"/>
      <point x="536" y="404"/>
      <point x="532" y="400" type="curve"/>
      <point x="510" y="398"/>
      <point x="468" y="390"/>
      <point x="444" y="374" type="curve" smooth="yes"/>
      <point x="428" y="362"/>
      <point x="357" y="304"/>
      <point x="297" y="252" type="curve"/>
      <point x="370" y="170"/>
      <point x="418" y="118"/>
      <point x="458" y="76" type="curve" smooth="yes"/>
      <point x="498" y="35"/>
      <point x="534" y="31"/>
      <point x="563" y="31" type="curve"/>
      <point x="567" y="24"/>
      <point x="566" y="8"/>
      <point x="564" y="4" type="curve"/>
      <point x="552" y="0"/>
      <point x="513" y="-5"/>
      <point x="481" y="-5" type="curve" smooth="yes"/>
      <point x="423" y="-5"/>
      <point x="373" y="20"/>
      <point x="351" y="46" type="curve" smooth="yes"/>
      <point x="351" y="46"/>
      <point x="273" y="130"/>
      <point x="220" y="192" type="curve" smooth="yes"/>
      <point x="216" y="198"/>
      <point x="207" y="202"/>
      <point x="207" y="202" type="curve"/>
      <point x="207" y="130" type="line" smooth="yes"/>
      <point x="207" y="94"/>
      <point x="207" y="64"/>
      <point x="213" y="46" type="curve" smooth="yes"/>
      <point x="217" y="34"/>
      <point x="264" y="29"/>
      <point x="276" y="29" type="curve"/>
      <point x="280" y="23"/>
      <point x="280" y="2"/>
      <point x="276" y="-4" type="curve"/>
      <point x="236" y="-1"/>
      <point x="194" y="2"/>
      <point x="154" y="2" type="curve" smooth="yes"/>
      <point x="114" y="2"/>
      <point x="73" y="-1"/>
      <point x="33" y="-4" type="curve"/>
      <point x="29" y="2"/>
      <point x="29" y="23"/>
      <point x="33" y="29" type="curve"/>
      <point x="45" y="29"/>
      <point x="92" y="34"/>
      <point x="96" y="46" type="curve" smooth="yes"/>
      <point x="103" y="64"/>
      <point x="103" y="94"/>
    </contour>
  </outline>
</glyph>
<glyph name="Lslash" format="1">
  <advance width="575"/>
  <unicode hex="0141"/>
  <outline>
    <contour>
      <point x="25" y="183" type="line" smooth="yes"/>
      <point x="20" y="179"/>
      <point x="20" y="227"/>
      <point x="25" y="232" type="curve" smooth="yes"/>
      <point x="148" y="312.877" type="line"/>
      <point x="190" y="329.493" type="line"/>
      <point x="390" y="461" type="line" smooth="yes"/>
      <point x="396" y="465"/>
      <point x="395" y="416"/>
      <point x="390" y="412" type="curve" smooth="yes"/>
      <point x="205" y="287.356" type="line"/>
      <point x="156" y="267.137" type="line"/>
    </contour>
    <component base="L" xOffset="4"/>
  </outline>
</glyph>
<glyph name="lslash" format="1">
  <advance width="280"/>
  <unicode hex="0142"/>
  <outline>
    <contour>
      <point x="34" y="235" type="line"/>
      <point x="28" y="241"/>
      <point x="14" y="261"/>
      <point x="18" y="265" type="curve"/>
      <point x="259" y="433" type="line"/>
      <point x="265" y="427"/>
      <point x="281" y="408"/>
      <point x="277" y="404" type="curve"/>
    </contour>
    <component base="l"/>
  </outline>
</glyph>
<glyph name="OE" format="1">
  <advance width="1016"/>
  <unicode hex="0152"/>
  <outline>
    <contour>
      <point x="593" y="656" type="curve" smooth="yes"/>
      <point x="661" y="656"/>
      <point x="833" y="664"/>
      <point x="917" y="664" type="curve"/>
      <point x="924" y="614"/>
      <point x="938" y="567"/>
      <point x="947" y="522" type="curve"/>
      <point x="944" y="519"/>
      <point x="932" y="517"/>
      <point x="925" y="517" type="curve" smooth="yes"/>
      <point x="918" y="517"/>
      <point x="913" y="519"/>
      <point x="911" y="524" type="curve" smooth="yes"/>
      <point x="889" y="592"/>
      <point x="856" y="620"/>
      <point x="799" y="620" type="curve" smooth="yes"/>
      <point x="714" y="620" type="line" smooth="yes"/>
      <point x="696" y="620"/>
      <point x="659" y="619"/>
      <point x="655" y="609" type="curve" smooth="yes"/>
      <point x="650" y="595"/>
      <point x="650" y="571"/>
      <point x="650" y="543" type="curve" smooth="yes"/>
      <point x="650" y="362" type="line" smooth="yes"/>
      <point x="650" y="356"/>
      <point x="671" y="353"/>
      <point x="693" y="353" type="curve" smooth="yes"/>
      <point x="745" y="353" type="line" smooth="yes"/>
      <point x="823" y="353"/>
      <point x="829" y="362"/>
      <point x="845" y="424" type="curve" smooth="yes"/>
      <point x="846" y="429"/>
      <point x="851" y="432"/>
      <point x="858" y="432" type="curve" smooth="yes"/>
      <point x="865" y="432"/>
      <point x="874" y="429"/>
      <point x="877" y="426" type="curve"/>
      <point x="877" y="236" type="line"/>
      <point x="875" y="234"/>
      <point x="866" y="232"/>
      <point x="859" y="232" type="curve" smooth="yes"/>
      <point x="852" y="232"/>
      <point x="846" y="235"/>
      <point x="844" y="240" type="curve" smooth="yes"/>
      <point x="830" y="292"/>
      <point x="822" y="299"/>
      <point x="813" y="304" type="curve" smooth="yes"/>
      <point x="801" y="310"/>
      <point x="759" y="311"/>
      <point x="721" y="311" type="curve" smooth="yes"/>
      <point x="693" y="311"/>
      <point x="650" y="310"/>
      <point x="650" y="300" type="curve" smooth="yes"/>
      <point x="650" y="128" type="line" smooth="yes"/>
      <point x="650" y="118"/>
      <point x="650" y="66"/>
      <point x="657" y="54" type="curve" smooth="yes"/>
      <point x="667" y="42"/>
      <point x="691" y="39"/>
      <point x="725" y="39" type="curve"/>
      <point x="781" y="39" type="line" smooth="yes"/>
      <point x="819" y="39"/>
      <point x="865" y="49"/>
      <point x="891" y="68" type="curve" smooth="yes"/>
      <point x="911" y="84"/>
      <point x="933" y="117"/>
      <point x="949" y="166" type="curve" smooth="yes"/>
      <point x="950" y="170"/>
      <point x="956" y="172"/>
      <point x="963" y="172" type="curve" smooth="yes"/>
      <point x="973" y="172"/>
      <point x="988" y="169"/>
      <point x="991" y="166" type="curve"/>
      <point x="972" y="112"/>
      <point x="944" y="41"/>
      <point x="937" y="-3" type="curve"/>
      <point x="869" y="-3"/>
      <point x="725" y="-1"/>
      <point x="591" y="-1" type="curve" smooth="yes"/>
      <point x="534" y="-1"/>
      <point x="484" y="-2"/>
      <point x="463" y="-3" type="curve"/>
      <point x="445" y="-3"/>
      <point x="471" y="-5"/>
      <point x="371" y="-5" type="curve" smooth="yes"/>
      <point x="195" y="-5"/>
      <point x="45" y="141"/>
      <point x="45" y="328" type="curve" smooth="yes"/>
      <point x="45" y="515"/>
      <point x="201" y="665"/>
      <point x="373" y="665" type="curve" smooth="yes"/>
      <point x="435" y="665"/>
      <point x="539" y="656"/>
    </contour>
    <contour>
      <point x="354" y="626" type="curve" smooth="yes"/>
      <point x="222" y="626"/>
      <point x="170" y="484"/>
      <point x="170" y="356" type="curve"/>
      <point x="170" y="202"/>
      <point x="241" y="32"/>
      <point x="393" y="32" type="curve"/>
      <point x="437" y="32"/>
      <point x="492" y="39"/>
      <point x="513" y="68" type="curve" smooth="yes"/>
      <point x="532" y="94"/>
      <point x="536" y="122"/>
      <point x="536" y="170" type="curve" smooth="yes"/>
      <point x="536" y="484" type="line" smooth="yes"/>
      <point x="536" y="523"/>
      <point x="528" y="560"/>
      <point x="502" y="584" type="curve" smooth="yes"/>
      <point x="474" y="611"/>
      <point x="428" y="626"/>
    </contour>
  </outline>
</glyph>
<glyph name="tbar" format="1">
  <advance width="330"/>
  <unicode hex="0167"/>
  <outline>
    <contour>
      <point x="19" y="326" type="curve"/>
      <point x="48" y="326"/>
      <point x="286" y="326"/>
      <point x="300" y="326" type="curve"/>
      <point x="303" y="326"/>
      <point x="305" y="322"/>
      <point x="305" y="318" type="curve"/>
      <point x="305" y="311"/>
      <point x="303" y="297"/>
      <point x="300" y="290" type="curve"/>
      <point x="271" y="290"/>
      <point x="33" y="290"/>
      <point x="19" y="290" type="curve"/>
      <point x="16" y="290"/>
      <point x="14" y="296"/>
      <point x="14" y="300" type="curve"/>
      <point x="14" y="307"/>
      <point x="15" y="320"/>
    </contour>
    <component base="t" xOffset="1"/>
  </outline>
</glyph>
<glyph name="uni0237" format="1">
  <advance width="257"/>
  <unicode hex="0237"/>
  <outline>
    <contour>
      <point x="-17" y="-202" type="curve"/>
      <point x="13" y="-180"/>
      <point x="87" y="-132"/>
      <point x="87" y="54" type="curve" smooth="yes"/>
      <point x="87" y="282" type="line" smooth="yes"/>
      <point x="87" y="294"/>
      <point x="86" y="335"/>
      <point x="80" y="349" type="curve" smooth="yes"/>
      <point x="72" y="365"/>
      <point x="23" y="368"/>
      <point x="16" y="368" type="curve"/>
      <point x="14" y="370"/>
      <point x="13" y="394"/>
      <point x="17" y="396" type="curve"/>
      <point x="81" y="402"/>
      <point x="147" y="424"/>
      <point x="186" y="444" type="curve"/>
      <point x="192" y="443"/>
      <point x="200" y="431"/>
      <point x="200" y="427" type="curve"/>
      <point x="198" y="419"/>
      <point x="191" y="379"/>
      <point x="191" y="365" type="curve"/>
      <point x="191" y="354"/>
      <point x="191" y="319"/>
      <point x="191" y="316" type="curve"/>
      <point x="191" y="94" type="line"/>
      <point x="191" y="-44"/>
      <point x="136" y="-128"/>
      <point x="82" y="-172" type="curve" smooth="yes"/>
      <point x="50" y="-198"/>
      <point x="4" y="-217"/>
      <point x="-11" y="-217" type="curve"/>
      <point x="-15" y="-214"/>
      <point x="-17" y="-206"/>
    </contour>
  </outline>
</glyph>
<glyph name="uni02BE" format="1">
  <advance width="189"/>
  <unicode hex="02BE"/>
  <outline>
    <contour>
      <point x="31" y="700" type="curve"/>
      <point x="107" y="700"/>
      <point x="159" y="636"/>
      <point x="159" y="574" type="curve" smooth="yes"/>
      <point x="159" y="502"/>
      <point x="107" y="443"/>
      <point x="30" y="443" type="curve"/>
      <point x="29" y="453"/>
      <point x="29" y="462"/>
      <point x="30" y="472" type="curve"/>
      <point x="76" y="472"/>
      <point x="107" y="531"/>
      <point x="107" y="574" type="curve" smooth="yes"/>
      <point x="107" y="626"/>
      <point x="77" y="672"/>
      <point x="31" y="672" type="curve"/>
      <point x="28" y="682"/>
      <point x="30" y="690"/>
    </contour>
  </outline>
</glyph>
<glyph name="gravecomb" format="1">
  <advance width="251"/>
  <unicode hex="0300"/>
  <outline>
    <contour>
      <point x="46" y="659" type="curve" smooth="yes"/>
      <point x="46" y="665"/>
      <point x="55" y="685"/>
      <point x="90" y="685" type="curve" smooth="yes"/>
      <point x="104" y="685"/>
      <point x="119" y="681"/>
      <point x="124" y="676" type="curve" smooth="yes"/>
      <point x="161" y="633"/>
      <point x="216" y="543"/>
      <point x="216" y="538" type="curve" smooth="yes"/>
      <point x="216" y="532"/>
      <point x="209" y="523"/>
      <point x="202" y="523" type="curve" smooth="yes"/>
      <point x="192" y="523"/>
      <point x="46" y="620"/>
    </contour>
  </outline>
</glyph>
<glyph name="uni0302" format="1">
  <advance width="365"/>
  <unicode hex="0302"/>
  <outline>
    <contour>
      <point x="266" y="492" type="curve" smooth="yes"/>
      <point x="255" y="492"/>
      <point x="193" y="538"/>
      <point x="165" y="562" type="curve"/>
      <point x="137" y="537"/>
      <point x="77" y="492"/>
      <point x="66" y="492" type="curve" smooth="yes"/>
      <point x="60" y="492"/>
      <point x="56" y="508"/>
      <point x="56" y="516" type="curve"/>
      <point x="63" y="524"/>
      <point x="83" y="544"/>
      <point x="116" y="586" type="curve" smooth="yes"/>
      <point x="134" y="608"/>
      <point x="144" y="625"/>
      <point x="154" y="641" type="curve" smooth="yes"/>
      <point x="158" y="648"/>
      <point x="160" y="650"/>
      <point x="165" y="650" type="curve"/>
      <point x="170" y="650"/>
      <point x="172" y="647"/>
      <point x="176" y="641" type="curve" smooth="yes"/>
      <point x="187" y="625"/>
      <point x="196" y="608"/>
      <point x="212" y="588" type="curve" smooth="yes"/>
      <point x="246" y="544"/>
      <point x="270" y="521"/>
      <point x="274" y="516" type="curve"/>
      <point x="274" y="506"/>
      <point x="272" y="492"/>
    </contour>
  </outline>
</glyph>
<glyph name="tildecomb" format="1">
  <advance width="693"/>
  <unicode hex="0303"/>
  <outline>
    <contour>
      <point x="138" y="622" type="curve" smooth="yes"/>
      <point x="166" y="622"/>
      <point x="185" y="607"/>
      <point x="205" y="594" type="curve" smooth="yes"/>
      <point x="226" y="580"/>
      <point x="254" y="566"/>
      <point x="270" y="566" type="curve" smooth="yes"/>
      <point x="310" y="566"/>
      <point x="323" y="608"/>
      <point x="331" y="612" type="curve"/>
      <point x="337" y="612"/>
      <point x="338" y="605"/>
      <point x="338" y="601" type="curve" smooth="yes"/>
      <point x="338" y="585"/>
      <point x="328" y="567"/>
      <point x="322" y="556" type="curve" smooth="yes"/>
      <point x="304" y="528"/>
      <point x="280" y="512"/>
      <point x="254" y="512" type="curve" smooth="yes"/>
      <point x="226" y="512"/>
      <point x="208" y="525"/>
      <point x="188" y="538" type="curve" smooth="yes"/>
      <point x="167" y="552"/>
      <point x="142" y="568"/>
      <point x="122" y="568" type="curve" smooth="yes"/>
      <point x="82" y="568"/>
      <point x="73" y="525"/>
      <point x="65" y="521" type="curve"/>
      <point x="59" y="521"/>
      <point x="56" y="530"/>
      <point x="56" y="534" type="curve" smooth="yes"/>
      <point x="56" y="550"/>
      <point x="64" y="567"/>
      <point x="70" y="578" type="curve" smooth="yes"/>
      <point x="88" y="606"/>
      <point x="112" y="622"/>
    </contour>
  </outline>
</glyph>
<glyph name="uni0304" format="1">
  <advance width="415"/>
  <unicode hex="0304"/>
  <outline>
    <contour>
      <point x="69" y="567" type="curve" smooth="yes"/>
      <point x="69" y="581"/>
      <point x="74" y="602"/>
      <point x="81" y="602" type="curve" smooth="yes"/>
      <point x="316" y="602" type="line" smooth="yes"/>
      <point x="318" y="602"/>
      <point x="322" y="601"/>
      <point x="322" y="594" type="curve" smooth="yes"/>
      <point x="322" y="578"/>
      <point x="314" y="567"/>
      <point x="312" y="558" type="curve"/>
      <point x="73" y="558" type="line"/>
      <point x="73" y="558"/>
      <point x="69" y="561"/>
    </contour>
  </outline>
</glyph>
<glyph name="uni0306" format="1">
  <advance width="254"/>
  <unicode hex="0306"/>
  <outline>
    <contour>
      <point x="219" y="635" type="curve"/>
      <point x="226" y="635"/>
      <point x="239" y="623"/>
      <point x="239" y="617" type="curve" smooth="yes"/>
      <point x="239" y="615"/>
      <point x="239" y="612"/>
      <point x="238" y="610" type="curve" smooth="yes"/>
      <point x="224" y="553"/>
      <point x="182" y="515"/>
      <point x="129" y="515" type="curve" smooth="yes"/>
      <point x="76" y="515"/>
      <point x="30" y="553"/>
      <point x="16" y="610" type="curve" smooth="yes"/>
      <point x="15" y="612"/>
      <point x="15" y="615"/>
      <point x="15" y="617" type="curve" smooth="yes"/>
      <point x="15" y="623"/>
      <point x="27" y="635"/>
      <point x="34" y="635" type="curve"/>
      <point x="41" y="611"/>
      <point x="77" y="566"/>
      <point x="129" y="566" type="curve" smooth="yes"/>
      <point x="183" y="566"/>
      <point x="211" y="611"/>
    </contour>
  </outline>
</glyph>
<glyph name="uni0307" format="1">
  <advance width="297"/>
  <unicode hex="0307"/>
  <outline>
    <contour>
      <point x="81" y="567" type="curve" smooth="yes"/>
      <point x="81" y="599"/>
      <point x="108" y="626"/>
      <point x="140" y="626" type="curve" smooth="yes"/>
      <point x="172" y="626"/>
      <point x="198" y="599"/>
      <point x="198" y="567" type="curve" smooth="yes"/>
      <point x="198" y="535"/>
      <point x="172" y="508"/>
      <point x="140" y="508" type="curve" smooth="yes"/>
      <point x="108" y="508"/>
      <point x="81" y="535"/>
    </contour>
  </outline>
</glyph>
<glyph name="uni0308" format="1">
  <advance width="354"/>
  <unicode hex="0308"/>
  <outline>
    <contour>
      <point x="268" y="584" type="curve" smooth="yes"/>
      <point x="300" y="584"/>
      <point x="325" y="558"/>
      <point x="325" y="526" type="curve" smooth="yes"/>
      <point x="325" y="494"/>
      <point x="299" y="468"/>
      <point x="267" y="468" type="curve" smooth="yes"/>
      <point x="235" y="468"/>
      <point x="209" y="494"/>
      <point x="209" y="526" type="curve" smooth="yes"/>
      <point x="209" y="558"/>
      <point x="236" y="584"/>
    </contour>
    <contour>
      <point x="82" y="584" type="curve" smooth="yes"/>
      <point x="114" y="584"/>
      <point x="139" y="558"/>
      <point x="139" y="526" type="curve" smooth="yes"/>
      <point x="139" y="494"/>
      <point x="114" y="468"/>
      <point x="82" y="468" type="curve" smooth="yes"/>
      <point x="50" y="468"/>
      <point x="23" y="494"/>
      <point x="23" y="526" type="curve" smooth="yes"/>
      <point x="23" y="558"/>
      <point x="50" y="584"/>
    </contour>
  </outline>
</glyph>
<glyph name="hookabovecomb" format="1">
  <advance width="181"/>
  <unicode hex="0309"/>
  <outline>
    <contour>
      <point x="116" y="665" type="curve" smooth="yes"/>
      <point x="154" y="665"/>
      <point x="178" y="642"/>
      <point x="178" y="610" type="curve" smooth="yes"/>
      <point x="178" y="575"/>
      <point x="152" y="550"/>
      <point x="127" y="540" type="curve" smooth="yes"/>
      <point x="107" y="532"/>
      <point x="97" y="526"/>
      <point x="97" y="514" type="curve"/>
      <point x="97" y="509"/>
      <point x="100" y="503"/>
      <point x="102" y="500" type="curve"/>
      <point x="102" y="496"/>
      <point x="84" y="489"/>
      <point x="74" y="489" type="curve"/>
      <point x="68" y="491"/>
      <point x="52" y="502"/>
      <point x="52" y="514" type="curve"/>
      <point x="52" y="540"/>
      <point x="81" y="552"/>
      <point x="97" y="560" type="curve" smooth="yes"/>
      <point x="119" y="570"/>
      <point x="130" y="582"/>
      <point x="130" y="600" type="curve" smooth="yes"/>
      <point x="130" y="614"/>
      <point x="124" y="631"/>
      <point x="104" y="631" type="curve" smooth="yes"/>
      <point x="82" y="631"/>
      <point x="72" y="618"/>
      <point x="72" y="595" type="curve" smooth="yes"/>
      <point x="72" y="579"/>
      <point x="50" y="574"/>
      <point x="37" y="574" type="curve" smooth="yes"/>
      <point x="29" y="574"/>
      <point x="18" y="579"/>
      <point x="18" y="587" type="curve" smooth="yes"/>
      <point x="18" y="629"/>
      <point x="70" y="665"/>
    </contour>
  </outline>
</glyph>
<glyph name="uni030A" format="1">
  <advance width="362"/>
  <unicode hex="030A"/>
  <outline>
    <contour>
      <point x="121" y="600" type="curve" smooth="yes"/>
      <point x="121" y="570"/>
      <point x="145" y="546"/>
      <point x="175" y="546" type="curve" smooth="yes"/>
      <point x="205" y="546"/>
      <point x="228" y="570"/>
      <point x="228" y="600" type="curve" smooth="yes"/>
      <point x="228" y="630"/>
      <point x="205" y="655"/>
      <point x="175" y="655" type="curve" smooth="yes"/>
      <point x="145" y="655"/>
      <point x="121" y="630"/>
    </contour>
    <contour>
      <point x="81" y="600" type="curve" smooth="yes"/>
      <point x="81" y="652"/>
      <point x="124" y="694"/>
      <point x="175" y="694" type="curve" smooth="yes"/>
      <point x="226" y="694"/>
      <point x="267" y="652"/>
      <point x="267" y="600" type="curve" smooth="yes"/>
      <point x="267" y="548"/>
      <point x="226" y="506"/>
      <point x="175" y="506" type="curve" smooth="yes"/>
      <point x="124" y="506"/>
      <point x="81" y="548"/>
    </contour>
  </outline>
</glyph>
<glyph name="dotbelowcomb" format="1">
  <advance width="296"/>
  <unicode hex="0323"/>
  <outline>
    <contour>
      <point x="89" y="-100" type="curve" smooth="yes"/>
      <point x="89" y="-66"/>
      <point x="117" y="-38"/>
      <point x="151" y="-38" type="curve" smooth="yes"/>
      <point x="185" y="-38"/>
      <point x="213" y="-66"/>
      <point x="213" y="-100" type="curve" smooth="yes"/>
      <point x="213" y="-134"/>
      <point x="185" y="-162"/>
      <point x="151" y="-162" type="curve" smooth="yes"/>
      <point x="117" y="-162"/>
      <point x="89" y="-134"/>
    </contour>
  </outline>
</glyph>
<glyph name="uni0327" format="1">
  <advance width="464"/>
  <unicode hex="0327"/>
  <outline>
    <contour>
      <point x="228" y="-28" type="line"/>
      <point x="228" y="-28"/>
      <point x="246" y="-27"/>
      <point x="250" y="-27" type="curve"/>
      <point x="278" y="-27"/>
      <point x="300" y="-51"/>
      <point x="300" y="-77" type="curve" smooth="yes"/>
      <point x="300" y="-124"/>
      <point x="260" y="-154"/>
      <point x="204" y="-154" type="curve" smooth="yes"/>
      <point x="187" y="-154"/>
      <point x="169" y="-148"/>
      <point x="163" y="-142" type="curve"/>
      <point x="162" y="-138"/>
      <point x="160" y="-131"/>
      <point x="160" y="-126" type="curve" smooth="yes"/>
      <point x="160" y="-119"/>
      <point x="167" y="-112"/>
      <point x="171" y="-112" type="curve" smooth="yes"/>
      <point x="179" y="-112"/>
      <point x="195" y="-126"/>
      <point x="214" y="-126" type="curve" smooth="yes"/>
      <point x="242" y="-126"/>
      <point x="256" y="-111"/>
      <point x="256" y="-95" type="curve" smooth="yes"/>
      <point x="256" y="-76"/>
      <point x="243" y="-64"/>
      <point x="228" y="-64" type="curve" smooth="yes"/>
      <point x="220" y="-64"/>
      <point x="210" y="-66"/>
      <point x="200" y="-70" type="curve" smooth="yes"/>
      <point x="198" y="-70"/>
      <point x="186" y="-60"/>
      <point x="188" y="-56" type="curve" smooth="yes"/>
      <point x="197" y="-41"/>
      <point x="210" y="-17"/>
      <point x="218" y="-3" type="curve"/>
      <point x="244" y="-3" type="line"/>
    </contour>
  </outline>
</glyph>
<glyph name="uni2011" format="1">
  <advance width="317"/>
  <unicode hex="2011"/>
  <outline>
    <contour>
      <point x="31" y="207" type="curve" smooth="yes"/>
      <point x="31" y="255"/>
      <point x="40" y="264"/>
      <point x="43" y="264" type="curve" smooth="yes"/>
      <point x="44" y="264" type="line"/>
      <point x="285" y="276" type="line"/>
      <point x="286" y="276" type="line" smooth="yes"/>
      <point x="288" y="276"/>
      <point x="292" y="275"/>
      <point x="292" y="267" type="curve" smooth="yes"/>
      <point x="292" y="218"/>
      <point x="279" y="207"/>
      <point x="279" y="207" type="curve"/>
      <point x="38" y="196" type="line"/>
      <point x="38" y="196"/>
      <point x="31" y="195"/>
    </contour>
  </outline>
</glyph>
<glyph name="emdash" format="1">
  <advance width="896"/>
  <unicode hex="2014"/>
  <outline>
    <contour>
      <point x="55" y="211" type="curve" smooth="yes"/>
      <point x="55" y="213"/>
      <point x="58" y="270"/>
      <point x="69" y="270" type="curve" smooth="yes"/>
      <point x="832" y="270" type="line" smooth="yes"/>
      <point x="834" y="270"/>
      <point x="838" y="269"/>
      <point x="838" y="261" type="curve" smooth="yes"/>
      <point x="838" y="243"/>
      <point x="831" y="213"/>
      <point x="830" y="209" type="curve" smooth="yes"/>
      <point x="828" y="203"/>
      <point x="822" y="202"/>
      <point x="822" y="202" type="curve"/>
      <point x="61" y="202" type="line"/>
      <point x="61" y="202"/>
      <point x="55" y="201"/>
    </contour>
  </outline>
</glyph>
<glyph name="afii00208" format="1">
  <advance width="1076"/>
  <unicode hex="2015"/>
  <outline>
    <contour>
      <point x="26" y="211" type="curve" smooth="yes"/>
      <point x="26" y="213"/>
      <point x="29" y="270"/>
      <point x="40" y="270" type="curve" smooth="yes"/>
      <point x="1044" y="270" type="line"/>
      <point x="1045" y="270"/>
      <point x="1050" y="269"/>
      <point x="1050" y="261" type="curve" smooth="yes"/>
      <point x="1050" y="243"/>
      <point x="1043" y="213"/>
      <point x="1042" y="209" type="curve" smooth="yes"/>
      <point x="1040" y="203"/>
      <point x="1034" y="202"/>
      <point x="1034" y="202" type="curve"/>
      <point x="32" y="202" type="line"/>
      <point x="32" y="202"/>
      <point x="26" y="201"/>
    </contour>
  </outline>
</glyph>
<glyph name="quoteleft" format="1">
  <advance width="181"/>
  <unicode hex="2018"/>
  <outline>
    <contour>
      <point x="39" y="555" type="curve" smooth="yes"/>
      <point x="39" y="649"/>
      <point x="140" y="706"/>
      <point x="149" y="706" type="curve" smooth="yes"/>
      <point x="157" y="706"/>
      <point x="165" y="699"/>
      <point x="169" y="688" type="curve"/>
      <point x="109" y="652"/>
      <point x="104" y="615"/>
      <point x="104" y="606" type="curve" smooth="yes"/>
      <point x="104" y="586"/>
      <point x="116" y="570"/>
      <point x="126" y="558" type="curve" smooth="yes"/>
      <point x="136" y="546"/>
      <point x="146" y="537"/>
      <point x="146" y="524" type="curve" smooth="yes"/>
      <point x="146" y="500"/>
      <point x="114" y="478"/>
      <point x="82" y="478" type="curve" smooth="yes"/>
      <point x="75" y="478"/>
      <point x="62" y="481"/>
      <point x="54" y="485" type="curve"/>
      <point x="45" y="498"/>
      <point x="39" y="527"/>
    </contour>
  </outline>
</glyph>
<glyph name="quotereversed" format="1">
  <advance width="189"/>
  <unicode hex="201B"/>
  <outline>
    <contour>
      <point x="33" y="630" type="curve" smooth="yes"/>
      <point x="33" y="658"/>
      <point x="38" y="687"/>
      <point x="47" y="700" type="curve"/>
      <point x="55" y="704"/>
      <point x="68" y="707"/>
      <point x="75" y="707" type="curve" smooth="yes"/>
      <point x="107" y="707"/>
      <point x="138" y="684"/>
      <point x="138" y="660" type="curve" smooth="yes"/>
      <point x="138" y="647"/>
      <point x="129" y="638"/>
      <point x="119" y="626" type="curve" smooth="yes"/>
      <point x="109" y="614"/>
      <point x="97" y="600"/>
      <point x="97" y="580" type="curve" smooth="yes"/>
      <point x="97" y="571"/>
      <point x="102" y="533"/>
      <point x="162" y="497" type="curve"/>
      <point x="158" y="486"/>
      <point x="149" y="479"/>
      <point x="141" y="479" type="curve" smooth="yes"/>
      <point x="132" y="479"/>
      <point x="33" y="536"/>
    </contour>
  </outline>
</glyph>
<glyph name="dagger" format="1">
  <advance width="398"/>
  <unicode hex="2020"/>
  <outline>
    <contour>
      <point x="152" y="487" type="curve" smooth="yes"/>
      <point x="166" y="487"/>
      <point x="172" y="492"/>
      <point x="182" y="505" type="curve"/>
      <point x="182" y="538"/>
      <point x="173" y="606"/>
      <point x="154" y="625" type="curve"/>
      <point x="154" y="646"/>
      <point x="175" y="662"/>
      <point x="198" y="662" type="curve" smooth="yes"/>
      <point x="219" y="662"/>
      <point x="241" y="646"/>
      <point x="241" y="625" type="curve"/>
      <point x="222" y="606"/>
      <point x="212" y="538"/>
      <point x="212" y="505" type="curve"/>
      <point x="222" y="492"/>
      <point x="231" y="487"/>
      <point x="244" y="487" type="curve" smooth="yes"/>
      <point x="277" y="487"/>
      <point x="305" y="501"/>
      <point x="324" y="520" type="curve"/>
      <point x="345" y="520"/>
      <point x="362" y="497"/>
      <point x="362" y="476" type="curve" smooth="yes"/>
      <point x="362" y="455"/>
      <point x="345" y="434"/>
      <point x="324" y="434" type="curve"/>
      <point x="305" y="453"/>
      <point x="278" y="464"/>
      <point x="244" y="464" type="curve" smooth="yes"/>
      <point x="228" y="464"/>
      <point x="214" y="448"/>
      <point x="214" y="436" type="curve"/>
      <point x="221" y="419"/>
      <point x="234" y="394"/>
      <point x="246" y="365" type="curve"/>
      <point x="224" y="227"/>
      <point x="222" y="178"/>
      <point x="206" y="-3" type="curve"/>
      <point x="204" y="-9"/>
      <point x="202" y="-15"/>
      <point x="198" y="-16" type="curve"/>
      <point x="194" y="-15"/>
      <point x="192" y="-7"/>
      <point x="190" y="-3" type="curve"/>
      <point x="174" y="178"/>
      <point x="171" y="227"/>
      <point x="149" y="365" type="curve"/>
      <point x="160" y="390"/>
      <point x="173" y="419"/>
      <point x="180" y="436" type="curve"/>
      <point x="180" y="448"/>
      <point x="168" y="464"/>
      <point x="152" y="464" type="curve" smooth="yes"/>
      <point x="118" y="464"/>
      <point x="91" y="453"/>
      <point x="72" y="434" type="curve"/>
      <point x="51" y="434"/>
      <point x="34" y="455"/>
      <point x="34" y="476" type="curve" smooth="yes"/>
      <point x="34" y="497"/>
      <point x="51" y="520"/>
      <point x="72" y="520" type="curve"/>
      <point x="91" y="501"/>
      <point x="119" y="487"/>
    </contour>
  </outline>
</glyph>
